G04 start of page 9 for group -4015 idx -4015
G04 Title: (unknown), toppaste *
G04 Creator: pcb-bin 20060822 *
G04 CreationDate: Mon Jun 16 01:23:04 2008 UTC *
G04 For: pete *
G04 Format: Gerber/RS-274X *
G04 PCB-Dimensions: 645000 1075000 *
G04 PCB-Coordinate-Origin: lower left *
%MOIN*%
%FSLAX24Y24*%
%LNFRONTPASTE*%
%ADD11R,0.0512X0.0512*%
%ADD12R,0.0200X0.0200*%
%ADD13R,0.0690X0.0690*%
%ADD14R,0.0709X0.0709*%
%ADD15R,0.0560X0.0560*%
%ADD16R,0.1220X0.1220*%
G54D11*X53659Y42118D02*Y41881D01*
X54840Y42118D02*Y41881D01*
X53659Y40868D02*Y40631D01*
X54840Y40868D02*Y40631D01*
X51909Y37618D02*Y37381D01*
X53090Y37618D02*Y37381D01*
X42381Y70090D02*X42618D01*
X42381Y68909D02*X42618D01*
G54D12*X52150Y34750D02*X52750D01*
X52150Y34250D02*X52750D01*
X52150Y33750D02*X52750D01*
X52150Y33250D02*X52750D01*
X52150Y32750D02*X52750D01*
X52150Y32250D02*X52750D01*
X52150Y31750D02*X52750D01*
X52150Y31250D02*X52750D01*
X55750D02*X56350D01*
X55750Y31750D02*X56350D01*
X55750Y32250D02*X56350D01*
X55750Y32750D02*X56350D01*
X55750Y33250D02*X56350D01*
X55750Y33750D02*X56350D01*
X55750Y34250D02*X56350D01*
X55750Y34750D02*X56350D01*
G54D11*X52409Y64118D02*Y63881D01*
X53590Y64118D02*Y63881D01*
X48840Y14868D02*Y14631D01*
X47659Y14868D02*Y14631D01*
G54D13*X44700Y25060D02*Y24940D01*
X45800Y25060D02*Y24940D01*
G54D14*X45665Y9423D02*X46334D01*
X45665Y11076D02*X46334D01*
G54D11*X55590Y30368D02*Y30131D01*
X54409Y30368D02*Y30131D01*
X43659Y27118D02*Y26881D01*
X44840Y27118D02*Y26881D01*
X55590Y29368D02*Y29131D01*
X54409Y29368D02*Y29131D01*
X49659Y14868D02*Y14631D01*
X50840Y14868D02*Y14631D01*
X49659Y15868D02*Y15631D01*
X50840Y15868D02*Y15631D01*
X38909Y73368D02*Y73131D01*
X40090Y73368D02*Y73131D01*
X44659Y63368D02*Y63131D01*
X45840Y63368D02*Y63131D01*
X43340Y25118D02*Y24881D01*
X42159Y25118D02*Y24881D01*
G54D15*X49000Y18080D02*Y17420D01*
X49900Y18080D02*Y17420D01*
X50810Y18080D02*Y17420D01*
G54D16*X49450Y20190D02*X50350D01*
G54D12*X50900Y69250D02*X51500D01*
X50900Y68750D02*X51500D01*
X50900Y68250D02*X51500D01*
X50900Y67750D02*X51500D01*
X50900Y67250D02*X51500D01*
X50900Y66750D02*X51500D01*
X50900Y66250D02*X51500D01*
X50900Y65750D02*X51500D01*
X50900Y65250D02*X51500D01*
X54500D02*X55100D01*
X54500Y65750D02*X55100D01*
X54500Y66250D02*X55100D01*
X54500Y66750D02*X55100D01*
X54500Y67250D02*X55100D01*
X54500Y67750D02*X55100D01*
X54500Y68250D02*X55100D01*
X54500Y68750D02*X55100D01*
X54500Y69250D02*X55100D01*
G54D11*X38909Y41118D02*Y40881D01*
X40090Y41118D02*Y40881D01*
X38909Y8868D02*Y8631D01*
X40090Y8868D02*Y8631D01*
M02*
