M48
INCH,TZ
T11C0.042
T12C0.030
T13C0.062
T14C0.035
T15C0.020
T16C0.188
T17C0.219
%
T15
X056500Y065250
X056000Y065750
X056000Y066750
X056500Y066250
X049250Y062250
X048750Y061750
X053000Y068500
X046250Y065000
X046250Y066000
X046250Y067000
X050250Y066250
X045500Y069000
X053750Y030250
X038000Y081250
X041250Y071250
X041250Y072250
X038750Y080500
T12
X044250Y065000
X044250Y066000
X044250Y067000
X044250Y068000
X044250Y069000
X044250Y070000
X038000Y050000
X039750Y051000
X039750Y050000
X038000Y051000
X039750Y052000
X038000Y052000
X039750Y082250
X038000Y082250
X039750Y083250
X038000Y083250
X039750Y084250
X038000Y084250
X049000Y008500
X048000Y008500
X039750Y017750
X039750Y018750
X039750Y019750
X038000Y018750
X038000Y019750
X038000Y017750
T14
X057750Y061750
X059250Y061750
X055500Y070750
X052500Y062750
X051500Y061750
X049250Y058750
X048750Y057500
X059750Y030250
X057750Y026750
X059750Y026750
X057750Y030250
X060250Y041500
X060250Y036500
X056750Y036500
X053750Y027500
X053750Y029250
X051750Y028250
X061000Y040750
X041750Y039250
X039750Y039250
X041750Y019250
X041250Y015750
X049250Y025750
X048500Y024250
X040500Y048250
T11
X049000Y066250
X049000Y067750
X049000Y068750
X056750Y067750
X056000Y042000
X054250Y036500
X046250Y027000
X042500Y027000
X056000Y040750
X050500Y036250
X050500Y034750
X038000Y042750
X038000Y047250
X039750Y053750
X038000Y053750
X038000Y075000
X038000Y079500
X039750Y086000
X038000Y086000
X038000Y010500
X051000Y012500
X051000Y013750
X046000Y012500
X052000Y014750
X038000Y015000
X039750Y021500
X038000Y021500
T13
X048261Y034000
X040387Y034000
T16
X039500Y024000
X037500Y025750
X038500Y028500
X036000Y032750
X035750Y029750
X033250Y033250
X032500Y036000
X029750Y035750
X039500Y088500
X038500Y093000
X037500Y090250
X036000Y097250
X033250Y097750
X035750Y094250
X032500Y100500
X029750Y100250
X039500Y056250
X038500Y060750
X037500Y058000
X035750Y062000
X036000Y065000
X033250Y065500
X032500Y068250
X029750Y068000
T17
X059500Y102500
X005000Y102500
X059500Y005000
X005000Y005000
M30
