G04 start of page 7 for group -4079 idx -4079
G04 Title: (unknown), topsilk *
G04 Creator: pcb-bin 20060822 *
G04 CreationDate: Mon Jun 16 01:23:04 2008 UTC *
G04 For: pete *
G04 Format: Gerber/RS-274X *
G04 PCB-Dimensions: 645000 1075000 *
G04 PCB-Coordinate-Origin: lower left *
%MOIN*%
%FSLAX24Y24*%
%LNFRONTSILK*%
%ADD11C,0.0200*%
%ADD12C,0.0400*%
%ADD13C,0.0080*%
%ADD14C,0.0100*%
G54D11*G36*
X10000Y2500D02*X23500D01*
Y0D01*
X10000D01*
Y2500D01*
G37*
G54D12*X21500Y64500D02*Y43000D01*
Y96750D02*Y75250D01*
Y32250D02*Y10750D01*
X11000Y53750D02*X32250D01*
X11000Y21500D02*X32250D01*
X11000Y86000D02*X32250D01*
X21500Y32250D02*G75*G02X32250Y21500I0J-10750D01*G01*
X21500Y64500D02*G75*G02X32250Y53750I0J-10750D01*G01*
X10750Y21500D02*G75*G02X21500Y32250I10750J0D01*G01*
Y43000D02*G75*G02X10750Y53750I0J10750D01*G01*
G75*G02X21500Y64500I10750J0D01*G01*
X32250Y53750D02*G75*G02X21500Y43000I-10750J0D01*G01*
X32250Y21500D02*G75*G02X21500Y10750I-10750J0D01*G01*
G75*G02X10750Y21500I0J10750D01*G01*
X32250Y86000D02*G75*G02X21500Y75250I-10750J0D01*G01*
Y96750D02*G75*G02X32250Y86000I0J-10750D01*G01*
X21500Y75250D02*G75*G02X10750Y86000I0J10750D01*G01*
G75*G02X21500Y96750I10750J0D01*G01*
X14250Y84500D02*Y80500D01*
Y84500D02*X15750Y83000D01*
X17250Y84500D01*
Y80500D01*
X18951D02*X19951D01*
X19451Y84500D02*Y80500D01*
X18451Y83500D02*X19451Y84500D01*
X13750Y20000D02*Y16000D01*
Y20000D02*X15250Y18500D01*
X16750Y20000D01*
Y16000D01*
X17951Y19500D02*X18451Y20000D01*
X19451D01*
X19951Y19500D01*
Y16500D01*
X19451Y16000D02*X19951Y16500D01*
X18451Y16000D02*X19451D01*
X17951Y16500D02*X18451Y16000D01*
Y18000D02*X19951D01*
X13500Y52000D02*Y48000D01*
Y52000D02*X15000Y50500D01*
X16500Y52000D01*
Y48000D01*
X17701Y51500D02*X18201Y52000D01*
X19701D01*
X20201Y51500D01*
Y50500D01*
X17701Y48000D02*X20201Y50500D01*
X17701Y48000D02*X20201D01*
G54D13*X54763Y29624D02*X55236D01*
X54763Y28876D02*X55236D01*
X54763Y30624D02*X55236D01*
X54763Y29876D02*X55236D01*
G54D14*X56550Y34950D02*X54500D01*
X51950D02*X54000D01*
X56550Y31050D02*Y34950D01*
X51950Y31050D02*X56550D01*
X51950Y34950D02*Y31050D01*
X54000Y34950D02*G75*G03X54500Y34950I250J0D01*G01*
G54D13*X54013Y41626D02*X54486D01*
X54013Y42374D02*X54486D01*
X54013Y40376D02*X54486D01*
X54013Y41124D02*X54486D01*
X52263Y37126D02*X52736D01*
X52263Y37874D02*X52736D01*
G54D14*X39206Y33999D02*G75*G03X44324Y28881I5118J0D01*G01*
X49442Y33999D02*G75*G03X44324Y39118I-5118J0D01*G01*
X44324Y28881D02*G75*G03X49442Y34000I0J5118D01*G01*
X44324Y39118D02*G75*G03X39206Y34000I0J-5118D01*G01*
X40250Y52500D02*Y51500D01*
X39250D02*X40250D01*
G54D11*X39250Y52500D02*X40250D01*
Y49500D01*
X39250D02*X40250D01*
X39250Y52500D02*Y49500D01*
G54D14*X38500Y52500D02*Y51500D01*
X37500D02*X38500D01*
G54D11*X37500Y52500D02*X38500D01*
Y49500D01*
X37500D02*X38500D01*
X37500Y52500D02*Y49500D01*
G54D13*X39263Y40626D02*X39736D01*
X39263Y41374D02*X39736D01*
G54D14*X40500Y47750D02*X35500D01*
X40500Y42250D02*X35500D01*
X40500Y47750D02*Y42250D01*
X35500D02*Y47750D01*
G54D13*X50013Y14376D02*X50486D01*
X50013Y15124D02*X50486D01*
X50013Y15376D02*X50486D01*
X50013Y16124D02*X50486D01*
G54D14*X51330Y21040D02*X48480D01*
X51330Y16900D02*Y21040D01*
X48480Y16900D02*X51330D01*
X48480Y21040D02*Y16900D01*
G54D13*X48013Y15124D02*X48486D01*
X48013Y14376D02*X48486D01*
G54D14*X47500Y9000D02*X48500D01*
Y8000D01*
G54D11*X47500Y9000D02*Y8000D01*
Y9000D02*X49500D01*
Y8000D01*
X47500D02*X49500D01*
G54D14*X47660Y13330D02*Y11670D01*
X49340D02*X47660Y12500D01*
X49340Y13330D02*Y11670D01*
X47660Y12500D02*X49340Y13330D01*
Y12500D02*X51000D01*
X46000D02*X47660D01*
G54D13*X46688Y10564D02*Y9935D01*
X45311Y10564D02*Y9935D01*
G54D14*X44490Y25510D02*X44150Y25400D01*
X46250Y25510D02*X44490D01*
X46250Y24490D02*Y25510D01*
X44490Y24490D02*X46250D01*
X44150Y24600D02*X44490Y24490D01*
G54D11*X44150Y25400D02*Y24600D01*
G54D13*X44013Y26626D02*X44486D01*
X44013Y27374D02*X44486D01*
X42513Y25374D02*X42986D01*
X42513Y24626D02*X42986D01*
G54D14*X38500Y20250D02*Y19250D01*
X37500D02*X38500D01*
G54D11*X37500Y20250D02*X38500D01*
Y17250D01*
X37500D02*X38500D01*
X37500Y20250D02*Y17250D01*
G54D14*X40250Y20250D02*Y19250D01*
X39250D02*X40250D01*
G54D11*X39250Y20250D02*X40250D01*
Y17250D01*
X39250D02*X40250D01*
X39250Y20250D02*Y17250D01*
G54D13*X39263Y8376D02*X39736D01*
X39263Y9124D02*X39736D01*
G54D14*X40500Y15500D02*X35500D01*
X40500Y10000D02*X35500D01*
X40500Y15500D02*Y10000D01*
X35500D02*Y15500D01*
G54D13*X52763Y63626D02*X53236D01*
X52763Y64374D02*X53236D01*
G54D14*X55300Y69450D02*X53250D01*
X50700D02*X52750D01*
X55300Y65050D02*Y69450D01*
X50700Y65050D02*X55300D01*
X50700Y69450D02*Y65050D01*
X52750Y69450D02*G75*G03X53250Y69450I250J0D01*G01*
G54D13*X45013Y62876D02*X45486D01*
X45013Y63624D02*X45486D01*
G54D14*X44750Y69500D02*Y70500D01*
X43750Y69500D02*X44750D01*
G54D11*Y70500D02*X43750D01*
X44750Y64500D02*Y70500D01*
X43750Y64500D02*X44750D01*
X43750Y70500D02*Y64500D01*
G54D13*X42126Y69736D02*Y69263D01*
X42874Y69736D02*Y69263D01*
G54D14*X40250Y84750D02*Y83750D01*
X39250D02*X40250D01*
G54D11*X39250Y84750D02*X40250D01*
Y81750D01*
X39250D02*X40250D01*
X39250Y84750D02*Y81750D01*
G54D14*X38500Y84750D02*Y83750D01*
X37500D02*X38500D01*
G54D11*X37500Y84750D02*X38500D01*
Y81750D01*
X37500D02*X38500D01*
X37500Y84750D02*Y81750D01*
G54D13*X39263Y72876D02*X39736D01*
X39263Y73624D02*X39736D01*
G54D14*X40500Y80000D02*X35500D01*
X40500Y74500D02*X35500D01*
X40500Y80000D02*Y74500D01*
X35500D02*Y80000D01*
X56550Y29000D02*X56700D01*
X56500Y29050D02*X56550Y29000D01*
X56500Y29350D02*Y29050D01*
Y29350D02*X56550Y29400D01*
X56700D01*
X56870Y29000D02*X56970D01*
X56920Y29400D02*Y29000D01*
X56820Y29300D02*X56920Y29400D01*
X57090Y29050D02*X57140Y29000D01*
X57090Y29350D02*Y29050D01*
Y29350D02*X57140Y29400D01*
X57240D01*
X57290Y29350D01*
Y29050D01*
X57240Y29000D02*X57290Y29050D01*
X57140Y29000D02*X57240D01*
X57090Y29100D02*X57290Y29300D01*
X57410Y29350D02*X57460Y29400D01*
X57560D01*
X57610Y29350D01*
Y29050D01*
X57560Y29000D02*X57610Y29050D01*
X57460Y29000D02*X57560D01*
X57410Y29050D02*X57460Y29000D01*
Y29200D02*X57610D01*
X56550Y29500D02*X56700D01*
X56500Y29550D02*X56550Y29500D01*
X56500Y29850D02*Y29550D01*
Y29850D02*X56550Y29900D01*
X56700D01*
X56870Y29500D02*X56970D01*
X56920Y29900D02*Y29500D01*
X56820Y29800D02*X56920Y29900D01*
X57090Y29550D02*X57140Y29500D01*
X57090Y29850D02*Y29550D01*
Y29850D02*X57140Y29900D01*
X57240D01*
X57290Y29850D01*
Y29550D01*
X57240Y29500D02*X57290Y29550D01*
X57140Y29500D02*X57240D01*
X57090Y29600D02*X57290Y29800D01*
X57410Y29850D02*X57460Y29900D01*
X57610D01*
X57660Y29850D01*
Y29750D01*
X57410Y29500D02*X57660Y29750D01*
X57410Y29500D02*X57660D01*
X54750Y40150D02*X54950D01*
X54850D02*Y39750D01*
X55120Y40150D02*Y39750D01*
X55070Y40150D02*X55270D01*
X55320Y40100D01*
Y40000D01*
X55270Y39950D02*X55320Y40000D01*
X55120Y39950D02*X55270D01*
X55440Y40100D02*X55490Y40150D01*
X55640D01*
X55690Y40100D01*
Y40000D01*
X55440Y39750D02*X55690Y40000D01*
X55440Y39750D02*X55690D01*
X55810Y39800D02*X55860Y39750D01*
X55810Y40100D02*Y39800D01*
Y40100D02*X55860Y40150D01*
X55960D01*
X56010Y40100D01*
Y39800D01*
X55960Y39750D02*X56010Y39800D01*
X55860Y39750D02*X55960D01*
X55810Y39850D02*X56010Y40050D01*
X56180Y39750D02*X56280D01*
X56230Y40150D02*Y39750D01*
X56130Y40050D02*X56230Y40150D01*
X54750Y42900D02*X54950D01*
X54850D02*Y42500D01*
X55120Y42900D02*Y42500D01*
X55070Y42900D02*X55270D01*
X55320Y42850D01*
Y42750D01*
X55270Y42700D02*X55320Y42750D01*
X55120Y42700D02*X55270D01*
X55440Y42850D02*X55490Y42900D01*
X55640D01*
X55690Y42850D01*
Y42750D01*
X55440Y42500D02*X55690Y42750D01*
X55440Y42500D02*X55690D01*
X55810Y42550D02*X55860Y42500D01*
X55810Y42850D02*Y42550D01*
Y42850D02*X55860Y42900D01*
X55960D01*
X56010Y42850D01*
Y42550D01*
X55960Y42500D02*X56010Y42550D01*
X55860Y42500D02*X55960D01*
X55810Y42600D02*X56010Y42800D01*
X56130Y42850D02*X56180Y42900D01*
X56330D01*
X56380Y42850D01*
Y42750D01*
X56130Y42500D02*X56380Y42750D01*
X56130Y42500D02*X56380D01*
X53500Y38150D02*X53700D01*
X53750Y38100D01*
Y38000D01*
X53700Y37950D02*X53750Y38000D01*
X53550Y37950D02*X53700D01*
X53550Y38150D02*Y37750D01*
Y37950D02*X53750Y37750D01*
X53920D02*X54020D01*
X53970Y38150D02*Y37750D01*
X53870Y38050D02*X53970Y38150D01*
X54140Y37800D02*X54190Y37750D01*
X54140Y38100D02*Y37800D01*
Y38100D02*X54190Y38150D01*
X54290D01*
X54340Y38100D01*
Y37800D01*
X54290Y37750D02*X54340Y37800D01*
X54190Y37750D02*X54290D01*
X54140Y37850D02*X54340Y38050D01*
X54460Y38100D02*X54510Y38150D01*
X54660D01*
X54710Y38100D01*
Y38000D01*
X54460Y37750D02*X54710Y38000D01*
X54460Y37750D02*X54710D01*
X52000Y35650D02*Y35300D01*
X52050Y35250D01*
X52150D01*
X52200Y35300D01*
Y35650D02*Y35300D01*
X52370Y35250D02*X52470D01*
X52420Y35650D02*Y35250D01*
X52320Y35550D02*X52420Y35650D01*
X52590Y35300D02*X52640Y35250D01*
X52590Y35600D02*Y35300D01*
Y35600D02*X52640Y35650D01*
X52740D01*
X52790Y35600D01*
Y35300D01*
X52740Y35250D02*X52790Y35300D01*
X52640Y35250D02*X52740D01*
X52590Y35350D02*X52790Y35550D01*
X52960Y35250D02*X53060D01*
X53010Y35650D02*Y35250D01*
X52910Y35550D02*X53010Y35650D01*
X52250Y36650D02*X52450D01*
X52350D02*Y36250D01*
X52620Y36650D02*Y36250D01*
X52570Y36650D02*X52770D01*
X52820Y36600D01*
Y36500D01*
X52770Y36450D02*X52820Y36500D01*
X52620Y36450D02*X52770D01*
X52990Y36250D02*X53090D01*
X53040Y36650D02*Y36250D01*
X52940Y36550D02*X53040Y36650D01*
X53210Y36300D02*X53260Y36250D01*
X53210Y36600D02*Y36300D01*
Y36600D02*X53260Y36650D01*
X53360D01*
X53410Y36600D01*
Y36300D01*
X53360Y36250D02*X53410Y36300D01*
X53260Y36250D02*X53360D01*
X53210Y36350D02*X53410Y36550D01*
X53530Y36600D02*X53580Y36650D01*
X53730D01*
X53780Y36600D01*
Y36500D01*
X53530Y36250D02*X53780Y36500D01*
X53530Y36250D02*X53780D01*
X51750Y40900D02*X51950D01*
X52000Y40850D01*
Y40750D01*
X51950Y40700D02*X52000Y40750D01*
X51800Y40700D02*X51950D01*
X51800Y40900D02*Y40500D01*
Y40700D02*X52000Y40500D01*
X52120Y40850D02*X52170Y40900D01*
X52320D01*
X52370Y40850D01*
Y40750D01*
X52120Y40500D02*X52370Y40750D01*
X52120Y40500D02*X52370D01*
X52490Y40550D02*X52540Y40500D01*
X52490Y40850D02*Y40550D01*
Y40850D02*X52540Y40900D01*
X52640D01*
X52690Y40850D01*
Y40550D01*
X52640Y40500D02*X52690Y40550D01*
X52540Y40500D02*X52640D01*
X52490Y40600D02*X52690Y40800D01*
X52860Y40500D02*X52960D01*
X52910Y40900D02*Y40500D01*
X52810Y40800D02*X52910Y40900D01*
X49500Y37150D02*X49700D01*
X49600D02*Y36750D01*
X49870Y37150D02*Y36750D01*
X49820Y37150D02*X50020D01*
X50070Y37100D01*
Y37000D01*
X50020Y36950D02*X50070Y37000D01*
X49870Y36950D02*X50020D01*
X50240Y36750D02*X50340D01*
X50290Y37150D02*Y36750D01*
X50190Y37050D02*X50290Y37150D01*
X50460Y36800D02*X50510Y36750D01*
X50460Y37100D02*Y36800D01*
Y37100D02*X50510Y37150D01*
X50610D01*
X50660Y37100D01*
Y36800D01*
X50610Y36750D02*X50660Y36800D01*
X50510Y36750D02*X50610D01*
X50460Y36850D02*X50660Y37050D01*
X50780Y37100D02*X50830Y37150D01*
X50930D01*
X50980Y37100D01*
Y36800D01*
X50930Y36750D02*X50980Y36800D01*
X50830Y36750D02*X50930D01*
X50780Y36800D02*X50830Y36750D01*
Y36950D02*X50980D01*
X49500Y35650D02*X49700D01*
X49600D02*Y35250D01*
X49870Y35650D02*Y35250D01*
X49820Y35650D02*X50020D01*
X50070Y35600D01*
Y35500D01*
X50020Y35450D02*X50070Y35500D01*
X49870Y35450D02*X50020D01*
X50240Y35250D02*X50340D01*
X50290Y35650D02*Y35250D01*
X50190Y35550D02*X50290Y35650D01*
X50460Y35300D02*X50510Y35250D01*
X50460Y35600D02*Y35300D01*
Y35600D02*X50510Y35650D01*
X50610D01*
X50660Y35600D01*
Y35300D01*
X50610Y35250D02*X50660Y35300D01*
X50510Y35250D02*X50610D01*
X50460Y35350D02*X50660Y35550D01*
X50780Y35450D02*X50980Y35650D01*
X50780Y35450D02*X51030D01*
X50980Y35650D02*Y35250D01*
X51750Y42150D02*X51950D01*
X52000Y42100D01*
Y42000D01*
X51950Y41950D02*X52000Y42000D01*
X51800Y41950D02*X51950D01*
X51800Y42150D02*Y41750D01*
Y41950D02*X52000Y41750D01*
X52120Y42100D02*X52170Y42150D01*
X52320D01*
X52370Y42100D01*
Y42000D01*
X52120Y41750D02*X52370Y42000D01*
X52120Y41750D02*X52370D01*
X52490Y41800D02*X52540Y41750D01*
X52490Y42100D02*Y41800D01*
Y42100D02*X52540Y42150D01*
X52640D01*
X52690Y42100D01*
Y41800D01*
X52640Y41750D02*X52690Y41800D01*
X52540Y41750D02*X52640D01*
X52490Y41850D02*X52690Y42050D01*
X52810Y42100D02*X52860Y42150D01*
X53010D01*
X53060Y42100D01*
Y42000D01*
X52810Y41750D02*X53060Y42000D01*
X52810Y41750D02*X53060D01*
X42800Y33500D02*X42950D01*
X42750Y33550D02*X42800Y33500D01*
X42750Y33850D02*Y33550D01*
Y33850D02*X42800Y33900D01*
X42950D01*
X43120Y33500D02*X43220D01*
X43170Y33900D02*Y33500D01*
X43070Y33800D02*X43170Y33900D01*
X43340Y33550D02*X43390Y33500D01*
X43340Y33850D02*Y33550D01*
Y33850D02*X43390Y33900D01*
X43490D01*
X43540Y33850D01*
Y33550D01*
X43490Y33500D02*X43540Y33550D01*
X43390Y33500D02*X43490D01*
X43340Y33600D02*X43540Y33800D01*
X43710Y33500D02*X43810D01*
X43760Y33900D02*Y33500D01*
X43660Y33800D02*X43760Y33900D01*
X38750Y40400D02*X38950D01*
X39000Y40350D01*
Y40250D01*
X38950Y40200D02*X39000Y40250D01*
X38800Y40200D02*X38950D01*
X38800Y40400D02*Y40000D01*
Y40200D02*X39000Y40000D01*
X39120Y40050D02*X39170Y40000D01*
X39120Y40150D02*Y40050D01*
Y40150D02*X39170Y40200D01*
X39270D01*
X39320Y40150D01*
Y40050D01*
X39270Y40000D02*X39320Y40050D01*
X39170Y40000D02*X39270D01*
X39120Y40250D02*X39170Y40200D01*
X39120Y40350D02*Y40250D01*
Y40350D02*X39170Y40400D01*
X39270D01*
X39320Y40350D01*
Y40250D01*
X39270Y40200D02*X39320Y40250D01*
X39440Y40050D02*X39490Y40000D01*
X39440Y40350D02*Y40050D01*
Y40350D02*X39490Y40400D01*
X39590D01*
X39640Y40350D01*
Y40050D01*
X39590Y40000D02*X39640Y40050D01*
X39490Y40000D02*X39590D01*
X39440Y40100D02*X39640Y40300D01*
X39760Y40350D02*X39810Y40400D01*
X39960D01*
X40010Y40350D01*
Y40250D01*
X39760Y40000D02*X40010Y40250D01*
X39760Y40000D02*X40010D01*
X57250Y68150D02*X57450D01*
X57350D02*Y67750D01*
X57620Y68150D02*Y67750D01*
X57570Y68150D02*X57770D01*
X57820Y68100D01*
Y68000D01*
X57770Y67950D02*X57820Y68000D01*
X57620Y67950D02*X57770D01*
X57940D02*X58140Y68150D01*
X57940Y67950D02*X58190D01*
X58140Y68150D02*Y67750D01*
X58310Y67800D02*X58360Y67750D01*
X58310Y68100D02*Y67800D01*
Y68100D02*X58360Y68150D01*
X58460D01*
X58510Y68100D01*
Y67800D01*
X58460Y67750D02*X58510Y67800D01*
X58360Y67750D02*X58460D01*
X58310Y67850D02*X58510Y68050D01*
X58630Y68100D02*X58680Y68150D01*
X58780D01*
X58830Y68100D01*
Y67800D01*
X58780Y67750D02*X58830Y67800D01*
X58680Y67750D02*X58780D01*
X58630Y67800D02*X58680Y67750D01*
Y67950D02*X58830D01*
X52800Y63000D02*X52950D01*
X52750Y63050D02*X52800Y63000D01*
X52750Y63350D02*Y63050D01*
Y63350D02*X52800Y63400D01*
X52950D01*
X53070Y63200D02*X53270Y63400D01*
X53070Y63200D02*X53320D01*
X53270Y63400D02*Y63000D01*
X53440Y63050D02*X53490Y63000D01*
X53440Y63350D02*Y63050D01*
Y63350D02*X53490Y63400D01*
X53590D01*
X53640Y63350D01*
Y63050D01*
X53590Y63000D02*X53640Y63050D01*
X53490Y63000D02*X53590D01*
X53440Y63100D02*X53640Y63300D01*
X53810Y63000D02*X53910D01*
X53860Y63400D02*Y63000D01*
X53760Y63300D02*X53860Y63400D01*
X39000Y53150D02*X39200D01*
X39250Y53100D01*
Y53000D01*
X39200Y52950D02*X39250Y53000D01*
X39050Y52950D02*X39200D01*
X39050Y53150D02*Y52750D01*
Y52950D02*X39250Y52750D01*
X39370Y53150D02*X39570D01*
X39370D02*Y52950D01*
X39420Y53000D01*
X39520D01*
X39570Y52950D01*
Y52800D01*
X39520Y52750D02*X39570Y52800D01*
X39420Y52750D02*X39520D01*
X39370Y52800D02*X39420Y52750D01*
X39690Y52800D02*X39740Y52750D01*
X39690Y53100D02*Y52800D01*
Y53100D02*X39740Y53150D01*
X39840D01*
X39890Y53100D01*
Y52800D01*
X39840Y52750D02*X39890Y52800D01*
X39740Y52750D02*X39840D01*
X39690Y52850D02*X39890Y53050D01*
X40010Y53100D02*X40060Y53150D01*
X40160D01*
X40210Y53100D01*
Y52800D01*
X40160Y52750D02*X40210Y52800D01*
X40060Y52750D02*X40160D01*
X40010Y52800D02*X40060Y52750D01*
Y52950D02*X40210D01*
X47250Y65650D02*X47450D01*
X47350D02*Y65250D01*
X47620Y65650D02*Y65250D01*
X47570Y65650D02*X47770D01*
X47820Y65600D01*
Y65500D01*
X47770Y65450D02*X47820Y65500D01*
X47620Y65450D02*X47770D01*
X47940D02*X48140Y65650D01*
X47940Y65450D02*X48190D01*
X48140Y65650D02*Y65250D01*
X48310Y65300D02*X48360Y65250D01*
X48310Y65600D02*Y65300D01*
Y65600D02*X48360Y65650D01*
X48460D01*
X48510Y65600D01*
Y65300D01*
X48460Y65250D02*X48510Y65300D01*
X48360Y65250D02*X48460D01*
X48310Y65350D02*X48510Y65550D01*
X48630Y65600D02*X48680Y65650D01*
X48830D01*
X48880Y65600D01*
Y65500D01*
X48630Y65250D02*X48880Y65500D01*
X48630Y65250D02*X48880D01*
X44500Y62650D02*X44700D01*
X44750Y62600D01*
Y62500D01*
X44700Y62450D02*X44750Y62500D01*
X44550Y62450D02*X44700D01*
X44550Y62650D02*Y62250D01*
Y62450D02*X44750Y62250D01*
X44870Y62600D02*X44920Y62650D01*
X45020D01*
X45070Y62600D01*
Y62300D01*
X45020Y62250D02*X45070Y62300D01*
X44920Y62250D02*X45020D01*
X44870Y62300D02*X44920Y62250D01*
Y62450D02*X45070D01*
X45190Y62300D02*X45240Y62250D01*
X45190Y62600D02*Y62300D01*
Y62600D02*X45240Y62650D01*
X45340D01*
X45390Y62600D01*
Y62300D01*
X45340Y62250D02*X45390Y62300D01*
X45240Y62250D02*X45340D01*
X45190Y62350D02*X45390Y62550D01*
X45510Y62600D02*X45560Y62650D01*
X45710D01*
X45760Y62600D01*
Y62500D01*
X45510Y62250D02*X45760Y62500D01*
X45510Y62250D02*X45760D01*
X39250Y54650D02*X39450D01*
X39350D02*Y54250D01*
X39620Y54650D02*Y54250D01*
X39570Y54650D02*X39770D01*
X39820Y54600D01*
Y54500D01*
X39770Y54450D02*X39820Y54500D01*
X39620Y54450D02*X39770D01*
X39940Y54650D02*X40140D01*
X39940D02*Y54450D01*
X39990Y54500D01*
X40090D01*
X40140Y54450D01*
Y54300D01*
X40090Y54250D02*X40140Y54300D01*
X39990Y54250D02*X40090D01*
X39940Y54300D02*X39990Y54250D01*
X40260Y54300D02*X40310Y54250D01*
X40260Y54600D02*Y54300D01*
Y54600D02*X40310Y54650D01*
X40410D01*
X40460Y54600D01*
Y54300D01*
X40410Y54250D02*X40460Y54300D01*
X40310Y54250D02*X40410D01*
X40260Y54350D02*X40460Y54550D01*
X40580Y54600D02*X40630Y54650D01*
X40730D01*
X40780Y54600D01*
Y54300D01*
X40730Y54250D02*X40780Y54300D01*
X40630Y54250D02*X40730D01*
X40580Y54300D02*X40630Y54250D01*
Y54450D02*X40780D01*
X37500Y54650D02*X37700D01*
X37600D02*Y54250D01*
X37870Y54650D02*Y54250D01*
X37820Y54650D02*X38020D01*
X38070Y54600D01*
Y54500D01*
X38020Y54450D02*X38070Y54500D01*
X37870Y54450D02*X38020D01*
X38190Y54650D02*X38390D01*
X38190D02*Y54450D01*
X38240Y54500D01*
X38340D01*
X38390Y54450D01*
Y54300D01*
X38340Y54250D02*X38390Y54300D01*
X38240Y54250D02*X38340D01*
X38190Y54300D02*X38240Y54250D01*
X38510Y54300D02*X38560Y54250D01*
X38510Y54600D02*Y54300D01*
Y54600D02*X38560Y54650D01*
X38660D01*
X38710Y54600D01*
Y54300D01*
X38660Y54250D02*X38710Y54300D01*
X38560Y54250D02*X38660D01*
X38510Y54350D02*X38710Y54550D01*
X38830Y54450D02*X39030Y54650D01*
X38830Y54450D02*X39080D01*
X39030Y54650D02*Y54250D01*
X50750Y70150D02*Y69800D01*
X50800Y69750D01*
X50900D01*
X50950Y69800D01*
Y70150D02*Y69800D01*
X51070Y69950D02*X51270Y70150D01*
X51070Y69950D02*X51320D01*
X51270Y70150D02*Y69750D01*
X51440Y69800D02*X51490Y69750D01*
X51440Y70100D02*Y69800D01*
Y70100D02*X51490Y70150D01*
X51590D01*
X51640Y70100D01*
Y69800D01*
X51590Y69750D02*X51640Y69800D01*
X51490Y69750D02*X51590D01*
X51440Y69850D02*X51640Y70050D01*
X51810Y69750D02*X51910D01*
X51860Y70150D02*Y69750D01*
X51760Y70050D02*X51860Y70150D01*
X47000Y67900D02*X47200D01*
X47100D02*Y67500D01*
X47370Y67900D02*Y67500D01*
X47320Y67900D02*X47520D01*
X47570Y67850D01*
Y67750D01*
X47520Y67700D02*X47570Y67750D01*
X47370Y67700D02*X47520D01*
X47690Y67850D02*X47740Y67900D01*
X47840D01*
X47890Y67850D01*
Y67550D01*
X47840Y67500D02*X47890Y67550D01*
X47740Y67500D02*X47840D01*
X47690Y67550D02*X47740Y67500D01*
Y67700D02*X47890D01*
X48010Y67550D02*X48060Y67500D01*
X48010Y67850D02*Y67550D01*
Y67850D02*X48060Y67900D01*
X48160D01*
X48210Y67850D01*
Y67550D01*
X48160Y67500D02*X48210Y67550D01*
X48060Y67500D02*X48160D01*
X48010Y67600D02*X48210Y67800D01*
X48380Y67500D02*X48480D01*
X48430Y67900D02*Y67500D01*
X48330Y67800D02*X48430Y67900D01*
X47000Y69150D02*X47200D01*
X47100D02*Y68750D01*
X47370Y69150D02*Y68750D01*
X47320Y69150D02*X47520D01*
X47570Y69100D01*
Y69000D01*
X47520Y68950D02*X47570Y69000D01*
X47370Y68950D02*X47520D01*
X47690D02*X47890Y69150D01*
X47690Y68950D02*X47940D01*
X47890Y69150D02*Y68750D01*
X48060Y68800D02*X48110Y68750D01*
X48060Y69100D02*Y68800D01*
Y69100D02*X48110Y69150D01*
X48210D01*
X48260Y69100D01*
Y68800D01*
X48210Y68750D02*X48260Y68800D01*
X48110Y68750D02*X48210D01*
X48060Y68850D02*X48260Y69050D01*
X48430Y68750D02*X48530D01*
X48480Y69150D02*Y68750D01*
X48380Y69050D02*X48480Y69150D01*
X41600Y68950D02*Y68750D01*
Y68950D02*X41650Y69000D01*
X41750D01*
X41800Y68950D02*X41750Y69000D01*
X41800Y68950D02*Y68800D01*
X41600D02*X42000D01*
X41800D02*X42000Y69000D01*
X41650Y69120D02*X41600Y69170D01*
Y69270D02*Y69170D01*
Y69270D02*X41650Y69320D01*
X41950D01*
X42000Y69270D02*X41950Y69320D01*
X42000Y69270D02*Y69170D01*
X41950Y69120D02*X42000Y69170D01*
X41800Y69320D02*Y69170D01*
X41950Y69440D02*X42000Y69490D01*
X41650Y69440D02*X41950D01*
X41650D02*X41600Y69490D01*
Y69590D02*Y69490D01*
Y69590D02*X41650Y69640D01*
X41950D01*
X42000Y69590D02*X41950Y69640D01*
X42000Y69590D02*Y69490D01*
X41900Y69440D02*X41700Y69640D01*
X42000Y69910D02*Y69810D01*
X41600Y69860D02*X42000D01*
X41700Y69760D02*X41600Y69860D01*
X44000Y71150D02*X44100D01*
X44050D02*Y70750D01*
X44000D02*X44100D01*
X44270D02*X44420D01*
X44220Y70800D02*X44270Y70750D01*
X44220Y71100D02*Y70800D01*
Y71100D02*X44270Y71150D01*
X44420D01*
X44740D02*X44790Y71100D01*
X44590Y71150D02*X44740D01*
X44540Y71100D02*X44590Y71150D01*
X44540Y71100D02*Y71000D01*
X44590Y70950D01*
X44740D01*
X44790Y70900D01*
Y70800D01*
X44740Y70750D02*X44790Y70800D01*
X44590Y70750D02*X44740D01*
X44540Y70800D02*X44590Y70750D01*
X44960Y71150D02*Y70750D01*
X44910Y71150D02*X45110D01*
X45160Y71100D01*
Y71000D01*
X45110Y70950D02*X45160Y71000D01*
X44960Y70950D02*X45110D01*
X45280Y71100D02*X45330Y71150D01*
X45430D01*
X45480Y71100D01*
Y70800D01*
X45430Y70750D02*X45480Y70800D01*
X45330Y70750D02*X45430D01*
X45280Y70800D02*X45330Y70750D01*
Y70950D02*X45480D01*
X45600Y70800D02*X45650Y70750D01*
X45600Y71100D02*Y70800D01*
Y71100D02*X45650Y71150D01*
X45750D01*
X45800Y71100D01*
Y70800D01*
X45750Y70750D02*X45800Y70800D01*
X45650Y70750D02*X45750D01*
X45600Y70850D02*X45800Y71050D01*
X45970Y70750D02*X46070D01*
X46020Y71150D02*Y70750D01*
X45920Y71050D02*X46020Y71150D01*
X38750Y72650D02*X38950D01*
X39000Y72600D01*
Y72500D01*
X38950Y72450D02*X39000Y72500D01*
X38800Y72450D02*X38950D01*
X38800Y72650D02*Y72250D01*
Y72450D02*X39000Y72250D01*
X39120Y72300D02*X39170Y72250D01*
X39120Y72400D02*Y72300D01*
Y72400D02*X39170Y72450D01*
X39270D01*
X39320Y72400D01*
Y72300D01*
X39270Y72250D02*X39320Y72300D01*
X39170Y72250D02*X39270D01*
X39120Y72500D02*X39170Y72450D01*
X39120Y72600D02*Y72500D01*
Y72600D02*X39170Y72650D01*
X39270D01*
X39320Y72600D01*
Y72500D01*
X39270Y72450D02*X39320Y72500D01*
X39440Y72300D02*X39490Y72250D01*
X39440Y72600D02*Y72300D01*
Y72600D02*X39490Y72650D01*
X39590D01*
X39640Y72600D01*
Y72300D01*
X39590Y72250D02*X39640Y72300D01*
X39490Y72250D02*X39590D01*
X39440Y72350D02*X39640Y72550D01*
X39810Y72250D02*X39910D01*
X39860Y72650D02*Y72250D01*
X39760Y72550D02*X39860Y72650D01*
X39250Y86900D02*X39450D01*
X39350D02*Y86500D01*
X39620Y86900D02*Y86500D01*
X39570Y86900D02*X39770D01*
X39820Y86850D01*
Y86750D01*
X39770Y86700D02*X39820Y86750D01*
X39620Y86700D02*X39770D01*
X39940Y86900D02*X40140D01*
X39940D02*Y86700D01*
X39990Y86750D01*
X40090D01*
X40140Y86700D01*
Y86550D01*
X40090Y86500D02*X40140Y86550D01*
X39990Y86500D02*X40090D01*
X39940Y86550D02*X39990Y86500D01*
X40260Y86550D02*X40310Y86500D01*
X40260Y86850D02*Y86550D01*
Y86850D02*X40310Y86900D01*
X40410D01*
X40460Y86850D01*
Y86550D01*
X40410Y86500D02*X40460Y86550D01*
X40310Y86500D02*X40410D01*
X40260Y86600D02*X40460Y86800D01*
X40630Y86500D02*X40730D01*
X40680Y86900D02*Y86500D01*
X40580Y86800D02*X40680Y86900D01*
X37500D02*X37700D01*
X37600D02*Y86500D01*
X37870Y86900D02*Y86500D01*
X37820Y86900D02*X38020D01*
X38070Y86850D01*
Y86750D01*
X38020Y86700D02*X38070Y86750D01*
X37870Y86700D02*X38020D01*
X38190Y86900D02*X38390D01*
X38190D02*Y86700D01*
X38240Y86750D01*
X38340D01*
X38390Y86700D01*
Y86550D01*
X38340Y86500D02*X38390Y86550D01*
X38240Y86500D02*X38340D01*
X38190Y86550D02*X38240Y86500D01*
X38510Y86550D02*X38560Y86500D01*
X38510Y86850D02*Y86550D01*
Y86850D02*X38560Y86900D01*
X38660D01*
X38710Y86850D01*
Y86550D01*
X38660Y86500D02*X38710Y86550D01*
X38560Y86500D02*X38660D01*
X38510Y86600D02*X38710Y86800D01*
X38830Y86850D02*X38880Y86900D01*
X39030D01*
X39080Y86850D01*
Y86750D01*
X38830Y86500D02*X39080Y86750D01*
X38830Y86500D02*X39080D01*
X36850Y83700D02*Y83500D01*
Y83700D02*X36900Y83750D01*
X37000D01*
X37050Y83700D02*X37000Y83750D01*
X37050Y83700D02*Y83550D01*
X36850D02*X37250D01*
X37050D02*X37250Y83750D01*
X36850Y84070D02*Y83870D01*
X37050D01*
X37000Y83920D01*
Y84020D02*Y83920D01*
Y84020D02*X37050Y84070D01*
X37200D01*
X37250Y84020D02*X37200Y84070D01*
X37250Y84020D02*Y83920D01*
X37200Y83870D02*X37250Y83920D01*
X37200Y84190D02*X37250Y84240D01*
X36900Y84190D02*X37200D01*
X36900D02*X36850Y84240D01*
Y84340D02*Y84240D01*
Y84340D02*X36900Y84390D01*
X37200D01*
X37250Y84340D02*X37200Y84390D01*
X37250Y84340D02*Y84240D01*
X37150Y84190D02*X36950Y84390D01*
X36900Y84510D02*X36850Y84560D01*
Y84710D02*Y84560D01*
Y84710D02*X36900Y84760D01*
X37000D01*
X37250Y84510D02*X37000Y84760D01*
X37250D02*Y84510D01*
X38750Y85400D02*X38950D01*
X39000Y85350D01*
Y85250D01*
X38950Y85200D02*X39000Y85250D01*
X38800Y85200D02*X38950D01*
X38800Y85400D02*Y85000D01*
Y85200D02*X39000Y85000D01*
X39120Y85400D02*X39320D01*
X39120D02*Y85200D01*
X39170Y85250D01*
X39270D01*
X39320Y85200D01*
Y85050D01*
X39270Y85000D02*X39320Y85050D01*
X39170Y85000D02*X39270D01*
X39120Y85050D02*X39170Y85000D01*
X39440Y85050D02*X39490Y85000D01*
X39440Y85350D02*Y85050D01*
Y85350D02*X39490Y85400D01*
X39590D01*
X39640Y85350D01*
Y85050D01*
X39590Y85000D02*X39640Y85050D01*
X39490Y85000D02*X39590D01*
X39440Y85100D02*X39640Y85300D01*
X39810Y85000D02*X39910D01*
X39860Y85400D02*Y85000D01*
X39760Y85300D02*X39860Y85400D01*
X36850Y51450D02*Y51250D01*
Y51450D02*X36900Y51500D01*
X37000D01*
X37050Y51450D02*X37000Y51500D01*
X37050Y51450D02*Y51300D01*
X36850D02*X37250D01*
X37050D02*X37250Y51500D01*
X36850Y51820D02*Y51620D01*
X37050D01*
X37000Y51670D01*
Y51770D02*Y51670D01*
Y51770D02*X37050Y51820D01*
X37200D01*
X37250Y51770D02*X37200Y51820D01*
X37250Y51770D02*Y51670D01*
X37200Y51620D02*X37250Y51670D01*
X37200Y51940D02*X37250Y51990D01*
X36900Y51940D02*X37200D01*
X36900D02*X36850Y51990D01*
Y52090D02*Y51990D01*
Y52090D02*X36900Y52140D01*
X37200D01*
X37250Y52090D02*X37200Y52140D01*
X37250Y52090D02*Y51990D01*
X37150Y51940D02*X36950Y52140D01*
X37050Y52260D02*X36850Y52460D01*
X37050Y52510D02*Y52260D01*
X36850Y52460D02*X37250D01*
X35700Y80650D02*X35750Y80600D01*
X35550Y80650D02*X35700D01*
X35500Y80600D02*X35550Y80650D01*
X35500Y80600D02*Y80500D01*
X35550Y80450D01*
X35700D01*
X35750Y80400D01*
Y80300D01*
X35700Y80250D02*X35750Y80300D01*
X35550Y80250D02*X35700D01*
X35500Y80300D02*X35550Y80250D01*
X35870Y80300D02*X35920Y80250D01*
X35870Y80400D02*Y80300D01*
Y80400D02*X35920Y80450D01*
X36020D01*
X36070Y80400D01*
Y80300D01*
X36020Y80250D02*X36070Y80300D01*
X35920Y80250D02*X36020D01*
X35870Y80500D02*X35920Y80450D01*
X35870Y80600D02*Y80500D01*
Y80600D02*X35920Y80650D01*
X36020D01*
X36070Y80600D01*
Y80500D01*
X36020Y80450D02*X36070Y80500D01*
X36190Y80300D02*X36240Y80250D01*
X36190Y80600D02*Y80300D01*
Y80600D02*X36240Y80650D01*
X36340D01*
X36390Y80600D01*
Y80300D01*
X36340Y80250D02*X36390Y80300D01*
X36240Y80250D02*X36340D01*
X36190Y80350D02*X36390Y80550D01*
X36560Y80250D02*X36660D01*
X36610Y80650D02*Y80250D01*
X36510Y80550D02*X36610Y80650D01*
X35700Y48400D02*X35750Y48350D01*
X35550Y48400D02*X35700D01*
X35500Y48350D02*X35550Y48400D01*
X35500Y48350D02*Y48250D01*
X35550Y48200D01*
X35700D01*
X35750Y48150D01*
Y48050D01*
X35700Y48000D02*X35750Y48050D01*
X35550Y48000D02*X35700D01*
X35500Y48050D02*X35550Y48000D01*
X35870Y48050D02*X35920Y48000D01*
X35870Y48150D02*Y48050D01*
Y48150D02*X35920Y48200D01*
X36020D01*
X36070Y48150D01*
Y48050D01*
X36020Y48000D02*X36070Y48050D01*
X35920Y48000D02*X36020D01*
X35870Y48250D02*X35920Y48200D01*
X35870Y48350D02*Y48250D01*
Y48350D02*X35920Y48400D01*
X36020D01*
X36070Y48350D01*
Y48250D01*
X36020Y48200D02*X36070Y48250D01*
X36190Y48050D02*X36240Y48000D01*
X36190Y48350D02*Y48050D01*
Y48350D02*X36240Y48400D01*
X36340D01*
X36390Y48350D01*
Y48050D01*
X36340Y48000D02*X36390Y48050D01*
X36240Y48000D02*X36340D01*
X36190Y48100D02*X36390Y48300D01*
X36510Y48350D02*X36560Y48400D01*
X36710D01*
X36760Y48350D01*
Y48250D01*
X36510Y48000D02*X36760Y48250D01*
X36510Y48000D02*X36760D01*
X51300Y15750D02*X51450D01*
X51250Y15800D02*X51300Y15750D01*
X51250Y16100D02*Y15800D01*
Y16100D02*X51300Y16150D01*
X51450D01*
X51720D02*X51770Y16100D01*
X51620Y16150D02*X51720D01*
X51570Y16100D02*X51620Y16150D01*
X51570Y16100D02*Y15800D01*
X51620Y15750D01*
X51720Y15950D02*X51770Y15900D01*
X51570Y15950D02*X51720D01*
X51620Y15750D02*X51720D01*
X51770Y15800D01*
Y15900D02*Y15800D01*
X51890D02*X51940Y15750D01*
X51890Y16100D02*Y15800D01*
Y16100D02*X51940Y16150D01*
X52040D01*
X52090Y16100D01*
Y15800D01*
X52040Y15750D02*X52090Y15800D01*
X51940Y15750D02*X52040D01*
X51890Y15850D02*X52090Y16050D01*
X52260Y15750D02*X52360D01*
X52310Y16150D02*Y15750D01*
X52210Y16050D02*X52310Y16150D01*
X51300Y16250D02*X51450D01*
X51250Y16300D02*X51300Y16250D01*
X51250Y16600D02*Y16300D01*
Y16600D02*X51300Y16650D01*
X51450D01*
X51720D02*X51770Y16600D01*
X51620Y16650D02*X51720D01*
X51570Y16600D02*X51620Y16650D01*
X51570Y16600D02*Y16300D01*
X51620Y16250D01*
X51720Y16450D02*X51770Y16400D01*
X51570Y16450D02*X51720D01*
X51620Y16250D02*X51720D01*
X51770Y16300D01*
Y16400D02*Y16300D01*
X51890D02*X51940Y16250D01*
X51890Y16600D02*Y16300D01*
Y16600D02*X51940Y16650D01*
X52040D01*
X52090Y16600D01*
Y16300D01*
X52040Y16250D02*X52090Y16300D01*
X51940Y16250D02*X52040D01*
X51890Y16350D02*X52090Y16550D01*
X52210Y16600D02*X52260Y16650D01*
X52410D01*
X52460Y16600D01*
Y16500D01*
X52210Y16250D02*X52460Y16500D01*
X52210Y16250D02*X52460D01*
X51250Y15650D02*X51450D01*
X51350D02*Y15250D01*
X51620Y15650D02*Y15250D01*
X51570Y15650D02*X51770D01*
X51820Y15600D01*
Y15500D01*
X51770Y15450D02*X51820Y15500D01*
X51620Y15450D02*X51770D01*
X52090Y15650D02*X52140Y15600D01*
X51990Y15650D02*X52090D01*
X51940Y15600D02*X51990Y15650D01*
X51940Y15600D02*Y15300D01*
X51990Y15250D01*
X52090Y15450D02*X52140Y15400D01*
X51940Y15450D02*X52090D01*
X51990Y15250D02*X52090D01*
X52140Y15300D01*
Y15400D02*Y15300D01*
X52260D02*X52310Y15250D01*
X52260Y15600D02*Y15300D01*
Y15600D02*X52310Y15650D01*
X52410D01*
X52460Y15600D01*
Y15300D01*
X52410Y15250D02*X52460Y15300D01*
X52310Y15250D02*X52410D01*
X52260Y15350D02*X52460Y15550D01*
X52630Y15250D02*X52730D01*
X52680Y15650D02*Y15250D01*
X52580Y15550D02*X52680Y15650D01*
X48500Y21650D02*Y21300D01*
X48550Y21250D01*
X48650D01*
X48700Y21300D01*
Y21650D02*Y21300D01*
X48970Y21650D02*X49020Y21600D01*
X48870Y21650D02*X48970D01*
X48820Y21600D02*X48870Y21650D01*
X48820Y21600D02*Y21300D01*
X48870Y21250D01*
X48970Y21450D02*X49020Y21400D01*
X48820Y21450D02*X48970D01*
X48870Y21250D02*X48970D01*
X49020Y21300D01*
Y21400D02*Y21300D01*
X49140D02*X49190Y21250D01*
X49140Y21600D02*Y21300D01*
Y21600D02*X49190Y21650D01*
X49290D01*
X49340Y21600D01*
Y21300D01*
X49290Y21250D02*X49340Y21300D01*
X49190Y21250D02*X49290D01*
X49140Y21350D02*X49340Y21550D01*
X49510Y21250D02*X49610D01*
X49560Y21650D02*Y21250D01*
X49460Y21550D02*X49560Y21650D01*
X51500Y13400D02*X51700D01*
X51600D02*Y13000D01*
X51870Y13400D02*Y13000D01*
X51820Y13400D02*X52020D01*
X52070Y13350D01*
Y13250D01*
X52020Y13200D02*X52070Y13250D01*
X51870Y13200D02*X52020D01*
X52340Y13400D02*X52390Y13350D01*
X52240Y13400D02*X52340D01*
X52190Y13350D02*X52240Y13400D01*
X52190Y13350D02*Y13050D01*
X52240Y13000D01*
X52340Y13200D02*X52390Y13150D01*
X52190Y13200D02*X52340D01*
X52240Y13000D02*X52340D01*
X52390Y13050D01*
Y13150D02*Y13050D01*
X52510D02*X52560Y13000D01*
X52510Y13350D02*Y13050D01*
Y13350D02*X52560Y13400D01*
X52660D01*
X52710Y13350D01*
Y13050D01*
X52660Y13000D02*X52710Y13050D01*
X52560Y13000D02*X52660D01*
X52510Y13100D02*X52710Y13300D01*
X52830Y13350D02*X52880Y13400D01*
X53030D01*
X53080Y13350D01*
Y13250D01*
X52830Y13000D02*X53080Y13250D01*
X52830Y13000D02*X53080D01*
X47550Y13750D02*X47700D01*
X47500Y13800D02*X47550Y13750D01*
X47500Y14100D02*Y13800D01*
Y14100D02*X47550Y14150D01*
X47700D01*
X47970D02*X48020Y14100D01*
X47870Y14150D02*X47970D01*
X47820Y14100D02*X47870Y14150D01*
X47820Y14100D02*Y13800D01*
X47870Y13750D01*
X47970Y13950D02*X48020Y13900D01*
X47820Y13950D02*X47970D01*
X47870Y13750D02*X47970D01*
X48020Y13800D01*
Y13900D02*Y13800D01*
X48140D02*X48190Y13750D01*
X48140Y14100D02*Y13800D01*
Y14100D02*X48190Y14150D01*
X48290D01*
X48340Y14100D01*
Y13800D01*
X48290Y13750D02*X48340Y13800D01*
X48190Y13750D02*X48290D01*
X48140Y13850D02*X48340Y14050D01*
X48460Y14100D02*X48510Y14150D01*
X48610D01*
X48660Y14100D01*
Y13800D01*
X48610Y13750D02*X48660Y13800D01*
X48510Y13750D02*X48610D01*
X48460Y13800D02*X48510Y13750D01*
Y13950D02*X48660D01*
X45050Y24400D02*Y24000D01*
X45200Y24400D02*X45250Y24350D01*
Y24050D01*
X45200Y24000D02*X45250Y24050D01*
X45000Y24000D02*X45200D01*
X45000Y24400D02*X45200D01*
X45420Y24000D02*X45520D01*
X45470Y24400D02*Y24000D01*
X45370Y24300D02*X45470Y24400D01*
X45640Y24050D02*X45690Y24000D01*
X45640Y24350D02*Y24050D01*
Y24350D02*X45690Y24400D01*
X45790D01*
X45840Y24350D01*
Y24050D01*
X45790Y24000D02*X45840Y24050D01*
X45690Y24000D02*X45790D01*
X45640Y24100D02*X45840Y24300D01*
X46010Y24000D02*X46110D01*
X46060Y24400D02*Y24000D01*
X45960Y24300D02*X46060Y24400D01*
X43750Y26400D02*X43950D01*
X44000Y26350D01*
Y26250D01*
X43950Y26200D02*X44000Y26250D01*
X43800Y26200D02*X43950D01*
X43800Y26400D02*Y26000D01*
Y26200D02*X44000Y26000D01*
X44170D02*X44270D01*
X44220Y26400D02*Y26000D01*
X44120Y26300D02*X44220Y26400D01*
X44390Y26050D02*X44440Y26000D01*
X44390Y26350D02*Y26050D01*
Y26350D02*X44440Y26400D01*
X44540D01*
X44590Y26350D01*
Y26050D01*
X44540Y26000D02*X44590Y26050D01*
X44440Y26000D02*X44540D01*
X44390Y26100D02*X44590Y26300D01*
X44710Y26350D02*X44760Y26400D01*
X44860D01*
X44910Y26350D01*
Y26050D01*
X44860Y26000D02*X44910Y26050D01*
X44760Y26000D02*X44860D01*
X44710Y26050D02*X44760Y26000D01*
Y26200D02*X44910D01*
X42500Y24400D02*X42700D01*
X42750Y24350D01*
Y24250D01*
X42700Y24200D02*X42750Y24250D01*
X42550Y24200D02*X42700D01*
X42550Y24400D02*Y24000D01*
Y24200D02*X42750Y24000D01*
X42920D02*X43020D01*
X42970Y24400D02*Y24000D01*
X42870Y24300D02*X42970Y24400D01*
X43140Y24050D02*X43190Y24000D01*
X43140Y24350D02*Y24050D01*
Y24350D02*X43190Y24400D01*
X43290D01*
X43340Y24350D01*
Y24050D01*
X43290Y24000D02*X43340Y24050D01*
X43190Y24000D02*X43290D01*
X43140Y24100D02*X43340Y24300D01*
X43510Y24000D02*X43610D01*
X43560Y24400D02*Y24000D01*
X43460Y24300D02*X43560Y24400D01*
X45000Y27900D02*X45200D01*
X45100D02*Y27500D01*
X45370Y27900D02*Y27500D01*
X45320Y27900D02*X45520D01*
X45570Y27850D01*
Y27750D01*
X45520Y27700D02*X45570Y27750D01*
X45370Y27700D02*X45520D01*
X45740Y27500D02*X45840D01*
X45790Y27900D02*Y27500D01*
X45690Y27800D02*X45790Y27900D01*
X45960Y27550D02*X46010Y27500D01*
X45960Y27850D02*Y27550D01*
Y27850D02*X46010Y27900D01*
X46110D01*
X46160Y27850D01*
Y27550D01*
X46110Y27500D02*X46160Y27550D01*
X46010Y27500D02*X46110D01*
X45960Y27600D02*X46160Y27800D01*
X46280Y27900D02*X46480D01*
X46280D02*Y27700D01*
X46330Y27750D01*
X46430D01*
X46480Y27700D01*
Y27550D01*
X46430Y27500D02*X46480Y27550D01*
X46330Y27500D02*X46430D01*
X46280Y27550D02*X46330Y27500D01*
X42250Y27900D02*X42450D01*
X42350D02*Y27500D01*
X42620Y27900D02*Y27500D01*
X42570Y27900D02*X42770D01*
X42820Y27850D01*
Y27750D01*
X42770Y27700D02*X42820Y27750D01*
X42620Y27700D02*X42770D01*
X42990Y27500D02*X43090D01*
X43040Y27900D02*Y27500D01*
X42940Y27800D02*X43040Y27900D01*
X43210Y27550D02*X43260Y27500D01*
X43210Y27850D02*Y27550D01*
Y27850D02*X43260Y27900D01*
X43360D01*
X43410Y27850D01*
Y27550D01*
X43360Y27500D02*X43410Y27550D01*
X43260Y27500D02*X43360D01*
X43210Y27600D02*X43410Y27800D01*
X43580Y27500D02*X43680D01*
X43630Y27900D02*Y27500D01*
X43530Y27800D02*X43630Y27900D01*
X47800Y11400D02*Y11000D01*
X47950Y11400D02*X48000Y11350D01*
Y11050D01*
X47950Y11000D02*X48000Y11050D01*
X47750Y11000D02*X47950D01*
X47750Y11400D02*X47950D01*
X48270D02*X48320Y11350D01*
X48170Y11400D02*X48270D01*
X48120Y11350D02*X48170Y11400D01*
X48120Y11350D02*Y11050D01*
X48170Y11000D01*
X48270Y11200D02*X48320Y11150D01*
X48120Y11200D02*X48270D01*
X48170Y11000D02*X48270D01*
X48320Y11050D01*
Y11150D02*Y11050D01*
X48440D02*X48490Y11000D01*
X48440Y11350D02*Y11050D01*
Y11350D02*X48490Y11400D01*
X48590D01*
X48640Y11350D01*
Y11050D01*
X48590Y11000D02*X48640Y11050D01*
X48490Y11000D02*X48590D01*
X48440Y11100D02*X48640Y11300D01*
X48810Y11000D02*X48910D01*
X48860Y11400D02*Y11000D01*
X48760Y11300D02*X48860Y11400D01*
X47550Y9500D02*X47700D01*
X47500Y9550D02*X47550Y9500D01*
X47500Y9850D02*Y9550D01*
Y9850D02*X47550Y9900D01*
X47700D01*
X47820Y9850D02*Y9550D01*
Y9850D02*X47870Y9900D01*
X47970D01*
X48020Y9850D01*
Y9550D01*
X47970Y9500D02*X48020Y9550D01*
X47870Y9500D02*X47970D01*
X47820Y9550D02*X47870Y9500D01*
X48140Y9900D02*Y9500D01*
Y9900D02*Y9850D01*
X48390Y9600D01*
Y9900D02*Y9500D01*
X48510Y9900D02*Y9500D01*
Y9900D02*Y9850D01*
X48760Y9600D01*
Y9900D02*Y9500D01*
X49030Y9900D02*X49080Y9850D01*
X48930Y9900D02*X49030D01*
X48880Y9850D02*X48930Y9900D01*
X48880Y9850D02*Y9550D01*
X48930Y9500D01*
X49030Y9700D02*X49080Y9650D01*
X48880Y9700D02*X49030D01*
X48930Y9500D02*X49030D01*
X49080Y9550D01*
Y9650D02*Y9550D01*
X49200D02*X49250Y9500D01*
X49200Y9850D02*Y9550D01*
Y9850D02*X49250Y9900D01*
X49350D01*
X49400Y9850D01*
Y9550D01*
X49350Y9500D02*X49400Y9550D01*
X49250Y9500D02*X49350D01*
X49200Y9600D02*X49400Y9800D01*
X49570Y9500D02*X49670D01*
X49620Y9900D02*Y9500D01*
X49520Y9800D02*X49620Y9900D01*
X44600Y9450D02*Y9250D01*
Y9450D02*X44650Y9500D01*
X44750D01*
X44800Y9450D02*X44750Y9500D01*
X44800Y9450D02*Y9300D01*
X44600D02*X45000D01*
X44800D02*X45000Y9500D01*
X44600Y9770D02*X44650Y9820D01*
X44600Y9770D02*Y9670D01*
X44650Y9620D02*X44600Y9670D01*
X44650Y9620D02*X44950D01*
X45000Y9670D01*
X44800Y9770D02*X44850Y9820D01*
X44800Y9770D02*Y9620D01*
X45000Y9770D02*Y9670D01*
Y9770D02*X44950Y9820D01*
X44850D02*X44950D01*
Y9940D02*X45000Y9990D01*
X44650Y9940D02*X44950D01*
X44650D02*X44600Y9990D01*
Y10090D02*Y9990D01*
Y10090D02*X44650Y10140D01*
X44950D01*
X45000Y10090D02*X44950Y10140D01*
X45000Y10090D02*Y9990D01*
X44900Y9940D02*X44700Y10140D01*
X45000Y10410D02*Y10310D01*
X44600Y10360D02*X45000D01*
X44700Y10260D02*X44600Y10360D01*
X38750Y8150D02*X38950D01*
X39000Y8100D01*
Y8000D01*
X38950Y7950D02*X39000Y8000D01*
X38800Y7950D02*X38950D01*
X38800Y8150D02*Y7750D01*
Y7950D02*X39000Y7750D01*
X39120Y7800D02*X39170Y7750D01*
X39120Y7900D02*Y7800D01*
Y7900D02*X39170Y7950D01*
X39270D01*
X39320Y7900D01*
Y7800D01*
X39270Y7750D02*X39320Y7800D01*
X39170Y7750D02*X39270D01*
X39120Y8000D02*X39170Y7950D01*
X39120Y8100D02*Y8000D01*
Y8100D02*X39170Y8150D01*
X39270D01*
X39320Y8100D01*
Y8000D01*
X39270Y7950D02*X39320Y8000D01*
X39440Y7800D02*X39490Y7750D01*
X39440Y8100D02*Y7800D01*
Y8100D02*X39490Y8150D01*
X39590D01*
X39640Y8100D01*
Y7800D01*
X39590Y7750D02*X39640Y7800D01*
X39490Y7750D02*X39590D01*
X39440Y7850D02*X39640Y8050D01*
X39760Y8100D02*X39810Y8150D01*
X39910D01*
X39960Y8100D01*
Y7800D01*
X39910Y7750D02*X39960Y7800D01*
X39810Y7750D02*X39910D01*
X39760Y7800D02*X39810Y7750D01*
Y7950D02*X39960D01*
X39250Y22400D02*X39450D01*
X39350D02*Y22000D01*
X39620Y22400D02*Y22000D01*
X39570Y22400D02*X39770D01*
X39820Y22350D01*
Y22250D01*
X39770Y22200D02*X39820Y22250D01*
X39620Y22200D02*X39770D01*
X39940Y22400D02*X40140D01*
X39940D02*Y22200D01*
X39990Y22250D01*
X40090D01*
X40140Y22200D01*
Y22050D01*
X40090Y22000D02*X40140Y22050D01*
X39990Y22000D02*X40090D01*
X39940Y22050D02*X39990Y22000D01*
X40260Y22050D02*X40310Y22000D01*
X40260Y22350D02*Y22050D01*
Y22350D02*X40310Y22400D01*
X40410D01*
X40460Y22350D01*
Y22050D01*
X40410Y22000D02*X40460Y22050D01*
X40310Y22000D02*X40410D01*
X40260Y22100D02*X40460Y22300D01*
X40580Y22400D02*X40780D01*
X40580D02*Y22200D01*
X40630Y22250D01*
X40730D01*
X40780Y22200D01*
Y22050D01*
X40730Y22000D02*X40780Y22050D01*
X40630Y22000D02*X40730D01*
X40580Y22050D02*X40630Y22000D01*
X37500Y22400D02*X37700D01*
X37600D02*Y22000D01*
X37870Y22400D02*Y22000D01*
X37820Y22400D02*X38020D01*
X38070Y22350D01*
Y22250D01*
X38020Y22200D02*X38070Y22250D01*
X37870Y22200D02*X38020D01*
X38190Y22400D02*X38390D01*
X38190D02*Y22200D01*
X38240Y22250D01*
X38340D01*
X38390Y22200D01*
Y22050D01*
X38340Y22000D02*X38390Y22050D01*
X38240Y22000D02*X38340D01*
X38190Y22050D02*X38240Y22000D01*
X38510Y22050D02*X38560Y22000D01*
X38510Y22350D02*Y22050D01*
Y22350D02*X38560Y22400D01*
X38660D01*
X38710Y22350D01*
Y22050D01*
X38660Y22000D02*X38710Y22050D01*
X38560Y22000D02*X38660D01*
X38510Y22100D02*X38710Y22300D01*
X38980Y22400D02*X39030Y22350D01*
X38880Y22400D02*X38980D01*
X38830Y22350D02*X38880Y22400D01*
X38830Y22350D02*Y22050D01*
X38880Y22000D01*
X38980Y22200D02*X39030Y22150D01*
X38830Y22200D02*X38980D01*
X38880Y22000D02*X38980D01*
X39030Y22050D01*
Y22150D02*Y22050D01*
X39000Y20900D02*X39200D01*
X39250Y20850D01*
Y20750D01*
X39200Y20700D02*X39250Y20750D01*
X39050Y20700D02*X39200D01*
X39050Y20900D02*Y20500D01*
Y20700D02*X39250Y20500D01*
X39370Y20900D02*X39570D01*
X39370D02*Y20700D01*
X39420Y20750D01*
X39520D01*
X39570Y20700D01*
Y20550D01*
X39520Y20500D02*X39570Y20550D01*
X39420Y20500D02*X39520D01*
X39370Y20550D02*X39420Y20500D01*
X39690Y20550D02*X39740Y20500D01*
X39690Y20850D02*Y20550D01*
Y20850D02*X39740Y20900D01*
X39840D01*
X39890Y20850D01*
Y20550D01*
X39840Y20500D02*X39890Y20550D01*
X39740Y20500D02*X39840D01*
X39690Y20600D02*X39890Y20800D01*
X40010Y20900D02*X40210D01*
X40010D02*Y20700D01*
X40060Y20750D01*
X40160D01*
X40210Y20700D01*
Y20550D01*
X40160Y20500D02*X40210Y20550D01*
X40060Y20500D02*X40160D01*
X40010Y20550D02*X40060Y20500D01*
X36850Y19200D02*Y19000D01*
Y19200D02*X36900Y19250D01*
X37000D01*
X37050Y19200D02*X37000Y19250D01*
X37050Y19200D02*Y19050D01*
X36850D02*X37250D01*
X37050D02*X37250Y19250D01*
X36850Y19570D02*Y19370D01*
X37050D01*
X37000Y19420D01*
Y19520D02*Y19420D01*
Y19520D02*X37050Y19570D01*
X37200D01*
X37250Y19520D02*X37200Y19570D01*
X37250Y19520D02*Y19420D01*
X37200Y19370D02*X37250Y19420D01*
X37200Y19690D02*X37250Y19740D01*
X36900Y19690D02*X37200D01*
X36900D02*X36850Y19740D01*
Y19840D02*Y19740D01*
Y19840D02*X36900Y19890D01*
X37200D01*
X37250Y19840D02*X37200Y19890D01*
X37250Y19840D02*Y19740D01*
X37150Y19690D02*X36950Y19890D01*
X36850Y20160D02*X36900Y20210D01*
X36850Y20160D02*Y20060D01*
X36900Y20010D02*X36850Y20060D01*
X36900Y20010D02*X37200D01*
X37250Y20060D01*
X37050Y20160D02*X37100Y20210D01*
X37050Y20160D02*Y20010D01*
X37250Y20160D02*Y20060D01*
Y20160D02*X37200Y20210D01*
X37100D02*X37200D01*
X35700Y16150D02*X35750Y16100D01*
X35550Y16150D02*X35700D01*
X35500Y16100D02*X35550Y16150D01*
X35500Y16100D02*Y16000D01*
X35550Y15950D01*
X35700D01*
X35750Y15900D01*
Y15800D01*
X35700Y15750D02*X35750Y15800D01*
X35550Y15750D02*X35700D01*
X35500Y15800D02*X35550Y15750D01*
X35870Y15800D02*X35920Y15750D01*
X35870Y15900D02*Y15800D01*
Y15900D02*X35920Y15950D01*
X36020D01*
X36070Y15900D01*
Y15800D01*
X36020Y15750D02*X36070Y15800D01*
X35920Y15750D02*X36020D01*
X35870Y16000D02*X35920Y15950D01*
X35870Y16100D02*Y16000D01*
Y16100D02*X35920Y16150D01*
X36020D01*
X36070Y16100D01*
Y16000D01*
X36020Y15950D02*X36070Y16000D01*
X36190Y15800D02*X36240Y15750D01*
X36190Y16100D02*Y15800D01*
Y16100D02*X36240Y16150D01*
X36340D01*
X36390Y16100D01*
Y15800D01*
X36340Y15750D02*X36390Y15800D01*
X36240Y15750D02*X36340D01*
X36190Y15850D02*X36390Y16050D01*
X36510Y16100D02*X36560Y16150D01*
X36660D01*
X36710Y16100D01*
Y15800D01*
X36660Y15750D02*X36710Y15800D01*
X36560Y15750D02*X36660D01*
X36510Y15800D02*X36560Y15750D01*
Y15950D02*X36710D01*
M02*
