G04 start of page 5 for group -4062 idx -4062
G04 Title: (unknown), soldermask *
G04 Creator: pcb-bin 20060822 *
G04 CreationDate: Mon Jun 16 01:23:04 2008 UTC *
G04 For: pete *
G04 Format: Gerber/RS-274X *
G04 PCB-Dimensions: 645000 1075000 *
G04 PCB-Coordinate-Origin: lower left *
%MOIN*%
%FSLAX24Y24*%
%LNBACKMASK*%
%ADD11R,0.0810X0.0810*%
%ADD12C,0.0660*%
%ADD13R,0.0660X0.0660*%
%ADD14C,0.1260*%
%ADD15R,0.1260X0.1260*%
%ADD16C,0.0680*%
%ADD17C,0.0860*%
%ADD18R,0.0860X0.0860*%
G54D11*%LNBACKMASK_D1*%
%LPD*%
X49000Y66250D03*
Y67750D03*
Y68750D03*
G54D12*X44250Y65000D03*
Y66000D03*
G54D11*X56750Y67750D03*
G54D12*X44250Y67000D03*
Y68000D03*
Y69000D03*
G54D13*Y70000D03*
G54D11*X56000Y42000D03*
X54250Y36500D03*
X46250Y27000D03*
X42500D03*
X56000Y40750D03*
X50500Y36250D03*
G54D14*X48261Y34000D03*
G54D11*X50500Y34750D03*
G54D15*X40387Y34000D03*
G54D16*X38000Y42750D03*
Y47250D03*
G54D12*Y50000D03*
X39750Y51000D03*
Y50000D03*
X38000Y51000D03*
G54D13*X39750Y52000D03*
G54D11*Y53750D03*
G54D13*X38000Y52000D03*
G54D11*Y53750D03*
G54D16*Y75000D03*
Y79500D03*
G54D12*X39750Y82250D03*
X38000D03*
X39750Y83250D03*
X38000D03*
G54D13*X39750Y84250D03*
X38000D03*
G54D11*X39750Y86000D03*
X38000D03*
G54D12*X49000Y8500D03*
G54D13*X48000D03*
G54D12*X39750Y17750D03*
Y18750D03*
G54D16*X38000Y10500D03*
G54D17*X51000Y12500D03*
G54D11*Y13750D03*
G54D18*X46000Y12500D03*
G54D11*X52000Y14750D03*
G54D16*X38000Y15000D03*
G54D13*X39750Y19750D03*
G54D11*Y21500D03*
G54D12*X38000Y18750D03*
G54D13*Y19750D03*
G54D12*Y17750D03*
G54D11*Y21500D03*
M02*
