G04 start of page 4 for group -4063 idx -4063
G04 Title: (unknown), componentmask *
G04 Creator: pcb-bin 20060822 *
G04 CreationDate: Mon Jun 16 01:23:04 2008 UTC *
G04 For: pete *
G04 Format: Gerber/RS-274X *
G04 PCB-Dimensions: 645000 1075000 *
G04 PCB-Coordinate-Origin: lower left *
%MOIN*%
%FSLAX24Y24*%
%LNFRONTMASK*%
%ADD11R,0.0810X0.0810*%
%ADD12C,0.0660*%
%ADD13R,0.0660X0.0660*%
%ADD14C,0.1260*%
%ADD15R,0.1260X0.1260*%
%ADD16C,0.0680*%
%ADD17C,0.0860*%
%ADD18R,0.0860X0.0860*%
%ADD19R,0.0572X0.0572*%
%ADD20R,0.0300X0.0300*%
%ADD21R,0.0620X0.0620*%
%ADD22R,0.1280X0.1280*%
%ADD23R,0.0769X0.0769*%
%ADD24R,0.0750X0.0750*%
G54D11*%LNFRONTMASK_D1*%
%LPD*%
X49000Y66250D03*
Y67750D03*
Y68750D03*
G54D12*X44250Y65000D03*
Y66000D03*
G54D11*X56750Y67750D03*
G54D12*X44250Y67000D03*
Y68000D03*
Y69000D03*
G54D13*Y70000D03*
G54D11*X56000Y42000D03*
X54250Y36500D03*
X46250Y27000D03*
X42500D03*
X56000Y40750D03*
X50500Y36250D03*
G54D14*X48261Y34000D03*
G54D11*X50500Y34750D03*
G54D15*X40387Y34000D03*
G54D16*X38000Y42750D03*
Y47250D03*
G54D12*Y50000D03*
X39750Y51000D03*
Y50000D03*
X38000Y51000D03*
G54D13*X39750Y52000D03*
G54D11*Y53750D03*
G54D13*X38000Y52000D03*
G54D11*Y53750D03*
G54D16*Y75000D03*
Y79500D03*
G54D12*X39750Y82250D03*
X38000D03*
X39750Y83250D03*
X38000D03*
G54D13*X39750Y84250D03*
X38000D03*
G54D11*X39750Y86000D03*
X38000D03*
G54D12*X49000Y8500D03*
G54D13*X48000D03*
G54D12*X39750Y17750D03*
Y18750D03*
G54D16*X38000Y10500D03*
G54D17*X51000Y12500D03*
G54D11*Y13750D03*
G54D18*X46000Y12500D03*
G54D11*X52000Y14750D03*
G54D16*X38000Y15000D03*
G54D13*X39750Y19750D03*
G54D11*Y21500D03*
G54D12*X38000Y18750D03*
G54D13*Y19750D03*
G54D12*Y17750D03*
G54D11*Y21500D03*
G54D19*X40090Y41118D02*Y40881D01*
X38909Y41118D02*Y40881D01*
G54D20*X54500Y66750D02*X55100D01*
X54500Y67250D02*X55100D01*
X54500Y67750D02*X55100D01*
X54500Y68250D02*X55100D01*
X54500Y68750D02*X55100D01*
X54500Y69250D02*X55100D01*
X50900Y68750D02*X51500D01*
X50900Y68250D02*X51500D01*
X50900Y67750D02*X51500D01*
X50900Y67250D02*X51500D01*
X50900Y69250D02*X51500D01*
G54D19*X52409Y64118D02*Y63881D01*
X53590Y64118D02*Y63881D01*
G54D20*X50900Y66750D02*X51500D01*
X54500Y65250D02*X55100D01*
X50900D02*X51500D01*
X54500Y65750D02*X55100D01*
X50900D02*X51500D01*
X54500Y66250D02*X55100D01*
X50900D02*X51500D01*
G54D19*X45840Y63368D02*Y63131D01*
X44659Y63368D02*Y63131D01*
X42381Y70090D02*X42618D01*
X40090Y73368D02*Y73131D01*
X42381Y68909D02*X42618D01*
X38909Y73368D02*Y73131D01*
G54D20*X55750Y31250D02*X56350D01*
X55750Y31750D02*X56350D01*
X55750Y32250D02*X56350D01*
X55750Y32750D02*X56350D01*
X55750Y33250D02*X56350D01*
X55750Y33750D02*X56350D01*
X55750Y34250D02*X56350D01*
X55750Y34750D02*X56350D01*
G54D19*X55590Y29368D02*Y29131D01*
Y30368D02*Y30131D01*
X54409Y29368D02*Y29131D01*
Y30368D02*Y30131D01*
G54D20*X52150Y32250D02*X52750D01*
X52150Y31750D02*X52750D01*
X52150Y32750D02*X52750D01*
X52150Y31250D02*X52750D01*
X52150Y33250D02*X52750D01*
G54D19*X50840Y14868D02*Y14631D01*
Y15868D02*Y15631D01*
G54D21*X50810Y18080D02*Y17420D01*
X49900Y18080D02*Y17420D01*
G54D19*X49659Y14868D02*Y14631D01*
Y15868D02*Y15631D01*
G54D22*X49450Y20190D02*X50350D01*
G54D21*X49000Y18080D02*Y17420D01*
G54D19*X48840Y14868D02*Y14631D01*
X47659Y14868D02*Y14631D01*
G54D23*X45665Y9423D02*X46334D01*
X45665Y11076D02*X46334D01*
G54D20*X52150Y33750D02*X52750D01*
X52150Y34250D02*X52750D01*
G54D19*X54840Y40868D02*Y40631D01*
X53659Y40868D02*Y40631D01*
X54840Y42118D02*Y41881D01*
X53659Y42118D02*Y41881D01*
X53090Y37618D02*Y37381D01*
G54D20*X52150Y34750D02*X52750D01*
G54D19*X51909Y37618D02*Y37381D01*
X44840Y27118D02*Y26881D01*
X43659Y27118D02*Y26881D01*
G54D24*X44700Y25060D02*Y24940D01*
G54D19*X43340Y25118D02*Y24881D01*
G54D24*X45800Y25060D02*Y24940D01*
G54D19*X42159Y25118D02*Y24881D01*
X40090Y8868D02*Y8631D01*
X38909Y8868D02*Y8631D01*
M02*
