G04 start of page 2 for group 0 idx 0
G04 Title: (unknown), solder *
G04 Creator: pcb-bin 20060822 *
G04 CreationDate: Mon Jun 16 01:23:04 2008 UTC *
G04 For: pete *
G04 Format: Gerber/RS-274X *
G04 PCB-Dimensions: 645000 1075000 *
G04 PCB-Coordinate-Origin: lower left *
%MOIN*%
%FSLAX24Y24*%
%LNGROUP0*%
%ADD11C,0.0150*%
%ADD12C,0.0250*%
%ADD13R,0.0800X0.0800*%
%ADD14C,0.0600*%
%ADD15R,0.0600X0.0600*%
%ADD16C,0.1200*%
%ADD17R,0.1200X0.1200*%
%ADD18C,0.0620*%
%ADD19C,0.0800*%
%ADD20C,0.0400*%
%ADD21C,0.1915*%
%ADD22C,0.3000*%
%ADD23C,0.0420*%
%ADD24C,0.0300*%
%ADD25C,0.0350*%
%ADD26C,0.0200*%
%ADD27C,0.1875*%
%ADD28C,0.2188*%
G54D11*X52000Y69500D02*X53000Y68500D01*
X46000Y69500D02*X52000D01*
G54D12*X51500Y61750D02*X52500Y62750D01*
G54D11*X45500Y69000D02*X46000Y69500D01*
X41250Y71250D02*Y72250D01*
X38750Y80500D02*X38000Y81250D01*
G54D12*Y49000D02*Y50000D01*
X40500Y48250D02*X40000Y48750D01*
X38250D01*
X38000Y49000D01*
X53750Y27500D02*Y29250D01*
X41750Y19250D02*Y17000D01*
X41250Y15750D02*Y16250D01*
Y16500D01*
X41750Y17000D02*X41250Y16500D01*
X38500D01*
X38000Y17000D02*Y17750D01*
X38500Y16500D02*X38000Y17000D01*
X59250Y61750D02*X57750D01*
X59750Y30250D02*X57750D01*
X49250Y25000D02*Y25750D01*
X48500Y24250D02*X49250Y25000D01*
X57750Y66500D02*Y68500D01*
X56500Y69750D01*
G54D11*X51250Y66250D02*X56500D01*
G54D12*Y69750D02*X55500Y70750D01*
G54D11*X56000Y66750D02*X50000D01*
X56000Y65750D02*X55000Y64750D01*
G54D12*X56500Y65250D02*X57750Y66500D01*
G54D11*X55000Y64750D02*X49750D01*
X50500Y65500D02*X51250Y66250D01*
X50000Y66750D02*X49750Y67000D01*
X50250Y66250D02*X49000D01*
X46250Y66000D02*X46750Y65500D01*
X49750Y67000D02*X46250D01*
X49750Y64750D02*X49500Y65000D01*
X49250Y62250D02*Y58750D01*
X48750Y61750D02*Y57500D01*
X46750Y65500D02*X50500D01*
X49500Y65000D02*X46250D01*
G54D12*X59750Y42000D02*X60250Y41500D01*
X59250Y42000D02*X59750D01*
X56750Y36500D02*X60250D01*
X56000Y42000D02*X59250D01*
X57750Y26750D02*X59750D01*
X51750Y28250D02*X53750Y30250D01*
X56000Y40750D02*X61000D01*
X39750Y39250D02*X41750D01*
G54D13*X49000Y66250D03*
Y67750D03*
Y68750D03*
G54D14*X44250Y65000D03*
Y66000D03*
G54D13*X56750Y67750D03*
G54D14*X44250Y67000D03*
Y68000D03*
Y69000D03*
G54D15*Y70000D03*
G54D13*X56000Y42000D03*
X54250Y36500D03*
X46250Y27000D03*
X42500D03*
X56000Y40750D03*
X50500Y36250D03*
G54D16*X48261Y34000D03*
G54D13*X50500Y34750D03*
G54D17*X40387Y34000D03*
G54D18*X38000Y42750D03*
Y47250D03*
G54D14*Y50000D03*
X39750Y51000D03*
Y50000D03*
X38000Y51000D03*
G54D15*X39750Y52000D03*
G54D13*Y53750D03*
G54D15*X38000Y52000D03*
G54D13*Y53750D03*
G54D18*Y75000D03*
Y79500D03*
G54D14*X39750Y82250D03*
X38000D03*
X39750Y83250D03*
X38000D03*
G54D15*X39750Y84250D03*
X38000D03*
G54D13*X39750Y86000D03*
X38000D03*
G54D14*X49000Y8500D03*
G54D15*X48000D03*
G54D14*X39750Y17750D03*
Y18750D03*
G54D18*X38000Y10500D03*
G54D19*X51000Y12500D03*
G54D13*Y13750D03*
X46000Y12500D03*
X52000Y14750D03*
G54D18*X38000Y15000D03*
G54D15*X39750Y19750D03*
G54D13*Y21500D03*
G54D14*X38000Y18750D03*
G54D15*Y19750D03*
G54D14*Y17750D03*
G54D13*Y21500D03*
G54D14*X57750Y61750D03*
G54D20*X56500Y65250D03*
X56000Y65750D03*
G54D14*X59250Y61750D03*
G54D20*X56000Y66750D03*
X56500Y66250D03*
G54D14*X55500Y70750D03*
X52500Y62750D03*
X51500Y61750D03*
G54D20*X49250Y62250D03*
X48750Y61750D03*
G54D14*X49250Y58750D03*
X48750Y57500D03*
G54D20*X53000Y68500D03*
X46250Y65000D03*
Y66000D03*
Y67000D03*
X50250Y66250D03*
X45500Y69000D03*
G54D14*X59750Y30250D03*
X57750Y26750D03*
X59750D03*
X57750Y30250D03*
X60250Y41500D03*
Y36500D03*
X56750D03*
X53750Y27500D03*
Y29250D03*
G54D20*Y30250D03*
G54D14*X51750Y28250D03*
X61000Y40750D03*
X41750Y39250D03*
X39750D03*
X41750Y19250D03*
X41250Y15750D03*
G54D21*X39500Y24000D03*
G54D14*X49250Y25750D03*
X48500Y24250D03*
G54D21*X37500Y25750D03*
X38500Y28500D03*
X36000Y32750D03*
X35750Y29750D03*
G54D14*X40500Y48250D03*
G54D21*X33250Y33250D03*
X32500Y36000D03*
X29750Y35750D03*
G54D22*X59500Y102500D03*
G54D21*X39500Y88500D03*
X38500Y93000D03*
G54D20*X38000Y81250D03*
G54D21*X37500Y90250D03*
X36000Y97250D03*
X33250Y97750D03*
X35750Y94250D03*
X32500Y100500D03*
X29750Y100250D03*
X39500Y56250D03*
X38500Y60750D03*
X37500Y58000D03*
G54D20*X41250Y71250D03*
G54D21*X35750Y62000D03*
G54D20*X41250Y72250D03*
X38750Y80500D03*
G54D21*X36000Y65000D03*
X33250Y65500D03*
X32500Y68250D03*
X29750Y68000D03*
G54D22*X5000Y102500D03*
X59500Y5000D03*
X5000D03*
G54D23*%LNGROUP0_C1*%
%LPC*%
G54D24*G54D23*G54D24*G54D23*G54D18*G54D23*G54D18*G54D23*G54D24*G54D23*G54D24*G54D23*G54D24*G54D23*G54D24*G54D23*G54D24*G54D23*G54D24*G54D23*G54D25*G54D26*G54D25*G54D26*G54D25*G54D26*G54D25*G54D26*G54D25*G54D26*G54D25*G54D27*G54D25*G54D27*G54D25*G54D27*G54D28*G54D27*G54D26*G54D27*G54D26*G54D27*G54D26*G54D27*G54D28*M02*
