999
dxflib 2.0.4.8
  0
SECTION
  2
HEADER
  9
$ACADVER
  1
AC1015
  9
$HANDSEED
  5
FFFF
  9
$DIMADEC
 70
2
  9
$GRIDUNIT
 10
0.0
 20
0.0
  9
$DIMASZ
 40
0.1
  9
$DIMGAP
 40
0.025
  9
$LUNITS
 70
2
  9
$AUPREC
 70
2
  9
$SPLINESEGS
 70
8
  9
$INSUNITS
 70
1
  9
$DIMEXO
 40
0.025
  9
$DIMLUNIT
 70
2
  9
$GRIDMODE
 70
1
  9
$DIMTXT
 40
0.1
  9
$LUPREC
 70
3
  9
$DIMSTYLE
  2
Standard
  9
$PSVPSCALE
 40
0.5
  9
$PLIMMIN
 10
0.0
 20
0.0
  9
$PLIMMAX
 10
11.0
 20
8.5
  9
$DIMEXE
 40
0.05
  9
$PINSBASE
 10
3.9114588833333332
 20
2.3562500041684933
 30
0.0
  9
$DIMAUNIT
 70
0
  9
$AUNITS
 70
0
  0
ENDSEC
  0
SECTION
  2
TABLES
  0
TABLE
  2
VPORT
  5
8
100
AcDbSymbolTable
 70
1
  0
VPORT
  5
30
100
AcDbSymbolTableRecord
100
AcDbViewportTableRecord
  2
*Active
 70
0
 10
0.0
 20
0.0
 11
1.0
 21
1.0
 12
286.3055555555554861
 22
148.5
 13
0.0
 23
0.0
 14
10.0
 24
10.0
 15
10.0
 25
10.0
 16
0.0
 26
0.0
 36
1.0
 17
0.0
 27
0.0
 37
0.0
 40
297.0
 41
1.92798353909465
 42
50.0
 43
0.0
 44
0.0
 50
0.0
 51
0.0
 71
0
 72
100
 73
1
 74
3
 75
1
 76
1
 77
0
 78
0
281
0
 65
1
110
0.0
120
0.0
130
0.0
111
1.0
121
0.0
131
0.0
112
0.0
122
1.0
132
0.0
 79
0
146
0.0
  0
ENDTAB
  0
TABLE
  2
LTYPE
  5
5
100
AcDbSymbolTable
 70
21
  0
LTYPE
  5
14
100
AcDbSymbolTableRecord
100
AcDbLinetypeTableRecord
  2
ByBlock
 70
0
  3

 72
65
 73
0
 40
0.0
  0
LTYPE
  5
15
100
AcDbSymbolTableRecord
100
AcDbLinetypeTableRecord
  2
ByLayer
 70
0
  3

 72
65
 73
0
 40
0.0
  0
LTYPE
  5
16
100
AcDbSymbolTableRecord
100
AcDbLinetypeTableRecord
  2
CONTINUOUS
 70
0
  3
Solid line
 72
65
 73
0
 40
0.0
  0
LTYPE
  5
31
100
AcDbSymbolTableRecord
100
AcDbLinetypeTableRecord
  2
DOT
 70
0
  3
Dot . . . . . . . . . . . . . . . . . . . . . .
 72
65
 73
2
 40
6.3499999999999996
 49
0.0
 74
0
 49
-6.3499999999999996
 74
0
  0
LTYPE
  5
32
100
AcDbSymbolTableRecord
100
AcDbLinetypeTableRecord
  2
DOT2
 70
0
  3
Dot (.5x) .....................................
 72
65
 73
2
 40
3.1749999999999998
 49
0.0
 74
0
 49
-3.1749999999999998
 74
0
  0
LTYPE
  5
33
100
AcDbSymbolTableRecord
100
AcDbLinetypeTableRecord
  2
DOTX2
 70
0
  3
Dot (2x) .  .  .  .  .  .  .  .  .  .  .  .  .
 72
65
 73
2
 40
12.6999999999999993
 49
0.0
 74
0
 49
-12.6999999999999993
 74
0
  0
LTYPE
  5
34
100
AcDbSymbolTableRecord
100
AcDbLinetypeTableRecord
  2
DASHED
 70
0
  3
Dashed __ __ __ __ __ __ __ __ __ __ __ __ __ _
 72
65
 73
2
 40
19.0500000000000007
 49
12.6999999999999993
 74
0
 49
-6.3499999999999996
 74
0
  0
LTYPE
  5
35
100
AcDbSymbolTableRecord
100
AcDbLinetypeTableRecord
  2
DASHED2
 70
0
  3
Dashed (.5x) _ _ _ _ _ _ _ _ _ _ _ _ _ _ _ _ _
 72
65
 73
2
 40
9.5250000000000004
 49
6.3499999999999996
 74
0
 49
-3.1749999999999998
 74
0
  0
LTYPE
  5
36
100
AcDbSymbolTableRecord
100
AcDbLinetypeTableRecord
  2
DASHEDX2
 70
0
  3
Dashed (2x) ____  ____  ____  ____  ____  ___
 72
65
 73
2
 40
38.1000000000000014
 49
25.3999999999999986
 74
0
 49
-12.6999999999999993
 74
0
  0
LTYPE
  5
37
100
AcDbSymbolTableRecord
100
AcDbLinetypeTableRecord
  2
DASHDOT
 70
0
  3
Dash dot __ . __ . __ . __ . __ . __ . __ . __
 72
65
 73
4
 40
25.3999999999999986
 49
12.6999999999999993
 74
0
 49
-6.3499999999999996
 74
0
 49
0.0
 74
0
 49
-6.3499999999999996
 74
0
  0
LTYPE
  5
38
100
AcDbSymbolTableRecord
100
AcDbLinetypeTableRecord
  2
DASHDOT2
 70
0
  3
Dash dot (.5x) _._._._._._._._._._._._._._._.
 72
65
 73
4
 40
12.6999999999999993
 49
6.3499999999999996
 74
0
 49
-3.1749999999999998
 74
0
 49
0.0
 74
0
 49
-3.1749999999999998
 74
0
  0
LTYPE
  5
39
100
AcDbSymbolTableRecord
100
AcDbLinetypeTableRecord
  2
DASHDOTX2
 70
0
  3
Dash dot (2x) ____  .  ____  .  ____  .  ___
 72
65
 73
4
 40
50.7999999999999972
 49
25.3999999999999986
 74
0
 49
-12.6999999999999993
 74
0
 49
0.0
 74
0
 49
-12.6999999999999993
 74
0
  0
LTYPE
  5
3A
100
AcDbSymbolTableRecord
100
AcDbLinetypeTableRecord
  2
DIVIDE
 70
0
  3
Divide ____ . . ____ . . ____ . . ____ . . ____
 72
65
 73
6
 40
31.75
 49
12.6999999999999993
 74
0
 49
-6.3499999999999996
 74
0
 49
0.0
 74
0
 49
-6.3499999999999996
 74
0
 49
0.0
 74
0
 49
-6.3499999999999996
 74
0
  0
LTYPE
  5
3B
100
AcDbSymbolTableRecord
100
AcDbLinetypeTableRecord
  2
DIVIDE2
 70
0
  3
Divide (.5x) __..__..__..__..__..__..__..__.._
 72
65
 73
6
 40
15.875
 49
6.3499999999999996
 74
0
 49
-3.1749999999999998
 74
0
 49
0.0
 74
0
 49
-3.1749999999999998
 74
0
 49
0.0
 74
0
 49
-3.1749999999999998
 74
0
  0
LTYPE
  5
3C
100
AcDbSymbolTableRecord
100
AcDbLinetypeTableRecord
  2
DIVIDEX2
 70
0
  3
Divide (2x) ________  .  .  ________  .  .  _
 72
65
 73
6
 40
63.5
 49
25.3999999999999986
 74
0
 49
-12.6999999999999993
 74
0
 49
0.0
 74
0
 49
-12.6999999999999993
 74
0
 49
0.0
 74
0
 49
-12.6999999999999993
 74
0
  0
LTYPE
  5
3D
100
AcDbSymbolTableRecord
100
AcDbLinetypeTableRecord
  2
CENTER
 70
0
  3
Center ____ _ ____ _ ____ _ ____ _ ____ _ ____
 72
65
 73
4
 40
50.7999999999999972
 49
31.75
 74
0
 49
-6.3499999999999996
 74
0
 49
6.3499999999999996
 74
0
 49
-6.3499999999999996
 74
0
  0
LTYPE
  5
3E
100
AcDbSymbolTableRecord
100
AcDbLinetypeTableRecord
  2
CENTER2
 70
0
  3
Center (.5x) ___ _ ___ _ ___ _ ___ _ ___ _ ___
 72
65
 73
4
 40
28.5749999999999993
 49
19.0500000000000007
 74
0
 49
-3.1749999999999998
 74
0
 49
3.1749999999999998
 74
0
 49
-3.1749999999999998
 74
0
  0
LTYPE
  5
3F
100
AcDbSymbolTableRecord
100
AcDbLinetypeTableRecord
  2
CENTERX2
 70
0
  3
Center (2x) ________  __  ________  __  _____
 72
65
 73
4
 40
101.5999999999999943
 49
63.5
 74
0
 49
-12.6999999999999993
 74
0
 49
12.6999999999999993
 74
0
 49
-12.6999999999999993
 74
0
  0
LTYPE
  5
40
100
AcDbSymbolTableRecord
100
AcDbLinetypeTableRecord
  2
BORDER
 70
0
  3
Border __ __ . __ __ . __ __ . __ __ . __ __ .
 72
65
 73
6
 40
44.4500000000000028
 49
12.6999999999999993
 74
0
 49
-6.3499999999999996
 74
0
 49
12.6999999999999993
 74
0
 49
-6.3499999999999996
 74
0
 49
0.0
 74
0
 49
-6.3499999999999996
 74
0
  0
LTYPE
  5
41
100
AcDbSymbolTableRecord
100
AcDbLinetypeTableRecord
  2
BORDER2
 70
0
  3
Border (.5x) __.__.__.__.__.__.__.__.__.__.__.
 72
65
 73
6
 40
22.2250000000000014
 49
6.3499999999999996
 74
0
 49
-3.1749999999999998
 74
0
 49
6.3499999999999996
 74
0
 49
-3.1749999999999998
 74
0
 49
0.0
 74
0
 49
-3.1749999999999998
 74
0
  0
LTYPE
  5
42
100
AcDbSymbolTableRecord
100
AcDbLinetypeTableRecord
  2
BORDERX2
 70
0
  3
Border (2x) ____  ____  .  ____  ____  .  ___
 72
65
 73
6
 40
88.9000000000000057
 49
25.3999999999999986
 74
0
 49
-12.6999999999999993
 74
0
 49
25.3999999999999986
 74
0
 49
-12.6999999999999993
 74
0
 49
0.0
 74
0
 49
-12.6999999999999993
 74
0
  0
ENDTAB
  0
TABLE
  2
LAYER
  5
2
100
AcDbSymbolTable
 70
5
  0
LAYER
  5
10
100
AcDbSymbolTableRecord
100
AcDbLayerTableRecord
  2
0
 70
0
 62
7
  6
CONTINUOUS
370
0
390
F
  0
LAYER
  5
43
100
AcDbSymbolTableRecord
100
AcDbLayerTableRecord
  2
bracket
 70
0
 62
7
  6
CONTINUOUS
370
0
390
F
  0
LAYER
  5
44
100
AcDbSymbolTableRecord
100
AcDbLayerTableRecord
  2
bracket_dims
 70
0
 62
7
  6
CONTINUOUS
370
0
390
F
  0
LAYER
  5
45
100
AcDbSymbolTableRecord
100
AcDbLayerTableRecord
  2
bends
 70
0
 62
7
  6
CONTINUOUS
370
0
390
F
  0
LAYER
  5
46
100
AcDbSymbolTableRecord
100
AcDbLayerTableRecord
  2
bends_dims
 70
0
 62
7
  6
CONTINUOUS
370
0
390
F
  0
ENDTAB
  0
TABLE
  2
STYLE
  5
3
100
AcDbSymbolTable
 70
1
  0
STYLE
  5
11
100
AcDbSymbolTableRecord
100
AcDbTextStyleTableRecord
  2
Standard
 70
0
 40
0.0
 41
0.75
 50
0.0
 71
0
 42
2.5
  3
txt
  4

  0
ENDTAB
  0
TABLE
  2
VIEW
  5
6
100
AcDbSymbolTable
 70
0
  0
ENDTAB
  0
TABLE
  2
UCS
  5
7
100
AcDbSymbolTable
 70
0
  0
ENDTAB
  0
TABLE
  2
APPID
  5
9
100
AcDbSymbolTable
 70
1
  0
APPID
  5
12
100
AcDbSymbolTableRecord
100
AcDbRegAppTableRecord
  2
ACAD
 70
0
  0
ENDTAB
  0
TABLE
  2
DIMSTYLE
  5
A
100
AcDbSymbolTable
 70
1
100
AcDbDimStyleTable
 71
0
  0
DIMSTYLE
105
27
100
AcDbSymbolTableRecord
100
AcDbDimStyleTableRecord
  2
Standard
 41
0.1
 42
0.025
 43
3.75
 44
0.05
 70
0
 73
0
 74
0
 77
1
 78
8
140
0.1
141
2.5
143
0.03937007874016
147
0.025
171
3
172
1
271
2
272
2
274
3
278
44
283
0
284
8
340
11
  0
ENDTAB
  0
TABLE
  2
BLOCK_RECORD
  5
1
100
AcDbSymbolTable
 70
1
  0
BLOCK_RECORD
  5
1F
100
AcDbSymbolTableRecord
100
AcDbBlockTableRecord
  2
*Model_Space
340
22
  0
BLOCK_RECORD
  5
1B
100
AcDbSymbolTableRecord
100
AcDbBlockTableRecord
  2
*Paper_Space
340
1E
  0
BLOCK_RECORD
  5
23
100
AcDbSymbolTableRecord
100
AcDbBlockTableRecord
  2
*Paper_Space0
340
26
  0
BLOCK_RECORD
  5
47
100
AcDbSymbolTableRecord
100
AcDbBlockTableRecord
  2
meter
340
0
  0
BLOCK_RECORD
  5
48
100
AcDbSymbolTableRecord
100
AcDbBlockTableRecord
  2
bracket
340
0
  0
ENDTAB
  0
ENDSEC
  0
SECTION
  2
BLOCKS
  0
BLOCK
  5
20
100
AcDbEntity
  8
0
100
AcDbBlockBegin
  2
*Model_Space
 70
0
 10
0.0
 20
0.0
 30
0.0
  3
*Model_Space
  1

  0
ENDBLK
  5
21
100
AcDbEntity
  8
0
100
AcDbBlockEnd
  0
BLOCK
  5
1C
100
AcDbEntity
 67
1
  8
0
100
AcDbBlockBegin
  2
*Paper_Space
 70
0
 10
0.0
 20
0.0
 30
0.0
  3
*Paper_Space
  1

  0
ENDBLK
  5
1D
100
AcDbEntity
 67
1
  8
0
100
AcDbBlockEnd
  0
BLOCK
  5
24
100
AcDbEntity
  8
0
100
AcDbBlockBegin
  2
*Paper_Space0
 70
0
 10
0.0
 20
0.0
 30
0.0
  3
*Paper_Space0
  1

  0
ENDBLK
  5
25
100
AcDbEntity
  8
0
100
AcDbBlockEnd
  0
BLOCK
  5
49
100
AcDbEntity
  8
0
100
AcDbBlockBegin
  2
meter
 70
0
 10
0.0
 20
0.0
 30
0.0
  3
meter
  1

  0
CIRCLE
  5
4A
100
AcDbEntity
100
AcDbCircle
  8
0
 62
256
370
-1
  6
ByLayer
 10
-0.0
 20
-0.0000000000000001
 30
0.0
 40
1.0625
  0
CIRCLE
  5
4B
100
AcDbEntity
100
AcDbCircle
  8
0
 62
256
370
-1
  6
ByLayer
 10
-0.0
 20
0.0000000000000001
 30
0.0
 40
1.34375
  0
CIRCLE
  5
4C
100
AcDbEntity
100
AcDbCircle
  8
0
 62
256
370
-1
  6
ByLayer
 10
0.8249999999999991
 20
1.4289419162443227
 30
0.0
 40
0.09375
  0
CIRCLE
  5
4D
100
AcDbEntity
100
AcDbCircle
  8
0
 62
256
370
-1
  6
ByLayer
 10
1.1667261889578024
 20
1.1667261889578024
 30
0.0
 40
0.09375
  0
CIRCLE
  5
4E
100
AcDbEntity
100
AcDbCircle
  8
0
 62
256
370
-1
  6
ByLayer
 10
1.4289419162443224
 20
0.8249999999999994
 30
0.0
 40
0.09375
  0
CIRCLE
  5
4F
100
AcDbEntity
100
AcDbCircle
  8
0
 62
256
370
-1
  6
ByLayer
 10
1.5937776133769612
 20
0.4270514244191591
 30
0.0
 40
0.09375
  0
CIRCLE
  5
50
100
AcDbEntity
100
AcDbCircle
  8
0
 62
256
370
-1
  6
ByLayer
 10
1.1109896079409125
 20
1.4478698460315007
 30
0.0
 40
0.09375
  0
CIRCLE
  5
51
100
AcDbEntity
100
AcDbCircle
  8
0
 62
256
370
-1
  6
ByLayer
 10
1.4478698460315009
 20
1.1109896079409125
 30
0.0
 40
0.09375
  0
CIRCLE
  5
52
100
AcDbEntity
100
AcDbCircle
  8
0
 62
256
370
-1
  6
ByLayer
 10
1.6860801468330944
 20
0.6983972640662872
 30
0.0
 40
0.09375
  0
CIRCLE
  5
53
100
AcDbEntity
100
AcDbCircle
  8
0
 62
256
370
-1
  6
ByLayer
 10
1.8093868720071997
 20
0.2382103008015937
 30
0.0
 40
0.09375
  0
LINE
  5
54
100
AcDbEntity
100
AcDbLine
  8
0
 62
256
370
-1
  6
ByLayer
 10
0.8249999999999991
 20
1.4289419162443227
 30
0.0
 11
1.1667261889578024
 21
1.1667261889578024
 31
0.0
  0
LINE
  5
55
100
AcDbEntity
100
AcDbLine
  8
0
 62
256
370
-1
  6
ByLayer
 10
1.1109896079409125
 20
1.4478698460315007
 30
0.0
 11
1.4478698460315009
 21
1.1109896079409125
 31
0.0
  0
LINE
  5
56
100
AcDbEntity
100
AcDbLine
  8
0
 62
256
370
-1
  6
ByLayer
 10
1.4289419162443224
 20
0.8249999999999994
 30
0.0
 11
1.5937776133769612
 21
0.4270514244191591
 31
0.0
  0
LINE
  5
57
100
AcDbEntity
100
AcDbLine
  8
0
 62
256
370
-1
  6
ByLayer
 10
1.6860801468330944
 20
0.6983972640662872
 30
0.0
 11
1.8093868720071997
 21
0.2382103008015937
 31
0.0
  0
ENDBLK
  5
58
100
AcDbEntity
  8
0
100
AcDbBlockEnd
  0
BLOCK
  5
59
100
AcDbEntity
  8
0
100
AcDbBlockBegin
  2
bracket
 70
0
 10
0.0
 20
0.0
 30
0.0
  3
bracket
  1

  0
ENDBLK
  5
5A
100
AcDbEntity
  8
0
100
AcDbBlockEnd
  0
ENDSEC
  0
SECTION
  2
ENTITIES
  0
CIRCLE
  5
5B
100
AcDbEntity
100
AcDbCircle
  8
bracket
 62
256
370
-1
  6
ByLayer
 10
8.1000000000000032
 20
4.1500000000000004
 30
0.0
 40
0.109375
  0
CIRCLE
  5
5C
100
AcDbEntity
100
AcDbCircle
  8
bracket
 62
256
370
-1
  6
ByLayer
 10
-1.6500000000000987
 20
4.1500000000000004
 30
0.0
 40
0.109375
  0
ARC
  5
5D
100
AcDbEntity
  8
bracket
 62
7
370
0
  6
CONTINUOUS
100
AcDbCircle
 10
11.6042477999999996
 20
4.1499999999999968
 30
0.0
 40
0.2
100
AcDbArc
 50
209.9999999999021725
 51
150.0000000000973444
  0
ARC
  5
5E
100
AcDbEntity
  8
bracket
 62
7
370
0
  6
CONTINUOUS
100
AcDbCircle
 10
11.2292477999999978
 20
4.1499999999999986
 30
0.0
 40
0.1
100
AcDbArc
 50
90.0000000000000853
 51
270.0
  0
LINE
  5
5F
100
AcDbEntity
100
AcDbLine
  8
bracket
 62
256
370
-1
  6
CONTINUOUS
 10
11.2292477999999978
 20
4.2499999999999973
 30
0.0
 11
11.4310427192429422
 21
4.2499999999997025
 31
0.0
  0
LINE
  5
60
100
AcDbEntity
100
AcDbLine
  8
bracket
 62
256
370
-1
  6
CONTINUOUS
 10
11.2292477999999978
 20
4.049999999999998
 30
0.0
 11
11.4310427192429422
 21
4.0500000000002929
 31
0.0
  0
LINE
  5
61
100
AcDbEntity
100
AcDbLine
  8
bends
 62
256
370
-1
  6
ByLayer
 10
8.6000000000000014
 20
4.6500000000000012
 30
0.0
 11
8.6000000000000014
 21
3.6500000000000012
 31
0.0
  0
LINE
  5
62
100
AcDbEntity
100
AcDbLine
  8
bends
 62
256
370
-1
  6
ByLayer
 10
-2.1500000000000994
 20
4.6500000000000004
 30
0.0
 11
-2.1500000000000985
 21
3.6500000000000021
 31
0.0
  0
LINE
  5
63
100
AcDbEntity
100
AcDbLine
  8
bends
 62
256
370
-1
  6
ByLayer
 10
-2.1971239000000993
 20
4.6500000000000004
 30
0.0
 11
-2.1971239000000984
 21
3.6500000000000021
 31
0.0
  0
LINE
  5
64
100
AcDbEntity
100
AcDbLine
  8
bends
 62
256
370
-1
  6
ByLayer
 10
8.6471239000000022
 20
4.6500000000000012
 30
0.0
 11
8.6471239000000022
 21
3.6500000000000012
 31
0.0
  0
LINE
  5
65
100
AcDbEntity
100
AcDbLine
  8
bends
 62
256
370
-1
  6
ByLayer
 10
-4.3871239000000992
 20
4.6500000000000012
 30
0.0
 11
-4.3871239000000983
 21
3.650000000000003
 31
0.0
  0
LINE
  5
66
100
AcDbEntity
100
AcDbLine
  8
bends
 62
256
370
-1
  6
ByLayer
 10
10.8371239000000017
 20
4.6500000000000004
 30
0.0
 11
10.8371239000000017
 21
3.6500000000000008
 31
0.0
  0
LINE
  5
67
100
AcDbEntity
100
AcDbLine
  8
bends
 62
256
370
-1
  6
ByLayer
 10
-4.4342478000000991
 20
4.6500000000000012
 30
0.0
 11
-4.4342478000000982
 21
3.650000000000003
 31
0.0
  0
LINE
  5
68
100
AcDbEntity
100
AcDbLine
  8
bends
 62
256
370
-1
  6
ByLayer
 10
10.8842478000000025
 20
4.6500000000000004
 30
0.0
 11
10.8842478000000025
 21
3.6500000000000008
 31
0.0
  0
ARC
  5
69
100
AcDbEntity
  8
bracket
 62
256
370
-1
  6
ByLayer
100
AcDbCircle
 10
-5.6292478000000994
 20
4.5250000000000004
 30
0.0
 40
0.125
100
AcDbArc
 50
90.0
 51
180.0
  0
ARC
  5
6A
100
AcDbEntity
  8
bracket
 62
256
370
-1
  6
ByLayer
100
AcDbCircle
 10
-5.6292478000000994
 20
3.7750000000000057
 30
0.0
 40
0.125
100
AcDbArc
 50
180.0
 51
270.0
  0
ARC
  5
6B
100
AcDbEntity
  8
bracket
 62
256
370
-1
  6
ByLayer
100
AcDbCircle
 10
12.0792478000000028
 20
4.524999999999924
 30
0.0
 40
0.125
100
AcDbArc
 50
360.0
 51
89.9999999999999858
  0
ARC
  5
6C
100
AcDbEntity
  8
bracket
 62
256
370
-1
  6
ByLayer
100
AcDbCircle
 10
12.0792478000000028
 20
3.7750000000000008
 30
0.0
 40
0.125
100
AcDbArc
 50
270.0
 51
360.0
  0
LINE
  5
6D
100
AcDbEntity
100
AcDbLine
  8
bracket
 62
256
370
-1
  6
ByLayer
 10
-5.7542478000000994
 20
4.5250000000000004
 30
0.0
 11
-5.7542478000000985
 21
3.7750000000000057
 31
0.0
  0
LINE
  5
6E
100
AcDbEntity
100
AcDbLine
  8
bracket
 62
256
370
-1
  6
ByLayer
 10
12.0792478000000028
 20
4.6500000000000012
 30
0.0
 11
-5.6292478000000994
 21
4.6500000000000004
 31
0.0
  0
LINE
  5
6F
100
AcDbEntity
100
AcDbLine
  8
bracket
 62
256
370
-1
  6
ByLayer
 10
-5.6292478000000994
 20
3.6499999999999999
 30
0.0
 11
12.0792478000000028
 21
3.6500000000000017
 31
0.0
  0
LINE
  5
70
100
AcDbEntity
100
AcDbLine
  8
bracket
 62
256
370
-1
  6
ByLayer
 10
12.2042478000000028
 20
4.524999999999924
 30
0.0
 11
12.2042478000000028
 21
3.7750000000000008
 31
0.0
  0
DIMENSION
  5
71
100
AcDbEntity
  8
bracket_dims
 62
256
370
-1
  6
ByLayer
100
AcDbDimension
 10
-1.6500000000000987
 20
5.0
 30
0.0
 11
-3.7021239000000992
 21
5.0750000000000002
 31
0.0
 70
0
 71
5
 72
0
 41
1.0
 42
0.0
  1

  3
Standard
100
AcDbAlignedDimension
 13
-5.7542478000000994
 23
4.150000000000003
 33
0.0
 14
-1.6500000000000987
 24
4.1500000000000004
 34
0.0
 50
0.0
100
AcDbRotatedDimension
  0
DIMENSION
  5
72
100
AcDbEntity
  8
bracket_dims
 62
256
370
-1
  6
ByLayer
100
AcDbDimension
 10
8.1000000000000032
 20
5.1999999999999993
 30
0.0
 11
1.1728760999999519
 21
5.2749999999999995
 31
0.0
 70
0
 71
5
 72
0
 41
1.0
 42
0.0
  1

  3
Standard
100
AcDbAlignedDimension
 13
-5.7542478000000994
 23
4.150000000000003
 33
0.0
 14
8.1000000000000032
 24
4.1500000000000004
 34
0.0
 50
0.0
100
AcDbRotatedDimension
  0
DIMENSION
  5
73
100
AcDbEntity
  8
bracket_dims
 62
256
370
-1
  6
ByLayer
100
AcDbDimension
 10
11.2292477999999978
 20
5.4000000000000004
 30
0.0
 11
2.7374999999999492
 21
5.4750000000000005
 31
0.0
 70
0
 71
5
 72
0
 41
1.0
 42
0.0
  1

  3
Standard
100
AcDbAlignedDimension
 13
-5.7542478000000994
 23
4.150000000000003
 33
0.0
 14
11.2292477999999978
 24
4.1499999999999986
 34
0.0
 50
0.0
100
AcDbRotatedDimension
  0
DIMENSION
  5
74
100
AcDbEntity
  8
bracket_dims
 62
256
370
-1
  6
ByLayer
100
AcDbDimension
 10
11.6042477999999996
 20
5.6000000000000005
 30
0.0
 11
2.924999999999951
 21
5.6750000000000007
 31
0.0
 70
0
 71
5
 72
0
 41
1.0
 42
0.0
  1

  3
Standard
100
AcDbAlignedDimension
 13
-5.7542478000000994
 23
4.150000000000003
 33
0.0
 14
11.6042477999999996
 24
4.1499999999999968
 34
0.0
 50
0.0
100
AcDbRotatedDimension
  0
DIMENSION
  5
75
100
AcDbEntity
  8
bracket_dims
 62
256
370
-1
  6
ByLayer
100
AcDbDimension
 10
12.2042478000000028
 20
5.7999999999999989
 30
0.0
 11
3.2249999999999517
 21
5.8749999999999991
 31
0.0
 70
0
 71
5
 72
0
 41
1.0
 42
0.0
  1

  3
Standard
100
AcDbAlignedDimension
 13
-5.7542478000000994
 23
4.150000000000003
 33
0.0
 14
12.2042478000000028
 24
4.1499999999999622
 34
0.0
 50
0.0
100
AcDbRotatedDimension
  0
DIMENSION
  5
76
100
AcDbEntity
  8
bracket_dims
 62
256
370
-1
  6
ByLayer
100
AcDbDimension
 10
-6.0999999999999979
 20
4.1499999999999986
 30
0.0
 11
-6.174999999999998
 21
4.3999999999999995
 31
0.0
 70
0
 71
5
 72
0
 41
1.0
 42
0.0
  1

  3
Standard
100
AcDbAlignedDimension
 13
3.2249999999999517
 23
4.6500000000000004
 33
0.0
 14
11.6042477999999996
 24
4.1499999999999968
 34
0.0
 50
90.0
100
AcDbRotatedDimension
  0
DIMENSION
  5
77
100
AcDbEntity
  8
bracket_dims
 62
256
370
-1
  6
ByLayer
100
AcDbDimension
 10
-6.3000000000000007
 20
3.6500000000000021
 30
0.0
 11
-6.3750000000000009
 21
4.1500000000000012
 31
0.0
 70
0
 71
5
 72
0
 41
1.0
 42
0.0
  1

  3
Standard
100
AcDbAlignedDimension
 13
3.2249999999999517
 23
4.6500000000000004
 33
0.0
 14
3.2249999999999517
 24
3.6500000000000008
 34
0.0
 50
90.0
100
AcDbRotatedDimension
  0
LEADER
  5
78
  8
bracket_dims
 62
256
370
-1
  6
ByLayer
100
AcDbEntity
100
AcDbLeader
  3
Standard
 71
1
 72
0
 73
3
 74
0
 75
0
 40
1.0
 41
10.0
 76
2
 10
-5.6292478000000994
 20
3.7750000000000057
 10
-5.0999999999999996
 20
3.1000000000000001
  0
MTEXT
  5
79
100
AcDbEntity
100
AcDbMText
  8
bracket_dims
 62
256
370
-1
  6
ByLayer
 10
-5.0
 20
3.1000000000000001
 30
0.0
 40
0.15
 41
100.0
 71
1
 72
2
  1
4x\~R0.125
  7
normallatin1
 50
0.0
 73
0
 44
1.0
  0
DIMENSION
  5
7A
100
AcDbEntity
  8
bracket_dims
 62
256
370
-1
  6
ByLayer
100
AcDbDimension
 10
-1.5406250000000732
 20
3.0
 30
0.0
 11
-1.6500000000000972
 21
3.0750000000000002
 31
0.0
 70
0
 71
5
 72
0
 41
1.0
 42
0.0
  1
%%c2x\~7/32
  3
Standard
100
AcDbAlignedDimension
 13
-1.7593750000001211
 23
4.1499999999999977
 33
0.0
 14
-1.5406250000000732
 24
4.1499999999999977
 34
0.0
 50
0.0
100
AcDbRotatedDimension
  0
LEADER
  5
7B
  8
bracket_dims
 62
256
370
-1
  6
ByLayer
100
AcDbEntity
100
AcDbLeader
  3
Standard
 71
1
 72
0
 73
3
 74
0
 75
0
 40
1.0
 41
10.0
 76
2
 10
11.6042477999999996
 20
4.1499999999999968
 10
12.0999999999999996
 20
3.2000000000000002
  0
MTEXT
  5
7C
100
AcDbEntity
100
AcDbMText
  8
bracket_dims
 62
256
370
-1
  6
ByLayer
 10
12.0999999999999996
 20
3.1000000000000001
 30
0.0
 40
0.15
 41
100.0
 71
1
 72
2
  1
1x\~R0.2
  7
normallatin1
 50
0.0
 73
0
 44
1.0
  0
MTEXT
  5
7D
100
AcDbEntity
100
AcDbMText
  8
bracket_dims
 62
256
370
-1
  6
ByLayer
 10
10.1999999999999993
 20
3.2000000000000002
 30
0.0
 40
0.15
 41
100.0
 71
1
 72
2
  1
1x\~R0.1
  7
normallatin1
 50
0.0
 73
0
 44
1.0
  0
LEADER
  5
7E
  8
bracket_dims
 62
256
370
-1
  6
ByLayer
100
AcDbEntity
100
AcDbLeader
  3
Standard
 71
1
 72
0
 73
3
 74
0
 75
0
 40
1.0
 41
10.0
 76
2
 10
11.2292477999999978
 20
4.1499999999999986
 10
10.9000000000000004
 20
3.3000000000000003
  0
MTEXT
  5
7F
100
AcDbEntity
100
AcDbMText
  8
bracket_dims
 62
256
370
-1
  6
ByLayer
 10
8.0
 20
1.8
 30
0.0
 40
0.15
 41
100.0
 71
1
 72
2
  1
All\~dimensions\~+0.005\~-0.005
  7
normallatin1
 50
0.0
 73
0
 44
1.0
  0
MTEXT
  5
80
100
AcDbEntity
100
AcDbMText
  8
bracket_dims
 62
256
370
-1
  6
ByLayer
 10
8.0
 20
1.0
 30
0.0
 40
0.15
 41
100.0
 71
1
 72
2
  1
Meter\~Clock\~Brackets\P2008.06.19\~Peter\~Todd
  7
normallatin1
 50
0.0
 73
0
 44
1.0
  0
DIMENSION
  5
81
100
AcDbEntity
  8
bends
 62
256
370
-1
  6
ByLayer
100
AcDbDimension
 10
-4.4106858500000996
 20
5.0
 30
0.0
 11
-5.0824668250000986
 21
5.0750000000000002
 31
0.0
 70
0
 71
5
 72
1
 41
1.0
 42
0.0
  1

  3
Standard
100
AcDbAlignedDimension
 13
-5.7542478000000985
 23
3.7750000000000057
 33
0.0
 14
-4.4106858500000996
 24
3.6499999999999999
 34
0.0
 50
0.0
100
AcDbRotatedDimension
  0
DIMENSION
  5
82
100
AcDbEntity
  8
bends
 62
256
370
-1
  6
ByLayer
100
AcDbDimension
 10
-2.1735619500000993
 20
5.2000000000000002
 30
0.0
 11
-3.9639048750000994
 21
5.2750000000000004
 31
0.0
 70
0
 71
5
 72
1
 41
1.0
 42
0.0
  1

  3
Standard
100
AcDbAlignedDimension
 13
-5.7542478000000985
 23
3.7750000000000057
 33
0.0
 14
-2.1735619500000993
 24
3.6500000000000004
 34
0.0
 50
0.0
100
AcDbRotatedDimension
  0
DIMENSION
  5
83
100
AcDbEntity
  8
bends
 62
256
370
-1
  6
ByLayer
100
AcDbDimension
 10
10.8606858500000012
 20
5.0
 30
0.0
 11
11.532466825000002
 21
5.0750000000000002
 31
0.0
 70
0
 71
5
 72
1
 41
1.0
 42
0.0
  1

  3
Standard
100
AcDbAlignedDimension
 13
12.2042478000000028
 23
3.7750000000000008
 33
0.0
 14
10.8606858500000012
 24
3.6500000000000017
 34
0.0
 50
0.0
100
AcDbRotatedDimension
  0
DIMENSION
  5
84
100
AcDbEntity
  8
bends
 62
256
370
-1
  6
ByLayer
100
AcDbDimension
 10
8.6235619500000009
 20
5.2000000000000002
 30
0.0
 11
10.4139048750000018
 21
5.2750000000000004
 31
0.0
 70
0
 71
5
 72
1
 41
1.0
 42
0.0
  1

  3
Standard
100
AcDbAlignedDimension
 13
12.2042478000000028
 23
3.7750000000000008
 33
0.0
 14
8.6235619500000009
 24
3.6500000000000012
 34
0.0
 50
0.0
100
AcDbRotatedDimension
  0
ENDSEC
  0
SECTION
  2
OBJECTS
  0
DICTIONARY
  5
C
100
AcDbDictionary
280
0
281
1
  3
ACAD_GROUP
350
D
  3
ACAD_LAYOUT
350
1A
  3
ACAD_MLINESTYLE
350
17
  3
ACAD_PLOTSETTINGS
350
19
  3
ACAD_PLOTSTYLENAME
350
E
  3
AcDbVariableDictionary
350
85
  0
DICTIONARY
  5
D
100
AcDbDictionary
280
0
281
1
  0
ACDBDICTIONARYWDFLT
  5
E
100
AcDbDictionary
281
1
  3
Normal
350
F
100
AcDbDictionaryWithDefault
340
F
  0
ACDBPLACEHOLDER
  5
F
  0
DICTIONARY
  5
17
100
AcDbDictionary
280
0
281
1
  3
Standard
350
18
  0
MLINESTYLE
  5
18
100
AcDbMlineStyle
  2
STANDARD
 70
0
  3

 62
256
 51
90.0
 52
90.0
 71
2
 49
0.5
 62
256
  6
BYLAYER
 49
-0.5
 62
256
  6
BYLAYER
  0
DICTIONARY
  5
19
100
AcDbDictionary
280
0
281
1
  0
DICTIONARY
  5
1A
100
AcDbDictionary
281
1
  3
Layout1
350
1E
  3
Layout2
350
26
  3
Model
350
22
  0
LAYOUT
  5
1E
100
AcDbPlotSettings
  1

  2
C:\Program Files\AutoCAD 2002\plotters\DWF ePlot (optimized for plotting).pc3
  4

  6

 40
0.0
 41
0.0
 42
0.0
 43
0.0
 44
0.0
 45
0.0
 46
0.0
 47
0.0
 48
0.0
 49
0.0
140
0.0
141
0.0
142
1.0
143
1.0
 70
688
 72
0
 73
0
 74
5
  7

 75
16
147
1.0
148
0.0
149
0.0
100
AcDbLayout
  1
Layout1
 70
1
 71
1
 10
0.0
 20
0.0
 11
420.0
 21
297.0
 12
0.0
 22
0.0
 32
0.0
 14
100000000000000000000.0
 24
100000000000000000000.0
 34
100000000000000000000.0
 15
-100000000000000000000.0
 25
-100000000000000000000.0
 35
-100000000000000000000.0
146
0.0
 13
0.0
 23
0.0
 33
0.0
 16
1.0
 26
0.0
 36
0.0
 17
0.0
 27
1.0
 37
0.0
 76
0
330
1B
  0
LAYOUT
  5
22
100
AcDbPlotSettings
  1

  2
C:\Program Files\AutoCAD 2002\plotters\DWF ePlot (optimized for plotting).pc3
  4

  6

 40
0.0
 41
0.0
 42
0.0
 43
0.0
 44
0.0
 45
0.0
 46
0.0
 47
0.0
 48
0.0
 49
0.0
140
0.0
141
0.0
142
1.0
143
1.0
 70
1712
 72
0
 73
0
 74
0
  7

 75
0
147
1.0
148
0.0
149
0.0
100
AcDbLayout
  1
Model
 70
1
 71
0
 10
0.0
 20
0.0
 11
12.0
 21
9.0
 12
0.0
 22
0.0
 32
0.0
 14
0.0
 24
0.0
 34
0.0
 15
0.0
 25
0.0
 35
0.0
146
0.0
 13
0.0
 23
0.0
 33
0.0
 16
1.0
 26
0.0
 36
0.0
 17
0.0
 27
1.0
 37
0.0
 76
0
330
1F
  0
LAYOUT
  5
26
100
AcDbPlotSettings
  1

  2
C:\Program Files\AutoCAD 2002\plotters\DWF ePlot (optimized for plotting).pc3
  4

  6

 40
0.0
 41
0.0
 42
0.0
 43
0.0
 44
0.0
 45
0.0
 46
0.0
 47
0.0
 48
0.0
 49
0.0
140
0.0
141
0.0
142
1.0
143
1.0
 70
688
 72
0
 73
0
 74
5
  7

 75
16
147
1.0
148
0.0
149
0.0
100
AcDbLayout
  1
Layout2
 70
1
 71
2
 10
0.0
 20
0.0
 11
12.0
 21
9.0
 12
0.0
 22
0.0
 32
0.0
 14
0.0
 24
0.0
 34
0.0
 15
0.0
 25
0.0
 35
0.0
146
0.0
 13
0.0
 23
0.0
 33
0.0
 16
1.0
 26
0.0
 36
0.0
 17
0.0
 27
1.0
 37
0.0
 76
0
330
23
  0
DICTIONARY
  5
85
100
AcDbDictionary
281
1
  3
DIMASSOC
350
87
  3
HIDETEXT
350
86
  0
DICTIONARYVAR
  5
86
100
DictionaryVariables
280
0
  1
2
  0
DICTIONARYVAR
  5
87
100
DictionaryVariables
280
0
  1
1
  0
ENDSEC
  0
EOF
