G04 start of page 10 for group -3984 idx -3984
G04 Title: (unknown), fab *
G04 Creator: pcb-bin 20060822 *
G04 CreationDate: Mon Jun 16 01:23:04 2008 UTC *
G04 For: pete *
G04 Format: Gerber/RS-274X *
G04 PCB-Dimensions: 645000 1075000 *
G04 PCB-Coordinate-Origin: lower left *
%MOIN*%
%FSLAX24Y24*%
%LNFAB*%
%ADD11R,0.0080X0.0080*%
%ADD12C,0.0100*%
G54D11*X5000Y102820D02*Y102180D01*
X4680Y102500D02*X5320D01*
X4840Y102660D02*X5160D01*
X4840D02*Y102340D01*
X5160D01*
Y102660D02*Y102340D01*
X59500Y102820D02*Y102180D01*
X59180Y102500D02*X59820D01*
X59340Y102660D02*X59660D01*
X59340D02*Y102340D01*
X59660D01*
Y102660D02*Y102340D01*
X5000Y5320D02*Y4680D01*
X4680Y5000D02*X5320D01*
X4840Y5160D02*X5160D01*
X4840D02*Y4840D01*
X5160D01*
Y5160D02*Y4840D01*
X59500Y5320D02*Y4680D01*
X59180Y5000D02*X59820D01*
X59340Y5160D02*X59660D01*
X59340D02*Y4840D01*
X59660D01*
Y5160D02*Y4840D01*
X1500Y108945D02*Y108305D01*
X1180Y108625D02*X1820D01*
X1340Y108785D02*X1660D01*
X1340D02*Y108465D01*
X1660D01*
Y108785D02*Y108465D01*
G54D12*X13500Y108850D02*Y108775D01*
X13650Y108625D01*
X13800Y108775D01*
Y108850D02*Y108775D01*
X13650Y108625D02*Y108250D01*
X13980Y108550D02*X14205D01*
X13980Y108250D02*X14280D01*
X13980Y108850D02*Y108250D01*
Y108850D02*X14280D01*
X14760D02*X14835Y108775D01*
X14535Y108850D02*X14760D01*
X14460Y108775D02*X14535Y108850D01*
X14460Y108775D02*Y108625D01*
X14535Y108550D01*
X14760D01*
X14835Y108475D01*
Y108325D01*
X14760Y108250D02*X14835Y108325D01*
X14535Y108250D02*X14760D01*
X14460Y108325D02*X14535Y108250D01*
X13500Y107924D02*X15015D01*
X9800Y108550D02*X10100Y108850D01*
X9800Y108550D02*X10175D01*
X10100Y108850D02*Y108250D01*
X9800Y107924D02*X10355D01*
X4500Y108325D02*X4575Y108250D01*
X4500Y108775D02*Y108325D01*
Y108775D02*X4575Y108850D01*
X4725D01*
X4800Y108775D01*
Y108325D01*
X4725Y108250D02*X4800Y108325D01*
X4575Y108250D02*X4725D01*
X4500Y108400D02*X4800Y108700D01*
X4980Y108250D02*X5055D01*
X5235Y108775D02*X5310Y108850D01*
X5535D01*
X5610Y108775D01*
Y108625D01*
X5235Y108250D02*X5610Y108625D01*
X5235Y108250D02*X5610D01*
X5865D02*X6015D01*
X5940Y108850D02*Y108250D01*
X5790Y108700D02*X5940Y108850D01*
X6195Y108250D02*X6495Y108550D01*
Y108775D02*Y108550D01*
X6420Y108850D02*X6495Y108775D01*
X6270Y108850D02*X6420D01*
X6195Y108775D02*X6270Y108850D01*
X6195Y108775D02*Y108625D01*
X6270Y108550D01*
X6495D01*
X4500Y107924D02*X6675D01*
X39500Y88500D02*Y88180D01*
Y88500D02*X39777Y88660D01*
X39500Y88500D02*X39222Y88660D01*
X39340Y88500D02*G75*G03X39660Y88500I160J0D01*G01*
G75*G03X39340Y88500I-160J0D01*G01*
X37500Y90250D02*Y89930D01*
Y90250D02*X37777Y90410D01*
X37500Y90250D02*X37222Y90410D01*
X37340Y90250D02*G75*G03X37660Y90250I160J0D01*G01*
G75*G03X37340Y90250I-160J0D01*G01*
X36000Y97250D02*Y96930D01*
Y97250D02*X36277Y97410D01*
X36000Y97250D02*X35722Y97410D01*
X35840Y97250D02*G75*G03X36160Y97250I160J0D01*G01*
G75*G03X35840Y97250I-160J0D01*G01*
X38500Y93000D02*Y92680D01*
Y93000D02*X38777Y93160D01*
X38500Y93000D02*X38222Y93160D01*
X38340Y93000D02*G75*G03X38660Y93000I160J0D01*G01*
G75*G03X38340Y93000I-160J0D01*G01*
X33250Y97750D02*Y97430D01*
Y97750D02*X33527Y97910D01*
X33250Y97750D02*X32972Y97910D01*
X33090Y97750D02*G75*G03X33410Y97750I160J0D01*G01*
G75*G03X33090Y97750I-160J0D01*G01*
X32500Y100500D02*Y100180D01*
Y100500D02*X32777Y100660D01*
X32500Y100500D02*X32222Y100660D01*
X32340Y100500D02*G75*G03X32660Y100500I160J0D01*G01*
G75*G03X32340Y100500I-160J0D01*G01*
X29750Y100250D02*Y99930D01*
Y100250D02*X30027Y100410D01*
X29750Y100250D02*X29472Y100410D01*
X29590Y100250D02*G75*G03X29910Y100250I160J0D01*G01*
G75*G03X29590Y100250I-160J0D01*G01*
X35750Y94250D02*Y93930D01*
Y94250D02*X36027Y94410D01*
X35750Y94250D02*X35472Y94410D01*
X35590Y94250D02*G75*G03X35910Y94250I160J0D01*G01*
G75*G03X35590Y94250I-160J0D01*G01*
X39500Y56250D02*Y55930D01*
Y56250D02*X39777Y56410D01*
X39500Y56250D02*X39222Y56410D01*
X39340Y56250D02*G75*G03X39660Y56250I160J0D01*G01*
G75*G03X39340Y56250I-160J0D01*G01*
X37500Y58000D02*Y57680D01*
Y58000D02*X37777Y58160D01*
X37500Y58000D02*X37222Y58160D01*
X37340Y58000D02*G75*G03X37660Y58000I160J0D01*G01*
G75*G03X37340Y58000I-160J0D01*G01*
X36000Y65000D02*Y64680D01*
Y65000D02*X36277Y65160D01*
X36000Y65000D02*X35722Y65160D01*
X35840Y65000D02*G75*G03X36160Y65000I160J0D01*G01*
G75*G03X35840Y65000I-160J0D01*G01*
X38500Y60750D02*Y60430D01*
Y60750D02*X38777Y60910D01*
X38500Y60750D02*X38222Y60910D01*
X38340Y60750D02*G75*G03X38660Y60750I160J0D01*G01*
G75*G03X38340Y60750I-160J0D01*G01*
X33250Y65500D02*Y65180D01*
Y65500D02*X33527Y65660D01*
X33250Y65500D02*X32972Y65660D01*
X33090Y65500D02*G75*G03X33410Y65500I160J0D01*G01*
G75*G03X33090Y65500I-160J0D01*G01*
X32500Y68250D02*Y67930D01*
Y68250D02*X32777Y68410D01*
X32500Y68250D02*X32222Y68410D01*
X32340Y68250D02*G75*G03X32660Y68250I160J0D01*G01*
G75*G03X32340Y68250I-160J0D01*G01*
X29750Y68000D02*Y67680D01*
Y68000D02*X30027Y68160D01*
X29750Y68000D02*X29472Y68160D01*
X29590Y68000D02*G75*G03X29910Y68000I160J0D01*G01*
G75*G03X29590Y68000I-160J0D01*G01*
X35750Y62000D02*Y61680D01*
Y62000D02*X36027Y62160D01*
X35750Y62000D02*X35472Y62160D01*
X35590Y62000D02*G75*G03X35910Y62000I160J0D01*G01*
G75*G03X35590Y62000I-160J0D01*G01*
X39500Y24000D02*Y23680D01*
Y24000D02*X39777Y24160D01*
X39500Y24000D02*X39222Y24160D01*
X39340Y24000D02*G75*G03X39660Y24000I160J0D01*G01*
G75*G03X39340Y24000I-160J0D01*G01*
X37500Y25750D02*Y25430D01*
Y25750D02*X37777Y25910D01*
X37500Y25750D02*X37222Y25910D01*
X37340Y25750D02*G75*G03X37660Y25750I160J0D01*G01*
G75*G03X37340Y25750I-160J0D01*G01*
X36000Y32750D02*Y32430D01*
Y32750D02*X36277Y32910D01*
X36000Y32750D02*X35722Y32910D01*
X35840Y32750D02*G75*G03X36160Y32750I160J0D01*G01*
G75*G03X35840Y32750I-160J0D01*G01*
X38500Y28500D02*Y28180D01*
Y28500D02*X38777Y28660D01*
X38500Y28500D02*X38222Y28660D01*
X38340Y28500D02*G75*G03X38660Y28500I160J0D01*G01*
G75*G03X38340Y28500I-160J0D01*G01*
X33250Y33250D02*Y32930D01*
Y33250D02*X33527Y33410D01*
X33250Y33250D02*X32972Y33410D01*
X33090Y33250D02*G75*G03X33410Y33250I160J0D01*G01*
G75*G03X33090Y33250I-160J0D01*G01*
X32500Y36000D02*Y35680D01*
Y36000D02*X32777Y36160D01*
X32500Y36000D02*X32222Y36160D01*
X32340Y36000D02*G75*G03X32660Y36000I160J0D01*G01*
G75*G03X32340Y36000I-160J0D01*G01*
X29750Y35750D02*Y35430D01*
Y35750D02*X30027Y35910D01*
X29750Y35750D02*X29472Y35910D01*
X29590Y35750D02*G75*G03X29910Y35750I160J0D01*G01*
G75*G03X29590Y35750I-160J0D01*G01*
X35750Y29750D02*Y29430D01*
Y29750D02*X36027Y29910D01*
X35750Y29750D02*X35472Y29910D01*
X35590Y29750D02*G75*G03X35910Y29750I160J0D01*G01*
G75*G03X35590Y29750I-160J0D01*G01*
X1500Y110125D02*Y109805D01*
Y110125D02*X1777Y110285D01*
X1500Y110125D02*X1222Y110285D01*
X1340Y110125D02*G75*G03X1660Y110125I160J0D01*G01*
G75*G03X1340Y110125I-160J0D01*G01*
X13500Y110350D02*Y110275D01*
X13650Y110125D01*
X13800Y110275D01*
Y110350D02*Y110275D01*
X13650Y110125D02*Y109750D01*
X13980Y110050D02*X14205D01*
X13980Y109750D02*X14280D01*
X13980Y110350D02*Y109750D01*
Y110350D02*X14280D01*
X14760D02*X14835Y110275D01*
X14535Y110350D02*X14760D01*
X14460Y110275D02*X14535Y110350D01*
X14460Y110275D02*Y110125D01*
X14535Y110050D01*
X14760D01*
X14835Y109975D01*
Y109825D01*
X14760Y109750D02*X14835Y109825D01*
X14535Y109750D02*X14760D01*
X14460Y109825D02*X14535Y109750D01*
X13500Y109424D02*X15015D01*
X9800Y110275D02*X9875Y110350D01*
X10100D01*
X10175Y110275D01*
Y110125D01*
X9800Y109750D02*X10175Y110125D01*
X9800Y109750D02*X10175D01*
X10355Y110050D02*X10655Y110350D01*
X10355Y110050D02*X10730D01*
X10655Y110350D02*Y109750D01*
X9800Y109424D02*X10910D01*
X4500Y109825D02*X4575Y109750D01*
X4500Y110275D02*Y109825D01*
Y110275D02*X4575Y110350D01*
X4725D01*
X4800Y110275D01*
Y109825D01*
X4725Y109750D02*X4800Y109825D01*
X4575Y109750D02*X4725D01*
X4500Y109900D02*X4800Y110200D01*
X4980Y109750D02*X5055D01*
X5310D02*X5460D01*
X5385Y110350D02*Y109750D01*
X5235Y110200D02*X5385Y110350D01*
X5640Y109825D02*X5715Y109750D01*
X5640Y109975D02*Y109825D01*
Y109975D02*X5715Y110050D01*
X5865D01*
X5940Y109975D01*
Y109825D01*
X5865Y109750D02*X5940Y109825D01*
X5715Y109750D02*X5865D01*
X5640Y110125D02*X5715Y110050D01*
X5640Y110275D02*Y110125D01*
Y110275D02*X5715Y110350D01*
X5865D01*
X5940Y110275D01*
Y110125D01*
X5865Y110050D02*X5940Y110125D01*
X6120Y109825D02*X6195Y109750D01*
X6120Y109975D02*Y109825D01*
Y109975D02*X6195Y110050D01*
X6345D01*
X6420Y109975D01*
Y109825D01*
X6345Y109750D02*X6420Y109825D01*
X6195Y109750D02*X6345D01*
X6120Y110125D02*X6195Y110050D01*
X6120Y110275D02*Y110125D01*
Y110275D02*X6195Y110350D01*
X6345D01*
X6420Y110275D01*
Y110125D01*
X6345Y110050D02*X6420Y110125D01*
X4500Y109424D02*X6600D01*
X40227Y34160D02*X40547D01*
X40227D02*Y33840D01*
X40547D01*
Y34160D02*Y33840D01*
X48101Y34160D02*X48421D01*
X48101D02*Y33840D01*
X48421D01*
Y34160D02*Y33840D01*
X1340Y111785D02*X1660D01*
X1340D02*Y111465D01*
X1660D01*
Y111785D02*Y111465D01*
X13500Y111850D02*Y111775D01*
X13650Y111625D01*
X13800Y111775D01*
Y111850D02*Y111775D01*
X13650Y111625D02*Y111250D01*
X13980Y111550D02*X14205D01*
X13980Y111250D02*X14280D01*
X13980Y111850D02*Y111250D01*
Y111850D02*X14280D01*
X14760D02*X14835Y111775D01*
X14535Y111850D02*X14760D01*
X14460Y111775D02*X14535Y111850D01*
X14460Y111775D02*Y111625D01*
X14535Y111550D01*
X14760D01*
X14835Y111475D01*
Y111325D01*
X14760Y111250D02*X14835Y111325D01*
X14535Y111250D02*X14760D01*
X14460Y111325D02*X14535Y111250D01*
X13500Y110924D02*X15015D01*
X9800Y111775D02*X9875Y111850D01*
X10100D01*
X10175Y111775D01*
Y111625D01*
X9800Y111250D02*X10175Y111625D01*
X9800Y111250D02*X10175D01*
X9800Y110924D02*X10355D01*
X4500Y111325D02*X4575Y111250D01*
X4500Y111775D02*Y111325D01*
Y111775D02*X4575Y111850D01*
X4725D01*
X4800Y111775D01*
Y111325D01*
X4725Y111250D02*X4800Y111325D01*
X4575Y111250D02*X4725D01*
X4500Y111400D02*X4800Y111700D01*
X4980Y111250D02*X5055D01*
X5235Y111325D02*X5310Y111250D01*
X5235Y111775D02*Y111325D01*
Y111775D02*X5310Y111850D01*
X5460D01*
X5535Y111775D01*
Y111325D01*
X5460Y111250D02*X5535Y111325D01*
X5310Y111250D02*X5460D01*
X5235Y111400D02*X5535Y111700D01*
X5940Y111850D02*X6015Y111775D01*
X5790Y111850D02*X5940D01*
X5715Y111775D02*X5790Y111850D01*
X5715Y111775D02*Y111325D01*
X5790Y111250D01*
X5940Y111550D02*X6015Y111475D01*
X5715Y111550D02*X5940D01*
X5790Y111250D02*X5940D01*
X6015Y111325D01*
Y111475D02*Y111325D01*
X6195Y111775D02*X6270Y111850D01*
X6495D01*
X6570Y111775D01*
Y111625D01*
X6195Y111250D02*X6570Y111625D01*
X6195Y111250D02*X6570D01*
X4500Y110924D02*X6750D01*
X55920Y40750D02*G75*G03X56080Y40750I80J0D01*G01*
G75*G03X55920Y40750I-80J0D01*G01*
Y42000D02*G75*G03X56080Y42000I80J0D01*G01*
G75*G03X55920Y42000I-80J0D01*G01*
X50420Y34750D02*G75*G03X50580Y34750I80J0D01*G01*
G75*G03X50420Y34750I-80J0D01*G01*
X37920Y53750D02*G75*G03X38080Y53750I80J0D01*G01*
G75*G03X37920Y53750I-80J0D01*G01*
X56670Y67750D02*G75*G03X56830Y67750I80J0D01*G01*
G75*G03X56670Y67750I-80J0D01*G01*
X48920Y68750D02*G75*G03X49080Y68750I80J0D01*G01*
G75*G03X48920Y68750I-80J0D01*G01*
X37920Y47250D02*G75*G03X38080Y47250I80J0D01*G01*
G75*G03X37920Y47250I-80J0D01*G01*
Y42750D02*G75*G03X38080Y42750I80J0D01*G01*
G75*G03X37920Y42750I-80J0D01*G01*
X51920Y14750D02*G75*G03X52080Y14750I80J0D01*G01*
G75*G03X51920Y14750I-80J0D01*G01*
X42420Y27000D02*G75*G03X42580Y27000I80J0D01*G01*
G75*G03X42420Y27000I-80J0D01*G01*
X39670Y21500D02*G75*G03X39830Y21500I80J0D01*G01*
G75*G03X39670Y21500I-80J0D01*G01*
X48920Y67750D02*G75*G03X49080Y67750I80J0D01*G01*
G75*G03X48920Y67750I-80J0D01*G01*
X54170Y36500D02*G75*G03X54330Y36500I80J0D01*G01*
G75*G03X54170Y36500I-80J0D01*G01*
X37920Y21500D02*G75*G03X38080Y21500I80J0D01*G01*
G75*G03X37920Y21500I-80J0D01*G01*
X39670Y53750D02*G75*G03X39830Y53750I80J0D01*G01*
G75*G03X39670Y53750I-80J0D01*G01*
X37920Y79500D02*G75*G03X38080Y79500I80J0D01*G01*
G75*G03X37920Y79500I-80J0D01*G01*
Y75000D02*G75*G03X38080Y75000I80J0D01*G01*
G75*G03X37920Y75000I-80J0D01*G01*
X50420Y36250D02*G75*G03X50580Y36250I80J0D01*G01*
G75*G03X50420Y36250I-80J0D01*G01*
X37920Y15000D02*G75*G03X38080Y15000I80J0D01*G01*
G75*G03X37920Y15000I-80J0D01*G01*
Y10500D02*G75*G03X38080Y10500I80J0D01*G01*
G75*G03X37920Y10500I-80J0D01*G01*
X46170Y27000D02*G75*G03X46330Y27000I80J0D01*G01*
G75*G03X46170Y27000I-80J0D01*G01*
X39670Y86000D02*G75*G03X39830Y86000I80J0D01*G01*
G75*G03X39670Y86000I-80J0D01*G01*
X50920Y13750D02*G75*G03X51080Y13750I80J0D01*G01*
G75*G03X50920Y13750I-80J0D01*G01*
X37920Y86000D02*G75*G03X38080Y86000I80J0D01*G01*
G75*G03X37920Y86000I-80J0D01*G01*
X48920Y66250D02*G75*G03X49080Y66250I80J0D01*G01*
G75*G03X48920Y66250I-80J0D01*G01*
X45920Y12500D02*G75*G03X46080Y12500I80J0D01*G01*
G75*G03X45920Y12500I-80J0D01*G01*
X50920D02*G75*G03X51080Y12500I80J0D01*G01*
G75*G03X50920Y12500I-80J0D01*G01*
X1420Y113125D02*G75*G03X1580Y113125I80J0D01*G01*
G75*G03X1420Y113125I-80J0D01*G01*
X13500Y113350D02*Y113275D01*
X13650Y113125D01*
X13800Y113275D01*
Y113350D02*Y113275D01*
X13650Y113125D02*Y112750D01*
X13980Y113050D02*X14205D01*
X13980Y112750D02*X14280D01*
X13980Y113350D02*Y112750D01*
Y113350D02*X14280D01*
X14760D02*X14835Y113275D01*
X14535Y113350D02*X14760D01*
X14460Y113275D02*X14535Y113350D01*
X14460Y113275D02*Y113125D01*
X14535Y113050D01*
X14760D01*
X14835Y112975D01*
Y112825D01*
X14760Y112750D02*X14835Y112825D01*
X14535Y112750D02*X14760D01*
X14460Y112825D02*X14535Y112750D01*
X13500Y112424D02*X15015D01*
X9800Y113275D02*X9875Y113350D01*
X10100D01*
X10175Y113275D01*
Y113125D01*
X9800Y112750D02*X10175Y113125D01*
X9800Y112750D02*X10175D01*
X10355D02*X10730Y113125D01*
Y113350D02*Y113125D01*
X10355Y113350D02*X10730D01*
X9800Y112424D02*X10910D01*
X4500Y112825D02*X4575Y112750D01*
X4500Y113275D02*Y112825D01*
Y113275D02*X4575Y113350D01*
X4725D01*
X4800Y113275D01*
Y112825D01*
X4725Y112750D02*X4800Y112825D01*
X4575Y112750D02*X4725D01*
X4500Y112900D02*X4800Y113200D01*
X4980Y112750D02*X5055D01*
X5235Y112825D02*X5310Y112750D01*
X5235Y113275D02*Y112825D01*
Y113275D02*X5310Y113350D01*
X5460D01*
X5535Y113275D01*
Y112825D01*
X5460Y112750D02*X5535Y112825D01*
X5310Y112750D02*X5460D01*
X5235Y112900D02*X5535Y113200D01*
X5715Y113050D02*X6015Y113350D01*
X5715Y113050D02*X6090D01*
X6015Y113350D02*Y112750D01*
X6270Y113275D02*X6345Y113350D01*
X6570D01*
X6645Y113275D01*
Y113125D01*
X6270Y112750D02*X6645Y113125D01*
X6270Y112750D02*X6645D01*
X4500Y112424D02*X6825D01*
X57630Y61870D02*X57870Y61630D01*
X57630D02*X57870Y61870D01*
X59130D02*X59370Y61630D01*
X59130D02*X59370Y61870D01*
X59630Y30370D02*X59870Y30130D01*
X59630D02*X59870Y30370D01*
X57630D02*X57870Y30130D01*
X57630D02*X57870Y30370D01*
X53630Y27620D02*X53870Y27380D01*
X53630D02*X53870Y27620D01*
X53630Y29370D02*X53870Y29130D01*
X53630D02*X53870Y29370D01*
X49130Y25870D02*X49370Y25630D01*
X49130D02*X49370Y25870D01*
X41630Y19370D02*X41870Y19130D01*
X41630D02*X41870Y19370D01*
X48380Y24370D02*X48620Y24130D01*
X48380D02*X48620Y24370D01*
X41130Y15870D02*X41370Y15630D01*
X41130D02*X41370Y15870D01*
X57630Y26870D02*X57870Y26630D01*
X57630D02*X57870Y26870D01*
X59630D02*X59870Y26630D01*
X59630D02*X59870Y26870D01*
X51630Y28370D02*X51870Y28130D01*
X51630D02*X51870Y28370D01*
X55380Y70870D02*X55620Y70630D01*
X55380D02*X55620Y70870D01*
X60130Y41620D02*X60370Y41380D01*
X60130D02*X60370Y41620D01*
X60880Y40870D02*X61120Y40630D01*
X60880D02*X61120Y40870D01*
X56630Y36620D02*X56870Y36380D01*
X56630D02*X56870Y36620D01*
X60130D02*X60370Y36380D01*
X60130D02*X60370Y36620D01*
X40380Y48370D02*X40620Y48130D01*
X40380D02*X40620Y48370D01*
X39630Y39370D02*X39870Y39130D01*
X39630D02*X39870Y39370D01*
X41630D02*X41870Y39130D01*
X41630D02*X41870Y39370D01*
X51380Y61870D02*X51620Y61630D01*
X51380D02*X51620Y61870D01*
X52380Y62870D02*X52620Y62630D01*
X52380D02*X52620Y62870D01*
X48630Y57620D02*X48870Y57380D01*
X48630D02*X48870Y57620D01*
X49130Y58870D02*X49370Y58630D01*
X49130D02*X49370Y58870D01*
X1380Y114745D02*X1620Y114505D01*
X1380D02*X1620Y114745D01*
X13500Y114850D02*Y114775D01*
X13650Y114625D01*
X13800Y114775D01*
Y114850D02*Y114775D01*
X13650Y114625D02*Y114250D01*
X13980Y114550D02*X14205D01*
X13980Y114250D02*X14280D01*
X13980Y114850D02*Y114250D01*
Y114850D02*X14280D01*
X14760D02*X14835Y114775D01*
X14535Y114850D02*X14760D01*
X14460Y114775D02*X14535Y114850D01*
X14460Y114775D02*Y114625D01*
X14535Y114550D01*
X14760D01*
X14835Y114475D01*
Y114325D01*
X14760Y114250D02*X14835Y114325D01*
X14535Y114250D02*X14760D01*
X14460Y114325D02*X14535Y114250D01*
X13500Y113924D02*X15015D01*
X9800Y114775D02*X9875Y114850D01*
X10100D01*
X10175Y114775D01*
Y114625D01*
X9800Y114250D02*X10175Y114625D01*
X9800Y114250D02*X10175D01*
X10355Y114850D02*X10655D01*
X10355D02*Y114550D01*
X10430Y114625D01*
X10580D01*
X10655Y114550D01*
Y114325D01*
X10580Y114250D02*X10655Y114325D01*
X10430Y114250D02*X10580D01*
X10355Y114325D02*X10430Y114250D01*
X9800Y113924D02*X10835D01*
X4500Y114325D02*X4575Y114250D01*
X4500Y114775D02*Y114325D01*
Y114775D02*X4575Y114850D01*
X4725D01*
X4800Y114775D01*
Y114325D01*
X4725Y114250D02*X4800Y114325D01*
X4575Y114250D02*X4725D01*
X4500Y114400D02*X4800Y114700D01*
X4980Y114250D02*X5055D01*
X5235Y114325D02*X5310Y114250D01*
X5235Y114775D02*Y114325D01*
Y114775D02*X5310Y114850D01*
X5460D01*
X5535Y114775D01*
Y114325D01*
X5460Y114250D02*X5535Y114325D01*
X5310Y114250D02*X5460D01*
X5235Y114400D02*X5535Y114700D01*
X5715Y114775D02*X5790Y114850D01*
X5940D01*
X6015Y114775D01*
Y114325D01*
X5940Y114250D02*X6015Y114325D01*
X5790Y114250D02*X5940D01*
X5715Y114325D02*X5790Y114250D01*
Y114550D02*X6015D01*
X6195Y114850D02*X6495D01*
X6195D02*Y114550D01*
X6270Y114625D01*
X6420D01*
X6495Y114550D01*
Y114325D01*
X6420Y114250D02*X6495Y114325D01*
X6270Y114250D02*X6420D01*
X6195Y114325D02*X6270Y114250D01*
X4500Y113924D02*X6675D01*
X38000Y84410D02*Y84090D01*
X37840Y84250D02*X38160D01*
X38000Y83410D02*Y83090D01*
X37840Y83250D02*X38160D01*
X38000Y82410D02*Y82090D01*
X37840Y82250D02*X38160D01*
X39750Y84410D02*Y84090D01*
X39590Y84250D02*X39910D01*
X39750Y83410D02*Y83090D01*
X39590Y83250D02*X39910D01*
X39750Y82410D02*Y82090D01*
X39590Y82250D02*X39910D01*
X38000Y19910D02*Y19590D01*
X37840Y19750D02*X38160D01*
X38000Y18910D02*Y18590D01*
X37840Y18750D02*X38160D01*
X38000Y17910D02*Y17590D01*
X37840Y17750D02*X38160D01*
X39750Y52160D02*Y51840D01*
X39590Y52000D02*X39910D01*
X39750Y51160D02*Y50840D01*
X39590Y51000D02*X39910D01*
X39750Y50160D02*Y49840D01*
X39590Y50000D02*X39910D01*
X38000Y52160D02*Y51840D01*
X37840Y52000D02*X38160D01*
X38000Y51160D02*Y50840D01*
X37840Y51000D02*X38160D01*
X38000Y50160D02*Y49840D01*
X37840Y50000D02*X38160D01*
X39750Y19910D02*Y19590D01*
X39590Y19750D02*X39910D01*
X39750Y18910D02*Y18590D01*
X39590Y18750D02*X39910D01*
X39750Y17910D02*Y17590D01*
X39590Y17750D02*X39910D01*
X48000Y8660D02*Y8340D01*
X47840Y8500D02*X48160D01*
X49000Y8660D02*Y8340D01*
X48840Y8500D02*X49160D01*
X44250Y70160D02*Y69840D01*
X44090Y70000D02*X44410D01*
X44250Y69160D02*Y68840D01*
X44090Y69000D02*X44410D01*
X44250Y68160D02*Y67840D01*
X44090Y68000D02*X44410D01*
X44250Y67160D02*Y66840D01*
X44090Y67000D02*X44410D01*
X44250Y66160D02*Y65840D01*
X44090Y66000D02*X44410D01*
X44250Y65160D02*Y64840D01*
X44090Y65000D02*X44410D01*
X1500Y116285D02*Y115965D01*
X1340Y116125D02*X1660D01*
X13500Y116350D02*Y116275D01*
X13650Y116125D01*
X13800Y116275D01*
Y116350D02*Y116275D01*
X13650Y116125D02*Y115750D01*
X13980Y116050D02*X14205D01*
X13980Y115750D02*X14280D01*
X13980Y116350D02*Y115750D01*
Y116350D02*X14280D01*
X14760D02*X14835Y116275D01*
X14535Y116350D02*X14760D01*
X14460Y116275D02*X14535Y116350D01*
X14460Y116275D02*Y116125D01*
X14535Y116050D01*
X14760D01*
X14835Y115975D01*
Y115825D01*
X14760Y115750D02*X14835Y115825D01*
X14535Y115750D02*X14760D01*
X14460Y115825D02*X14535Y115750D01*
X13500Y115424D02*X15015D01*
X9800Y116275D02*X9875Y116350D01*
X10100D01*
X10175Y116275D01*
Y116125D01*
X9800Y115750D02*X10175Y116125D01*
X9800Y115750D02*X10175D01*
X10580Y116350D02*X10655Y116275D01*
X10430Y116350D02*X10580D01*
X10355Y116275D02*X10430Y116350D01*
X10355Y116275D02*Y115825D01*
X10430Y115750D01*
X10580Y116050D02*X10655Y115975D01*
X10355Y116050D02*X10580D01*
X10430Y115750D02*X10580D01*
X10655Y115825D01*
Y115975D02*Y115825D01*
X9800Y115424D02*X10835D01*
X4500Y115825D02*X4575Y115750D01*
X4500Y116275D02*Y115825D01*
Y116275D02*X4575Y116350D01*
X4725D01*
X4800Y116275D01*
Y115825D01*
X4725Y115750D02*X4800Y115825D01*
X4575Y115750D02*X4725D01*
X4500Y115900D02*X4800Y116200D01*
X4980Y115750D02*X5055D01*
X5235Y115825D02*X5310Y115750D01*
X5235Y116275D02*Y115825D01*
Y116275D02*X5310Y116350D01*
X5460D01*
X5535Y116275D01*
Y115825D01*
X5460Y115750D02*X5535Y115825D01*
X5310Y115750D02*X5460D01*
X5235Y115900D02*X5535Y116200D01*
X5715Y116275D02*X5790Y116350D01*
X5940D01*
X6015Y116275D01*
Y115825D01*
X5940Y115750D02*X6015Y115825D01*
X5790Y115750D02*X5940D01*
X5715Y115825D02*X5790Y115750D01*
Y116050D02*X6015D01*
X6195Y115825D02*X6270Y115750D01*
X6195Y116275D02*Y115825D01*
Y116275D02*X6270Y116350D01*
X6420D01*
X6495Y116275D01*
Y115825D01*
X6420Y115750D02*X6495Y115825D01*
X6270Y115750D02*X6420D01*
X6195Y115900D02*X6495Y116200D01*
X4500Y115424D02*X6675D01*
X38000Y81250D02*Y81090D01*
Y81250D02*X38138Y81330D01*
X38000Y81250D02*X37861Y81330D01*
X56000Y65750D02*Y65590D01*
Y65750D02*X56138Y65830D01*
X56000Y65750D02*X55861Y65830D01*
X46250Y65000D02*Y64840D01*
Y65000D02*X46388Y65080D01*
X46250Y65000D02*X46111Y65080D01*
X56500Y65250D02*Y65090D01*
Y65250D02*X56638Y65330D01*
X56500Y65250D02*X56361Y65330D01*
X45500Y69000D02*Y68840D01*
Y69000D02*X45638Y69080D01*
X45500Y69000D02*X45361Y69080D01*
X53000Y68500D02*Y68340D01*
Y68500D02*X53138Y68580D01*
X53000Y68500D02*X52861Y68580D01*
X56000Y66750D02*Y66590D01*
Y66750D02*X56138Y66830D01*
X56000Y66750D02*X55861Y66830D01*
X56500Y66250D02*Y66090D01*
Y66250D02*X56638Y66330D01*
X56500Y66250D02*X56361Y66330D01*
X46250Y67000D02*Y66840D01*
Y67000D02*X46388Y67080D01*
X46250Y67000D02*X46111Y67080D01*
X46250Y66000D02*Y65840D01*
Y66000D02*X46388Y66080D01*
X46250Y66000D02*X46111Y66080D01*
X50250Y66250D02*Y66090D01*
Y66250D02*X50388Y66330D01*
X50250Y66250D02*X50111Y66330D01*
X49250Y62250D02*Y62090D01*
Y62250D02*X49388Y62330D01*
X49250Y62250D02*X49111Y62330D01*
X48750Y61750D02*Y61590D01*
Y61750D02*X48888Y61830D01*
X48750Y61750D02*X48611Y61830D01*
X41250Y71250D02*Y71090D01*
Y71250D02*X41388Y71330D01*
X41250Y71250D02*X41111Y71330D01*
X41250Y72250D02*Y72090D01*
Y72250D02*X41388Y72330D01*
X41250Y72250D02*X41111Y72330D01*
X38750Y80500D02*Y80340D01*
Y80500D02*X38888Y80580D01*
X38750Y80500D02*X38611Y80580D01*
X53750Y30250D02*Y30090D01*
Y30250D02*X53888Y30330D01*
X53750Y30250D02*X53611Y30330D01*
X1500Y117625D02*Y117465D01*
Y117625D02*X1638Y117705D01*
X1500Y117625D02*X1361Y117705D01*
X13500Y117850D02*Y117775D01*
X13650Y117625D01*
X13800Y117775D01*
Y117850D02*Y117775D01*
X13650Y117625D02*Y117250D01*
X13980Y117550D02*X14205D01*
X13980Y117250D02*X14280D01*
X13980Y117850D02*Y117250D01*
Y117850D02*X14280D01*
X14760D02*X14835Y117775D01*
X14535Y117850D02*X14760D01*
X14460Y117775D02*X14535Y117850D01*
X14460Y117775D02*Y117625D01*
X14535Y117550D01*
X14760D01*
X14835Y117475D01*
Y117325D01*
X14760Y117250D02*X14835Y117325D01*
X14535Y117250D02*X14760D01*
X14460Y117325D02*X14535Y117250D01*
X13500Y116924D02*X15015D01*
X9875Y117250D02*X10025D01*
X9950Y117850D02*Y117250D01*
X9800Y117700D02*X9950Y117850D01*
X10205Y117250D02*X10580Y117625D01*
Y117850D02*Y117625D01*
X10205Y117850D02*X10580D01*
X9800Y116924D02*X10760D01*
X4500Y117325D02*X4575Y117250D01*
X4500Y117775D02*Y117325D01*
Y117775D02*X4575Y117850D01*
X4725D01*
X4800Y117775D01*
Y117325D01*
X4725Y117250D02*X4800Y117325D01*
X4575Y117250D02*X4725D01*
X4500Y117400D02*X4800Y117700D01*
X4980Y117250D02*X5055D01*
X5235Y117325D02*X5310Y117250D01*
X5235Y117775D02*Y117325D01*
Y117775D02*X5310Y117850D01*
X5460D01*
X5535Y117775D01*
Y117325D01*
X5460Y117250D02*X5535Y117325D01*
X5310Y117250D02*X5460D01*
X5235Y117400D02*X5535Y117700D01*
X5715Y117775D02*X5790Y117850D01*
X6015D01*
X6090Y117775D01*
Y117625D01*
X5715Y117250D02*X6090Y117625D01*
X5715Y117250D02*X6090D01*
X6270Y117325D02*X6345Y117250D01*
X6270Y117775D02*Y117325D01*
Y117775D02*X6345Y117850D01*
X6495D01*
X6570Y117775D01*
Y117325D01*
X6495Y117250D02*X6570Y117325D01*
X6345Y117250D02*X6495D01*
X6270Y117400D02*X6570Y117700D01*
X4500Y116924D02*X6750D01*
X300Y119350D02*X375Y119275D01*
X75Y119350D02*X300D01*
X0Y119275D02*X75Y119350D01*
X0Y119275D02*Y119125D01*
X75Y119050D01*
X300D01*
X375Y118975D01*
Y118825D01*
X300Y118750D02*X375Y118825D01*
X75Y118750D02*X300D01*
X0Y118825D02*X75Y118750D01*
X555Y119050D02*Y118825D01*
X630Y118750D01*
X855Y119050D02*Y118600D01*
X780Y118525D02*X855Y118600D01*
X630Y118525D02*X780D01*
X555Y118600D02*X630Y118525D01*
Y118750D02*X780D01*
X855Y118825D01*
X1110Y118975D02*Y118750D01*
Y118975D02*X1185Y119050D01*
X1260D01*
X1335Y118975D01*
Y118750D01*
Y118975D02*X1410Y119050D01*
X1485D01*
X1560Y118975D01*
Y118750D01*
X1035Y119050D02*X1110Y118975D01*
X1740Y119350D02*Y118750D01*
Y118825D02*X1815Y118750D01*
X1965D01*
X2040Y118825D01*
Y118975D02*Y118825D01*
X1965Y119050D02*X2040Y118975D01*
X1815Y119050D02*X1965D01*
X1740Y118975D02*X1815Y119050D01*
X2220Y118975D02*Y118825D01*
Y118975D02*X2295Y119050D01*
X2445D01*
X2520Y118975D01*
Y118825D01*
X2445Y118750D02*X2520Y118825D01*
X2295Y118750D02*X2445D01*
X2220Y118825D02*X2295Y118750D01*
X2700Y119350D02*Y118825D01*
X2775Y118750D01*
X4175Y119350D02*Y118750D01*
X4400Y119350D02*X4475Y119275D01*
Y118825D01*
X4400Y118750D02*X4475Y118825D01*
X4100Y118750D02*X4400D01*
X4100Y119350D02*X4400D01*
X4655Y119200D02*Y119125D01*
Y118975D02*Y118750D01*
X5030Y119050D02*X5105Y118975D01*
X4880Y119050D02*X5030D01*
X4805Y118975D02*X4880Y119050D01*
X4805Y118975D02*Y118825D01*
X4880Y118750D01*
X5105Y119050D02*Y118825D01*
X5180Y118750D01*
X4880D02*X5030D01*
X5105Y118825D01*
X5435Y118975D02*Y118750D01*
Y118975D02*X5510Y119050D01*
X5585D01*
X5660Y118975D01*
Y118750D01*
Y118975D02*X5735Y119050D01*
X5810D01*
X5885Y118975D01*
Y118750D01*
X5360Y119050D02*X5435Y118975D01*
X6065Y118750D02*X6140D01*
X6590Y118825D02*X6665Y118750D01*
X6590Y119275D02*X6665Y119350D01*
X6590Y119275D02*Y118825D01*
X6845Y119350D02*X6995D01*
X6920D02*Y118750D01*
X6845D02*X6995D01*
X7251Y118975D02*Y118750D01*
Y118975D02*X7326Y119050D01*
X7401D01*
X7476Y118975D01*
Y118750D01*
X7176Y119050D02*X7251Y118975D01*
X7731Y119050D02*X7956D01*
X7656Y118975D02*X7731Y119050D01*
X7656Y118975D02*Y118825D01*
X7731Y118750D01*
X7956D01*
X8136Y119350D02*Y118750D01*
Y118975D02*X8211Y119050D01*
X8361D01*
X8436Y118975D01*
Y118750D01*
X8616Y119350D02*X8691Y119275D01*
Y118825D01*
X8616Y118750D02*X8691Y118825D01*
X9575Y118750D02*X9800D01*
X9500Y118825D02*X9575Y118750D01*
X9500Y119275D02*Y118825D01*
Y119275D02*X9575Y119350D01*
X9800D01*
X9980Y118975D02*Y118825D01*
Y118975D02*X10055Y119050D01*
X10205D01*
X10280Y118975D01*
Y118825D01*
X10205Y118750D02*X10280Y118825D01*
X10055Y118750D02*X10205D01*
X9980Y118825D02*X10055Y118750D01*
X10460Y119050D02*Y118825D01*
X10535Y118750D01*
X10685D01*
X10760Y118825D01*
Y119050D02*Y118825D01*
X11015Y118975D02*Y118750D01*
Y118975D02*X11090Y119050D01*
X11165D01*
X11240Y118975D01*
Y118750D01*
X10940Y119050D02*X11015Y118975D01*
X11495Y119350D02*Y118825D01*
X11570Y118750D01*
X11420Y119125D02*X11570D01*
X13075Y119350D02*Y118750D01*
X13000Y119350D02*X13300D01*
X13375Y119275D01*
Y119125D01*
X13300Y119050D02*X13375Y119125D01*
X13075Y119050D02*X13300D01*
X13555Y119350D02*Y118825D01*
X13630Y118750D01*
X14005Y119050D02*X14080Y118975D01*
X13855Y119050D02*X14005D01*
X13780Y118975D02*X13855Y119050D01*
X13780Y118975D02*Y118825D01*
X13855Y118750D01*
X14080Y119050D02*Y118825D01*
X14155Y118750D01*
X13855D02*X14005D01*
X14080Y118825D01*
X14410Y119350D02*Y118825D01*
X14485Y118750D01*
X14335Y119125D02*X14485D01*
X14710Y118750D02*X14935D01*
X14635Y118825D02*X14710Y118750D01*
X14635Y118975D02*Y118825D01*
Y118975D02*X14710Y119050D01*
X14860D01*
X14935Y118975D01*
X14635Y118900D02*X14935D01*
Y118975D02*Y118900D01*
X15415Y119350D02*Y118750D01*
X15340D02*X15415Y118825D01*
X15190Y118750D02*X15340D01*
X15115Y118825D02*X15190Y118750D01*
X15115Y118975D02*Y118825D01*
Y118975D02*X15190Y119050D01*
X15340D01*
X15415Y118975D01*
X15745Y119050D02*Y118975D01*
Y118825D02*Y118750D01*
X15595Y119275D02*Y119200D01*
Y119275D02*X15670Y119350D01*
X15820D01*
X15895Y119275D01*
Y119200D01*
X15745Y119050D02*X15895Y119200D01*
X0Y120850D02*X300D01*
X150D02*Y120250D01*
X480Y120850D02*Y120250D01*
Y120475D02*X555Y120550D01*
X705D01*
X780Y120475D01*
Y120250D01*
X1035D02*X1260D01*
X960Y120325D02*X1035Y120250D01*
X960Y120475D02*Y120325D01*
Y120475D02*X1035Y120550D01*
X1185D01*
X1260Y120475D01*
X960Y120400D02*X1260D01*
Y120475D02*Y120400D01*
X1515Y120475D02*Y120250D01*
Y120475D02*X1590Y120550D01*
X1740D01*
X1440D02*X1515Y120475D01*
X1995Y120250D02*X2220D01*
X1920Y120325D02*X1995Y120250D01*
X1920Y120475D02*Y120325D01*
Y120475D02*X1995Y120550D01*
X2145D01*
X2220Y120475D01*
X1920Y120400D02*X2220D01*
Y120475D02*Y120400D01*
X2895Y120550D02*X2970Y120475D01*
X2745Y120550D02*X2895D01*
X2670Y120475D02*X2745Y120550D01*
X2670Y120475D02*Y120325D01*
X2745Y120250D01*
X2970Y120550D02*Y120325D01*
X3045Y120250D01*
X2745D02*X2895D01*
X2970Y120325D01*
X3300Y120475D02*Y120250D01*
Y120475D02*X3375Y120550D01*
X3525D01*
X3225D02*X3300Y120475D01*
X3781Y120250D02*X4006D01*
X3706Y120325D02*X3781Y120250D01*
X3706Y120475D02*Y120325D01*
Y120475D02*X3781Y120550D01*
X3931D01*
X4006Y120475D01*
X3706Y120400D02*X4006D01*
Y120475D02*Y120400D01*
X4456Y120250D02*X4831Y120625D01*
Y120850D02*Y120625D01*
X4456Y120850D02*X4831D01*
X5581D02*Y120250D01*
X5506D02*X5581Y120325D01*
X5356Y120250D02*X5506D01*
X5281Y120325D02*X5356Y120250D01*
X5281Y120475D02*Y120325D01*
Y120475D02*X5356Y120550D01*
X5506D01*
X5581Y120475D01*
X5761Y120700D02*Y120625D01*
Y120475D02*Y120250D01*
X5986Y120775D02*Y120250D01*
Y120775D02*X6061Y120850D01*
X6136D01*
X5911Y120550D02*X6061D01*
X6361Y120775D02*Y120250D01*
Y120775D02*X6436Y120850D01*
X6511D01*
X6286Y120550D02*X6436D01*
X6736Y120250D02*X6961D01*
X6661Y120325D02*X6736Y120250D01*
X6661Y120475D02*Y120325D01*
Y120475D02*X6736Y120550D01*
X6886D01*
X6961Y120475D01*
X6661Y120400D02*X6961D01*
Y120475D02*Y120400D01*
X7217Y120475D02*Y120250D01*
Y120475D02*X7292Y120550D01*
X7442D01*
X7142D02*X7217Y120475D01*
X7697Y120250D02*X7922D01*
X7622Y120325D02*X7697Y120250D01*
X7622Y120475D02*Y120325D01*
Y120475D02*X7697Y120550D01*
X7847D01*
X7922Y120475D01*
X7622Y120400D02*X7922D01*
Y120475D02*Y120400D01*
X8177Y120475D02*Y120250D01*
Y120475D02*X8252Y120550D01*
X8327D01*
X8402Y120475D01*
Y120250D01*
X8102Y120550D02*X8177Y120475D01*
X8657Y120850D02*Y120325D01*
X8732Y120250D01*
X8582Y120625D02*X8732D01*
X9452Y120850D02*Y120250D01*
X9377D02*X9452Y120325D01*
X9227Y120250D02*X9377D01*
X9152Y120325D02*X9227Y120250D01*
X9152Y120475D02*Y120325D01*
Y120475D02*X9227Y120550D01*
X9377D01*
X9452Y120475D01*
X9707D02*Y120250D01*
Y120475D02*X9782Y120550D01*
X9932D01*
X9632D02*X9707Y120475D01*
X10113Y120700D02*Y120625D01*
Y120475D02*Y120250D01*
X10263Y120850D02*Y120325D01*
X10338Y120250D01*
X10488Y120850D02*Y120325D01*
X10563Y120250D01*
X11058D02*X11283D01*
X11358Y120325D01*
X11283Y120400D02*X11358Y120325D01*
X11058Y120400D02*X11283D01*
X10983Y120475D02*X11058Y120400D01*
X10983Y120475D02*X11058Y120550D01*
X11283D01*
X11358Y120475D01*
X10983Y120325D02*X11058Y120250D01*
X11538Y120700D02*Y120625D01*
Y120475D02*Y120250D01*
X11688Y120550D02*X11988D01*
X11688Y120250D02*X11988Y120550D01*
X11688Y120250D02*X11988D01*
X12243D02*X12468D01*
X12168Y120325D02*X12243Y120250D01*
X12168Y120475D02*Y120325D01*
Y120475D02*X12243Y120550D01*
X12393D01*
X12468Y120475D01*
X12168Y120400D02*X12468D01*
Y120475D02*Y120400D01*
X12724Y120250D02*X12949D01*
X13024Y120325D01*
X12949Y120400D02*X13024Y120325D01*
X12724Y120400D02*X12949D01*
X12649Y120475D02*X12724Y120400D01*
X12649Y120475D02*X12724Y120550D01*
X12949D01*
X13024Y120475D01*
X12649Y120325D02*X12724Y120250D01*
X13474Y120550D02*Y120325D01*
X13549Y120250D01*
X13699D01*
X13774Y120325D01*
Y120550D02*Y120325D01*
X14029Y120250D02*X14254D01*
X14329Y120325D01*
X14254Y120400D02*X14329Y120325D01*
X14029Y120400D02*X14254D01*
X13954Y120475D02*X14029Y120400D01*
X13954Y120475D02*X14029Y120550D01*
X14254D01*
X14329Y120475D01*
X13954Y120325D02*X14029Y120250D01*
X14584D02*X14809D01*
X14509Y120325D02*X14584Y120250D01*
X14509Y120475D02*Y120325D01*
Y120475D02*X14584Y120550D01*
X14734D01*
X14809Y120475D01*
X14509Y120400D02*X14809D01*
Y120475D02*Y120400D01*
X15289Y120850D02*Y120250D01*
X15214D02*X15289Y120325D01*
X15064Y120250D02*X15214D01*
X14989Y120325D02*X15064Y120250D01*
X14989Y120475D02*Y120325D01*
Y120475D02*X15064Y120550D01*
X15214D01*
X15289Y120475D01*
X15739Y120700D02*Y120625D01*
Y120475D02*Y120250D01*
X15964Y120475D02*Y120250D01*
Y120475D02*X16039Y120550D01*
X16114D01*
X16189Y120475D01*
Y120250D01*
X15889Y120550D02*X15964Y120475D01*
X16715Y120850D02*Y120325D01*
X16790Y120250D01*
X16640Y120625D02*X16790D01*
X16940Y120850D02*Y120250D01*
Y120475D02*X17015Y120550D01*
X17165D01*
X17240Y120475D01*
Y120250D01*
X17420Y120700D02*Y120625D01*
Y120475D02*Y120250D01*
X17645D02*X17870D01*
X17945Y120325D01*
X17870Y120400D02*X17945Y120325D01*
X17645Y120400D02*X17870D01*
X17570Y120475D02*X17645Y120400D01*
X17570Y120475D02*X17645Y120550D01*
X17870D01*
X17945Y120475D01*
X17570Y120325D02*X17645Y120250D01*
X18395Y120850D02*Y120325D01*
X18470Y120250D01*
X18845Y120550D02*X18920Y120475D01*
X18695Y120550D02*X18845D01*
X18620Y120475D02*X18695Y120550D01*
X18620Y120475D02*Y120325D01*
X18695Y120250D01*
X18920Y120550D02*Y120325D01*
X18995Y120250D01*
X18695D02*X18845D01*
X18920Y120325D01*
X19176Y120550D02*Y120325D01*
X19251Y120250D01*
X19476Y120550D02*Y120100D01*
X19401Y120025D02*X19476Y120100D01*
X19251Y120025D02*X19401D01*
X19176Y120100D02*X19251Y120025D01*
Y120250D02*X19401D01*
X19476Y120325D01*
X19656Y120475D02*Y120325D01*
Y120475D02*X19731Y120550D01*
X19881D01*
X19956Y120475D01*
Y120325D01*
X19881Y120250D02*X19956Y120325D01*
X19731Y120250D02*X19881D01*
X19656Y120325D02*X19731Y120250D01*
X20136Y120550D02*Y120325D01*
X20211Y120250D01*
X20361D01*
X20436Y120325D01*
Y120550D02*Y120325D01*
X20691Y120850D02*Y120325D01*
X20766Y120250D01*
X20616Y120625D02*X20766D01*
X20916Y120100D02*X21066Y120250D01*
X21591D02*X21741D01*
X21666Y120850D02*Y120250D01*
X21516Y120700D02*X21666Y120850D01*
X21921Y120775D02*X21996Y120850D01*
X22221D01*
X22296Y120775D01*
Y120625D01*
X21921Y120250D02*X22296Y120625D01*
X21921Y120250D02*X22296D01*
X22477Y120850D02*X22777D01*
X22477D02*Y120550D01*
X22552Y120625D01*
X22702D01*
X22777Y120550D01*
Y120325D01*
X22702Y120250D02*X22777Y120325D01*
X22552Y120250D02*X22702D01*
X22477Y120325D02*X22552Y120250D01*
X23227Y120850D02*Y120250D01*
Y120475D02*X23302Y120550D01*
X23452D01*
X23527Y120475D01*
Y120250D01*
X23707Y120475D02*Y120325D01*
Y120475D02*X23782Y120550D01*
X23932D01*
X24007Y120475D01*
Y120325D01*
X23932Y120250D02*X24007Y120325D01*
X23782Y120250D02*X23932D01*
X23707Y120325D02*X23782Y120250D01*
X24187Y120850D02*Y120325D01*
X24262Y120250D01*
X24487D02*X24712D01*
X24412Y120325D02*X24487Y120250D01*
X24412Y120475D02*Y120325D01*
Y120475D02*X24487Y120550D01*
X24637D01*
X24712Y120475D01*
X24412Y120400D02*X24712D01*
Y120475D02*Y120400D01*
X24967Y120250D02*X25192D01*
X25267Y120325D01*
X25192Y120400D02*X25267Y120325D01*
X24967Y120400D02*X25192D01*
X24892Y120475D02*X24967Y120400D01*
X24892Y120475D02*X24967Y120550D01*
X25192D01*
X25267Y120475D01*
X24892Y120325D02*X24967Y120250D01*
X25792Y120850D02*Y120325D01*
X25867Y120250D01*
X25717Y120625D02*X25867D01*
X26018Y120475D02*Y120325D01*
Y120475D02*X26093Y120550D01*
X26243D01*
X26318Y120475D01*
Y120325D01*
X26243Y120250D02*X26318Y120325D01*
X26093Y120250D02*X26243D01*
X26018Y120325D02*X26093Y120250D01*
X26573Y120850D02*Y120325D01*
X26648Y120250D01*
X26498Y120625D02*X26648D01*
X27023Y120550D02*X27098Y120475D01*
X26873Y120550D02*X27023D01*
X26798Y120475D02*X26873Y120550D01*
X26798Y120475D02*Y120325D01*
X26873Y120250D01*
X27098Y120550D02*Y120325D01*
X27173Y120250D01*
X26873D02*X27023D01*
X27098Y120325D01*
X27353Y120850D02*Y120325D01*
X27428Y120250D01*
X0Y107500D02*X64500D01*
X0D02*Y0D01*
X64500Y107500D02*Y0D01*
X0D02*X64500D01*
X20000Y108850D02*Y108250D01*
Y108850D02*X20225Y108625D01*
X20450Y108850D01*
Y108250D01*
X20855Y108550D02*X20930Y108475D01*
X20705Y108550D02*X20855D01*
X20630Y108475D02*X20705Y108550D01*
X20630Y108475D02*Y108325D01*
X20705Y108250D01*
X20930Y108550D02*Y108325D01*
X21005Y108250D01*
X20705D02*X20855D01*
X20930Y108325D01*
X21185Y108550D02*X21485Y108250D01*
X21185D02*X21485Y108550D01*
X21665Y108700D02*Y108625D01*
Y108475D02*Y108250D01*
X21890Y108475D02*Y108250D01*
Y108475D02*X21965Y108550D01*
X22040D01*
X22115Y108475D01*
Y108250D01*
Y108475D02*X22190Y108550D01*
X22265D01*
X22340Y108475D01*
Y108250D01*
X21815Y108550D02*X21890Y108475D01*
X22520Y108550D02*Y108325D01*
X22595Y108250D01*
X22745D01*
X22820Y108325D01*
Y108550D02*Y108325D01*
X23075Y108475D02*Y108250D01*
Y108475D02*X23150Y108550D01*
X23225D01*
X23300Y108475D01*
Y108250D01*
Y108475D02*X23375Y108550D01*
X23450D01*
X23525Y108475D01*
Y108250D01*
X23000Y108550D02*X23075Y108475D01*
X24051Y108850D02*Y108250D01*
X24276Y108850D02*X24351Y108775D01*
Y108325D01*
X24276Y108250D02*X24351Y108325D01*
X23976Y108250D02*X24276D01*
X23976Y108850D02*X24276D01*
X24531Y108700D02*Y108625D01*
Y108475D02*Y108250D01*
X24756Y108475D02*Y108250D01*
Y108475D02*X24831Y108550D01*
X24906D01*
X24981Y108475D01*
Y108250D01*
Y108475D02*X25056Y108550D01*
X25131D01*
X25206Y108475D01*
Y108250D01*
X24681Y108550D02*X24756Y108475D01*
X25461Y108250D02*X25686D01*
X25386Y108325D02*X25461Y108250D01*
X25386Y108475D02*Y108325D01*
Y108475D02*X25461Y108550D01*
X25611D01*
X25686Y108475D01*
X25386Y108400D02*X25686D01*
Y108475D02*Y108400D01*
X25941Y108475D02*Y108250D01*
Y108475D02*X26016Y108550D01*
X26091D01*
X26166Y108475D01*
Y108250D01*
X25866Y108550D02*X25941Y108475D01*
X26421Y108250D02*X26646D01*
X26721Y108325D01*
X26646Y108400D02*X26721Y108325D01*
X26421Y108400D02*X26646D01*
X26346Y108475D02*X26421Y108400D01*
X26346Y108475D02*X26421Y108550D01*
X26646D01*
X26721Y108475D01*
X26346Y108325D02*X26421Y108250D01*
X26901Y108700D02*Y108625D01*
Y108475D02*Y108250D01*
X27052Y108475D02*Y108325D01*
Y108475D02*X27127Y108550D01*
X27277D01*
X27352Y108475D01*
Y108325D01*
X27277Y108250D02*X27352Y108325D01*
X27127Y108250D02*X27277D01*
X27052Y108325D02*X27127Y108250D01*
X27607Y108475D02*Y108250D01*
Y108475D02*X27682Y108550D01*
X27757D01*
X27832Y108475D01*
Y108250D01*
X27532Y108550D02*X27607Y108475D01*
X28087Y108250D02*X28312D01*
X28387Y108325D01*
X28312Y108400D02*X28387Y108325D01*
X28087Y108400D02*X28312D01*
X28012Y108475D02*X28087Y108400D01*
X28012Y108475D02*X28087Y108550D01*
X28312D01*
X28387Y108475D01*
X28012Y108325D02*X28087Y108250D01*
X28567Y108625D02*X28642D01*
X28567Y108475D02*X28642D01*
X29317Y108850D02*X29392Y108775D01*
X29167Y108850D02*X29317D01*
X29092Y108775D02*X29167Y108850D01*
X29092Y108775D02*Y108325D01*
X29167Y108250D01*
X29317Y108550D02*X29392Y108475D01*
X29092Y108550D02*X29317D01*
X29167Y108250D02*X29317D01*
X29392Y108325D01*
Y108475D02*Y108325D01*
X29572Y108550D02*X29872Y108850D01*
X29572Y108550D02*X29947D01*
X29872Y108850D02*Y108250D01*
X30128Y108850D02*X30428D01*
X30128D02*Y108550D01*
X30203Y108625D01*
X30353D01*
X30428Y108550D01*
Y108325D01*
X30353Y108250D02*X30428Y108325D01*
X30203Y108250D02*X30353D01*
X30128Y108325D02*X30203Y108250D01*
X30608Y108325D02*X30683Y108250D01*
X30608Y108775D02*Y108325D01*
Y108775D02*X30683Y108850D01*
X30833D01*
X30908Y108775D01*
Y108325D01*
X30833Y108250D02*X30908Y108325D01*
X30683Y108250D02*X30833D01*
X30608Y108400D02*X30908Y108700D01*
X31433Y108475D02*Y108250D01*
Y108475D02*X31508Y108550D01*
X31583D01*
X31658Y108475D01*
Y108250D01*
Y108475D02*X31733Y108550D01*
X31808D01*
X31883Y108475D01*
Y108250D01*
X31358Y108550D02*X31433Y108475D01*
X32063Y108700D02*Y108625D01*
Y108475D02*Y108250D01*
X32213Y108850D02*Y108325D01*
X32288Y108250D01*
X32513D02*X32738D01*
X32813Y108325D01*
X32738Y108400D02*X32813Y108325D01*
X32513Y108400D02*X32738D01*
X32438Y108475D02*X32513Y108400D01*
X32438Y108475D02*X32513Y108550D01*
X32738D01*
X32813Y108475D01*
X32438Y108325D02*X32513Y108250D01*
X33263Y108550D02*Y108325D01*
X33338Y108250D01*
X33413D01*
X33488Y108325D01*
Y108550D02*Y108325D01*
X33563Y108250D01*
X33638D01*
X33713Y108325D01*
Y108550D02*Y108325D01*
X33894Y108700D02*Y108625D01*
Y108475D02*Y108250D01*
X34344Y108850D02*Y108250D01*
X34269D02*X34344Y108325D01*
X34119Y108250D02*X34269D01*
X34044Y108325D02*X34119Y108250D01*
X34044Y108475D02*Y108325D01*
Y108475D02*X34119Y108550D01*
X34269D01*
X34344Y108475D01*
X34599Y108250D02*X34824D01*
X34524Y108325D02*X34599Y108250D01*
X34524Y108475D02*Y108325D01*
Y108475D02*X34599Y108550D01*
X34749D01*
X34824Y108475D01*
X34524Y108400D02*X34824D01*
Y108475D02*Y108400D01*
X35004Y108100D02*X35154Y108250D01*
X35679D02*X35829D01*
X35754Y108850D02*Y108250D01*
X35604Y108700D02*X35754Y108850D01*
X36009Y108325D02*X36084Y108250D01*
X36009Y108775D02*Y108325D01*
Y108775D02*X36084Y108850D01*
X36234D01*
X36309Y108775D01*
Y108325D01*
X36234Y108250D02*X36309Y108325D01*
X36084Y108250D02*X36234D01*
X36009Y108400D02*X36309Y108700D01*
X36489Y108250D02*X36864Y108625D01*
Y108850D02*Y108625D01*
X36489Y108850D02*X36864D01*
X37045D02*X37345D01*
X37045D02*Y108550D01*
X37120Y108625D01*
X37270D01*
X37345Y108550D01*
Y108325D01*
X37270Y108250D02*X37345Y108325D01*
X37120Y108250D02*X37270D01*
X37045Y108325D02*X37120Y108250D01*
X37525Y108325D02*X37600Y108250D01*
X37525Y108775D02*Y108325D01*
Y108775D02*X37600Y108850D01*
X37750D01*
X37825Y108775D01*
Y108325D01*
X37750Y108250D02*X37825Y108325D01*
X37600Y108250D02*X37750D01*
X37525Y108400D02*X37825Y108700D01*
X38350Y108475D02*Y108250D01*
Y108475D02*X38425Y108550D01*
X38500D01*
X38575Y108475D01*
Y108250D01*
Y108475D02*X38650Y108550D01*
X38725D01*
X38800Y108475D01*
Y108250D01*
X38275Y108550D02*X38350Y108475D01*
X38980Y108700D02*Y108625D01*
Y108475D02*Y108250D01*
X39130Y108850D02*Y108325D01*
X39205Y108250D01*
X39430D02*X39655D01*
X39730Y108325D01*
X39655Y108400D02*X39730Y108325D01*
X39430Y108400D02*X39655D01*
X39355Y108475D02*X39430Y108400D01*
X39355Y108475D02*X39430Y108550D01*
X39655D01*
X39730Y108475D01*
X39355Y108325D02*X39430Y108250D01*
X40181Y108850D02*Y108250D01*
Y108475D02*X40256Y108550D01*
X40406D01*
X40481Y108475D01*
Y108250D01*
X40661Y108700D02*Y108625D01*
Y108475D02*Y108250D01*
X41036Y108550D02*X41111Y108475D01*
X40886Y108550D02*X41036D01*
X40811Y108475D02*X40886Y108550D01*
X40811Y108475D02*Y108325D01*
X40886Y108250D01*
X41036D01*
X41111Y108325D01*
X40811Y108100D02*X40886Y108025D01*
X41036D01*
X41111Y108100D01*
Y108550D02*Y108100D01*
X41291Y108850D02*Y108250D01*
Y108475D02*X41366Y108550D01*
X41516D01*
X41591Y108475D01*
Y108250D01*
X16195Y-950D02*X16495D01*
X16570Y-875D01*
Y-725D02*Y-875D01*
X16495Y-650D02*X16570Y-725D01*
X16270Y-650D02*X16495D01*
X16270Y-350D02*Y-950D01*
X16195Y-350D02*X16495D01*
X16570Y-425D01*
Y-575D01*
X16495Y-650D02*X16570Y-575D01*
X16750Y-725D02*Y-875D01*
Y-725D02*X16825Y-650D01*
X16975D01*
X17050Y-725D01*
Y-875D01*
X16975Y-950D02*X17050Y-875D01*
X16825Y-950D02*X16975D01*
X16750Y-875D02*X16825Y-950D01*
X17455Y-650D02*X17530Y-725D01*
X17305Y-650D02*X17455D01*
X17230Y-725D02*X17305Y-650D01*
X17230Y-725D02*Y-875D01*
X17305Y-950D01*
X17530Y-650D02*Y-875D01*
X17605Y-950D01*
X17305D02*X17455D01*
X17530Y-875D01*
X17860Y-725D02*Y-950D01*
Y-725D02*X17935Y-650D01*
X18085D01*
X17785D02*X17860Y-725D01*
X18565Y-350D02*Y-950D01*
X18490D02*X18565Y-875D01*
X18340Y-950D02*X18490D01*
X18265Y-875D02*X18340Y-950D01*
X18265Y-725D02*Y-875D01*
Y-725D02*X18340Y-650D01*
X18490D01*
X18565Y-725D01*
X19015D02*Y-875D01*
Y-725D02*X19090Y-650D01*
X19240D01*
X19315Y-725D01*
Y-875D01*
X19240Y-950D02*X19315Y-875D01*
X19090Y-950D02*X19240D01*
X19015Y-875D02*X19090Y-950D01*
X19495Y-650D02*Y-875D01*
X19570Y-950D01*
X19720D01*
X19795Y-875D01*
Y-650D02*Y-875D01*
X20051Y-350D02*Y-875D01*
X20126Y-950D01*
X19976Y-575D02*X20126D01*
X20276Y-350D02*Y-875D01*
X20351Y-950D01*
X20501Y-500D02*Y-575D01*
Y-725D02*Y-950D01*
X20726Y-725D02*Y-950D01*
Y-725D02*X20801Y-650D01*
X20876D01*
X20951Y-725D01*
Y-950D01*
X20651Y-650D02*X20726Y-725D01*
X21206Y-950D02*X21431D01*
X21131Y-875D02*X21206Y-950D01*
X21131Y-725D02*Y-875D01*
Y-725D02*X21206Y-650D01*
X21356D01*
X21431Y-725D01*
X21131Y-800D02*X21431D01*
Y-725D02*Y-800D01*
X21881Y-500D02*Y-575D01*
Y-725D02*Y-950D01*
X22106D02*X22331D01*
X22406Y-875D01*
X22331Y-800D02*X22406Y-875D01*
X22106Y-800D02*X22331D01*
X22031Y-725D02*X22106Y-800D01*
X22031Y-725D02*X22106Y-650D01*
X22331D01*
X22406Y-725D01*
X22031Y-875D02*X22106Y-950D01*
X22932Y-350D02*Y-875D01*
X23007Y-950D01*
X22857Y-575D02*X23007D01*
X23157Y-350D02*Y-950D01*
Y-725D02*X23232Y-650D01*
X23382D01*
X23457Y-725D01*
Y-950D01*
X23712D02*X23937D01*
X23637Y-875D02*X23712Y-950D01*
X23637Y-725D02*Y-875D01*
Y-725D02*X23712Y-650D01*
X23862D01*
X23937Y-725D01*
X23637Y-800D02*X23937D01*
Y-725D02*Y-800D01*
X24462Y-650D02*X24687D01*
X24387Y-725D02*X24462Y-650D01*
X24387Y-725D02*Y-875D01*
X24462Y-950D01*
X24687D01*
X24942D02*X25167D01*
X24867Y-875D02*X24942Y-950D01*
X24867Y-725D02*Y-875D01*
Y-725D02*X24942Y-650D01*
X25092D01*
X25167Y-725D01*
X24867Y-800D02*X25167D01*
Y-725D02*Y-800D01*
X25422Y-725D02*Y-950D01*
Y-725D02*X25497Y-650D01*
X25572D01*
X25647Y-725D01*
Y-950D01*
X25347Y-650D02*X25422Y-725D01*
X25903Y-350D02*Y-875D01*
X25978Y-950D01*
X25828Y-575D02*X25978D01*
X26203Y-950D02*X26428D01*
X26128Y-875D02*X26203Y-950D01*
X26128Y-725D02*Y-875D01*
Y-725D02*X26203Y-650D01*
X26353D01*
X26428Y-725D01*
X26128Y-800D02*X26428D01*
Y-725D02*Y-800D01*
X26683Y-725D02*Y-950D01*
Y-725D02*X26758Y-650D01*
X26908D01*
X26608D02*X26683Y-725D01*
X27088Y-350D02*Y-875D01*
X27163Y-950D01*
X27313Y-500D02*Y-575D01*
Y-725D02*Y-950D01*
X27538Y-725D02*Y-950D01*
Y-725D02*X27613Y-650D01*
X27688D01*
X27763Y-725D01*
Y-950D01*
X27463Y-650D02*X27538Y-725D01*
X28018Y-950D02*X28243D01*
X27943Y-875D02*X28018Y-950D01*
X27943Y-725D02*Y-875D01*
Y-725D02*X28018Y-650D01*
X28168D01*
X28243Y-725D01*
X27943Y-800D02*X28243D01*
Y-725D02*Y-800D01*
X28694Y-725D02*Y-875D01*
Y-725D02*X28769Y-650D01*
X28919D01*
X28994Y-725D01*
Y-875D01*
X28919Y-950D02*X28994Y-875D01*
X28769Y-950D02*X28919D01*
X28694Y-875D02*X28769Y-950D01*
X29249Y-425D02*Y-950D01*
Y-425D02*X29324Y-350D01*
X29399D01*
X29174Y-650D02*X29324D01*
X29894Y-350D02*Y-875D01*
X29969Y-950D01*
X29819Y-575D02*X29969D01*
X30119Y-350D02*Y-950D01*
Y-725D02*X30194Y-650D01*
X30344D01*
X30419Y-725D01*
Y-950D01*
X30599Y-500D02*Y-575D01*
Y-725D02*Y-950D01*
X30824D02*X31049D01*
X31124Y-875D01*
X31049Y-800D02*X31124Y-875D01*
X30824Y-800D02*X31049D01*
X30749Y-725D02*X30824Y-800D01*
X30749Y-725D02*X30824Y-650D01*
X31049D01*
X31124Y-725D01*
X30749Y-875D02*X30824Y-950D01*
X31649D02*X31799D01*
X31724Y-350D02*Y-950D01*
X31574Y-500D02*X31724Y-350D01*
X31980Y-875D02*X32055Y-950D01*
X31980Y-425D02*Y-875D01*
Y-425D02*X32055Y-350D01*
X32205D01*
X32280Y-425D01*
Y-875D01*
X32205Y-950D02*X32280Y-875D01*
X32055Y-950D02*X32205D01*
X31980Y-800D02*X32280Y-500D01*
X32805Y-725D02*Y-950D01*
Y-725D02*X32880Y-650D01*
X32955D01*
X33030Y-725D01*
Y-950D01*
Y-725D02*X33105Y-650D01*
X33180D01*
X33255Y-725D01*
Y-950D01*
X32730Y-650D02*X32805Y-725D01*
X33435Y-500D02*Y-575D01*
Y-725D02*Y-950D01*
X33585Y-350D02*Y-875D01*
X33660Y-950D01*
X34155Y-725D02*Y-950D01*
Y-725D02*X34230Y-650D01*
X34380D01*
X34080D02*X34155Y-725D01*
X34635Y-950D02*X34860D01*
X34560Y-875D02*X34635Y-950D01*
X34560Y-725D02*Y-875D01*
Y-725D02*X34635Y-650D01*
X34785D01*
X34860Y-725D01*
X34560Y-800D02*X34860D01*
Y-725D02*Y-800D01*
X35116Y-650D02*X35341D01*
X35041Y-725D02*X35116Y-650D01*
X35041Y-725D02*Y-875D01*
X35116Y-950D01*
X35341D01*
X35596Y-350D02*Y-875D01*
X35671Y-950D01*
X35521Y-575D02*X35671D01*
X36046Y-650D02*X36121Y-725D01*
X35896Y-650D02*X36046D01*
X35821Y-725D02*X35896Y-650D01*
X35821Y-725D02*Y-875D01*
X35896Y-950D01*
X36121Y-650D02*Y-875D01*
X36196Y-950D01*
X35896D02*X36046D01*
X36121Y-875D01*
X36451Y-725D02*Y-950D01*
Y-725D02*X36526Y-650D01*
X36601D01*
X36676Y-725D01*
Y-950D01*
X36376Y-650D02*X36451Y-725D01*
X37081Y-650D02*X37156Y-725D01*
X36931Y-650D02*X37081D01*
X36856Y-725D02*X36931Y-650D01*
X36856Y-725D02*Y-875D01*
X36931Y-950D01*
X37081D01*
X37156Y-875D01*
X36856Y-1100D02*X36931Y-1175D01*
X37081D01*
X37156Y-1100D01*
Y-650D02*Y-1100D01*
X37336Y-350D02*Y-875D01*
X37411Y-950D01*
X37636D02*X37861D01*
X37561Y-875D02*X37636Y-950D01*
X37561Y-725D02*Y-875D01*
Y-725D02*X37636Y-650D01*
X37786D01*
X37861Y-725D01*
X37561Y-800D02*X37861D01*
Y-725D02*Y-800D01*
X38312Y-650D02*X38612D01*
X39062Y-875D02*X39137Y-950D01*
X39062Y-425D02*Y-875D01*
Y-425D02*X39137Y-350D01*
X39287D01*
X39362Y-425D01*
Y-875D01*
X39287Y-950D02*X39362Y-875D01*
X39137Y-950D02*X39287D01*
X39062Y-800D02*X39362Y-500D01*
X39542Y-1100D02*X39692Y-950D01*
X39872Y-875D02*X39947Y-950D01*
X39872Y-425D02*Y-875D01*
Y-425D02*X39947Y-350D01*
X40097D01*
X40172Y-425D01*
Y-875D01*
X40097Y-950D02*X40172Y-875D01*
X39947Y-950D02*X40097D01*
X39872Y-800D02*X40172Y-500D01*
X40697Y-350D02*Y-875D01*
X40772Y-950D01*
X40622Y-575D02*X40772D01*
X40922Y-725D02*Y-875D01*
Y-725D02*X40997Y-650D01*
X41147D01*
X41222Y-725D01*
Y-875D01*
X41147Y-950D02*X41222Y-875D01*
X40997Y-950D02*X41147D01*
X40922Y-875D02*X40997Y-950D01*
X41897Y-350D02*X41972Y-425D01*
X41747Y-350D02*X41897D01*
X41672Y-425D02*X41747Y-350D01*
X41672Y-425D02*Y-875D01*
X41747Y-950D01*
X41897Y-650D02*X41972Y-725D01*
X41672Y-650D02*X41897D01*
X41747Y-950D02*X41897D01*
X41972Y-875D01*
Y-725D02*Y-875D01*
X42153Y-650D02*X42453Y-350D01*
X42153Y-650D02*X42528D01*
X42453Y-350D02*Y-950D01*
X42708Y-350D02*X43008D01*
X42708D02*Y-650D01*
X42783Y-575D01*
X42933D01*
X43008Y-650D01*
Y-875D01*
X42933Y-950D02*X43008Y-875D01*
X42783Y-950D02*X42933D01*
X42708Y-875D02*X42783Y-950D01*
X43188Y-875D02*X43263Y-950D01*
X43188Y-425D02*Y-875D01*
Y-425D02*X43263Y-350D01*
X43413D01*
X43488Y-425D01*
Y-875D01*
X43413Y-950D02*X43488Y-875D01*
X43263Y-950D02*X43413D01*
X43188Y-800D02*X43488Y-500D01*
X43668Y-1100D02*X43818Y-950D01*
X44073D02*X44223D01*
X44148Y-350D02*Y-950D01*
X43998Y-500D02*X44148Y-350D01*
X44403Y-875D02*X44478Y-950D01*
X44403Y-425D02*Y-875D01*
Y-425D02*X44478Y-350D01*
X44628D01*
X44703Y-425D01*
Y-875D01*
X44628Y-950D02*X44703Y-875D01*
X44478Y-950D02*X44628D01*
X44403Y-800D02*X44703Y-500D01*
X44884Y-950D02*X45259Y-575D01*
Y-350D02*Y-575D01*
X44884Y-350D02*X45259D01*
X45439D02*X45739D01*
X45439D02*Y-650D01*
X45514Y-575D01*
X45664D01*
X45739Y-650D01*
Y-875D01*
X45664Y-950D02*X45739Y-875D01*
X45514Y-950D02*X45664D01*
X45439Y-875D02*X45514Y-950D01*
X45919Y-875D02*X45994Y-950D01*
X45919Y-425D02*Y-875D01*
Y-425D02*X45994Y-350D01*
X46144D01*
X46219Y-425D01*
Y-875D01*
X46144Y-950D02*X46219Y-875D01*
X45994Y-950D02*X46144D01*
X45919Y-800D02*X46219Y-500D01*
X46744Y-725D02*Y-950D01*
Y-725D02*X46819Y-650D01*
X46894D01*
X46969Y-725D01*
Y-950D01*
Y-725D02*X47044Y-650D01*
X47119D01*
X47194Y-725D01*
Y-950D01*
X46669Y-650D02*X46744Y-725D01*
X47374Y-500D02*Y-575D01*
Y-725D02*Y-950D01*
X47524Y-350D02*Y-875D01*
X47599Y-950D01*
X47824D02*X48049D01*
X48124Y-875D01*
X48049Y-800D02*X48124Y-875D01*
X47824Y-800D02*X48049D01*
X47749Y-725D02*X47824Y-800D01*
X47749Y-725D02*X47824Y-650D01*
X48049D01*
X48124Y-725D01*
X47749Y-875D02*X47824Y-950D01*
X20075Y110350D02*Y109750D01*
X20300Y110350D02*X20375Y110275D01*
Y109825D01*
X20300Y109750D02*X20375Y109825D01*
X20000Y109750D02*X20300D01*
X20000Y110350D02*X20300D01*
X20780Y110050D02*X20855Y109975D01*
X20630Y110050D02*X20780D01*
X20555Y109975D02*X20630Y110050D01*
X20555Y109975D02*Y109825D01*
X20630Y109750D01*
X20855Y110050D02*Y109825D01*
X20930Y109750D01*
X20630D02*X20780D01*
X20855Y109825D01*
X21185Y110350D02*Y109825D01*
X21260Y109750D01*
X21110Y110125D02*X21260D01*
X21485Y109750D02*X21710D01*
X21410Y109825D02*X21485Y109750D01*
X21410Y109975D02*Y109825D01*
Y109975D02*X21485Y110050D01*
X21635D01*
X21710Y109975D01*
X21410Y109900D02*X21710D01*
Y109975D02*Y109900D01*
X21890Y110125D02*X21965D01*
X21890Y109975D02*X21965D01*
X22415Y110350D02*Y109750D01*
Y110350D02*X22640Y110125D01*
X22865Y110350D01*
Y109750D01*
X23045Y109975D02*Y109825D01*
Y109975D02*X23120Y110050D01*
X23270D01*
X23345Y109975D01*
Y109825D01*
X23270Y109750D02*X23345Y109825D01*
X23120Y109750D02*X23270D01*
X23045Y109825D02*X23120Y109750D01*
X23601Y109975D02*Y109750D01*
Y109975D02*X23676Y110050D01*
X23751D01*
X23826Y109975D01*
Y109750D01*
X23526Y110050D02*X23601Y109975D01*
X24276Y110350D02*X24501D01*
Y109825D01*
X24426Y109750D02*X24501Y109825D01*
X24351Y109750D02*X24426D01*
X24276Y109825D02*X24351Y109750D01*
X24681Y110050D02*Y109825D01*
X24756Y109750D01*
X24906D01*
X24981Y109825D01*
Y110050D02*Y109825D01*
X25236Y109975D02*Y109750D01*
Y109975D02*X25311Y110050D01*
X25386D01*
X25461Y109975D01*
Y109750D01*
X25161Y110050D02*X25236Y109975D01*
X25986Y109750D02*X26136D01*
X26061Y110350D02*Y109750D01*
X25911Y110200D02*X26061Y110350D01*
X26541D02*X26616Y110275D01*
X26391Y110350D02*X26541D01*
X26316Y110275D02*X26391Y110350D01*
X26316Y110275D02*Y109825D01*
X26391Y109750D01*
X26541Y110050D02*X26616Y109975D01*
X26316Y110050D02*X26541D01*
X26391Y109750D02*X26541D01*
X26616Y109825D01*
Y109975D02*Y109825D01*
X27066D02*X27141Y109750D01*
X27066Y110275D02*Y109825D01*
Y110275D02*X27141Y110350D01*
X27291D01*
X27366Y110275D01*
Y109825D01*
X27291Y109750D02*X27366Y109825D01*
X27141Y109750D02*X27291D01*
X27066Y109900D02*X27366Y110200D01*
X27622Y109750D02*X27772D01*
X27697Y110350D02*Y109750D01*
X27547Y110200D02*X27697Y110350D01*
X27952Y110125D02*X28027D01*
X27952Y109975D02*X28027D01*
X28207Y110275D02*X28282Y110350D01*
X28507D01*
X28582Y110275D01*
Y110125D01*
X28207Y109750D02*X28582Y110125D01*
X28207Y109750D02*X28582D01*
X28762Y110275D02*X28837Y110350D01*
X28987D01*
X29062Y110275D01*
Y109825D01*
X28987Y109750D02*X29062Y109825D01*
X28837Y109750D02*X28987D01*
X28762Y109825D02*X28837Y109750D01*
Y110050D02*X29062D01*
X29242Y110125D02*X29317D01*
X29242Y109975D02*X29317D01*
X29497Y109825D02*X29572Y109750D01*
X29497Y110275D02*Y109825D01*
Y110275D02*X29572Y110350D01*
X29722D01*
X29797Y110275D01*
Y109825D01*
X29722Y109750D02*X29797Y109825D01*
X29572Y109750D02*X29722D01*
X29497Y109900D02*X29797Y110200D01*
X29978Y110050D02*X30278Y110350D01*
X29978Y110050D02*X30353D01*
X30278Y110350D02*Y109750D01*
X30803Y110275D02*X30878Y110350D01*
X31103D01*
X31178Y110275D01*
Y110125D01*
X30803Y109750D02*X31178Y110125D01*
X30803Y109750D02*X31178D01*
X31358Y109825D02*X31433Y109750D01*
X31358Y110275D02*Y109825D01*
Y110275D02*X31433Y110350D01*
X31583D01*
X31658Y110275D01*
Y109825D01*
X31583Y109750D02*X31658Y109825D01*
X31433Y109750D02*X31583D01*
X31358Y109900D02*X31658Y110200D01*
X31838Y109825D02*X31913Y109750D01*
X31838Y110275D02*Y109825D01*
Y110275D02*X31913Y110350D01*
X32063D01*
X32138Y110275D01*
Y109825D01*
X32063Y109750D02*X32138Y109825D01*
X31913Y109750D02*X32063D01*
X31838Y109900D02*X32138Y110200D01*
X32318Y109825D02*X32393Y109750D01*
X32318Y109975D02*Y109825D01*
Y109975D02*X32393Y110050D01*
X32543D01*
X32618Y109975D01*
Y109825D01*
X32543Y109750D02*X32618Y109825D01*
X32393Y109750D02*X32543D01*
X32318Y110125D02*X32393Y110050D01*
X32318Y110275D02*Y110125D01*
Y110275D02*X32393Y110350D01*
X32543D01*
X32618Y110275D01*
Y110125D01*
X32543Y110050D02*X32618Y110125D01*
X33068Y110350D02*Y109825D01*
X33143Y109750D01*
X33293D01*
X33368Y109825D01*
Y110350D02*Y109825D01*
X33548Y110350D02*X33848D01*
X33698D02*Y109750D01*
X34104D02*X34329D01*
X34029Y109825D02*X34104Y109750D01*
X34029Y110275D02*Y109825D01*
Y110275D02*X34104Y110350D01*
X34329D01*
X20000Y111775D02*Y111250D01*
Y111775D02*X20075Y111850D01*
X20300D01*
X20375Y111775D01*
Y111250D01*
X20000Y111550D02*X20375D01*
X20555D02*Y111325D01*
X20630Y111250D01*
X20780D01*
X20855Y111325D01*
Y111550D02*Y111325D01*
X21110Y111850D02*Y111325D01*
X21185Y111250D01*
X21035Y111625D02*X21185D01*
X21335Y111850D02*Y111250D01*
Y111475D02*X21410Y111550D01*
X21560D01*
X21635Y111475D01*
Y111250D01*
X21815Y111475D02*Y111325D01*
Y111475D02*X21890Y111550D01*
X22040D01*
X22115Y111475D01*
Y111325D01*
X22040Y111250D02*X22115Y111325D01*
X21890Y111250D02*X22040D01*
X21815Y111325D02*X21890Y111250D01*
X22370Y111475D02*Y111250D01*
Y111475D02*X22445Y111550D01*
X22595D01*
X22295D02*X22370Y111475D01*
X22775Y111625D02*X22850D01*
X22775Y111475D02*X22850D01*
X23376Y111850D02*Y111250D01*
X23301Y111850D02*X23601D01*
X23676Y111775D01*
Y111625D01*
X23601Y111550D02*X23676Y111625D01*
X23376Y111550D02*X23601D01*
X23931Y111250D02*X24156D01*
X23856Y111325D02*X23931Y111250D01*
X23856Y111475D02*Y111325D01*
Y111475D02*X23931Y111550D01*
X24081D01*
X24156Y111475D01*
X23856Y111400D02*X24156D01*
Y111475D02*Y111400D01*
X24411Y111850D02*Y111325D01*
X24486Y111250D01*
X24336Y111625D02*X24486D01*
X24711Y111250D02*X24936D01*
X24636Y111325D02*X24711Y111250D01*
X24636Y111475D02*Y111325D01*
Y111475D02*X24711Y111550D01*
X24861D01*
X24936Y111475D01*
X24636Y111400D02*X24936D01*
Y111475D02*Y111400D01*
X25191Y111475D02*Y111250D01*
Y111475D02*X25266Y111550D01*
X25416D01*
X25116D02*X25191Y111475D01*
X25866Y111850D02*X26166D01*
X26016D02*Y111250D01*
X26346Y111475D02*Y111325D01*
Y111475D02*X26421Y111550D01*
X26571D01*
X26646Y111475D01*
Y111325D01*
X26571Y111250D02*X26646Y111325D01*
X26421Y111250D02*X26571D01*
X26346Y111325D02*X26421Y111250D01*
X27127Y111850D02*Y111250D01*
X27052D02*X27127Y111325D01*
X26902Y111250D02*X27052D01*
X26827Y111325D02*X26902Y111250D01*
X26827Y111475D02*Y111325D01*
Y111475D02*X26902Y111550D01*
X27052D01*
X27127Y111475D01*
X27607Y111850D02*Y111250D01*
X27532D02*X27607Y111325D01*
X27382Y111250D02*X27532D01*
X27307Y111325D02*X27382Y111250D01*
X27307Y111475D02*Y111325D01*
Y111475D02*X27382Y111550D01*
X27532D01*
X27607Y111475D01*
X20000Y113350D02*X20300D01*
X20150D02*Y112750D01*
X20480Y113200D02*Y113125D01*
Y112975D02*Y112750D01*
X20705Y113350D02*Y112825D01*
X20780Y112750D01*
X20630Y113125D02*X20780D01*
X20930Y113350D02*Y112825D01*
X21005Y112750D01*
X21230D02*X21455D01*
X21155Y112825D02*X21230Y112750D01*
X21155Y112975D02*Y112825D01*
Y112975D02*X21230Y113050D01*
X21380D01*
X21455Y112975D01*
X21155Y112900D02*X21455D01*
Y112975D02*Y112900D01*
X21635Y113125D02*X21710D01*
X21635Y112975D02*X21710D01*
X22160Y112825D02*X22235Y112750D01*
X22160Y113275D02*X22235Y113350D01*
X22160Y113275D02*Y112825D01*
X22416Y113050D02*Y112825D01*
X22491Y112750D01*
X22641D01*
X22716Y112825D01*
Y113050D02*Y112825D01*
X22971Y112975D02*Y112750D01*
Y112975D02*X23046Y113050D01*
X23121D01*
X23196Y112975D01*
Y112750D01*
X22896Y113050D02*X22971Y112975D01*
X23376Y113350D02*Y112750D01*
Y112975D02*X23601Y112750D01*
X23376Y112975D02*X23526Y113125D01*
X23856Y112975D02*Y112750D01*
Y112975D02*X23931Y113050D01*
X24006D01*
X24081Y112975D01*
Y112750D01*
X23781Y113050D02*X23856Y112975D01*
X24261D02*Y112825D01*
Y112975D02*X24336Y113050D01*
X24486D01*
X24561Y112975D01*
Y112825D01*
X24486Y112750D02*X24561Y112825D01*
X24336Y112750D02*X24486D01*
X24261Y112825D02*X24336Y112750D01*
X24741Y113050D02*Y112825D01*
X24816Y112750D01*
X24891D01*
X24966Y112825D01*
Y113050D02*Y112825D01*
X25041Y112750D01*
X25116D01*
X25191Y112825D01*
Y113050D02*Y112825D01*
X25446Y112975D02*Y112750D01*
Y112975D02*X25521Y113050D01*
X25596D01*
X25671Y112975D01*
Y112750D01*
X25371Y113050D02*X25446Y112975D01*
X25852Y113350D02*X25927Y113275D01*
Y112825D01*
X25852Y112750D02*X25927Y112825D01*
X26377Y113050D02*X26677D01*
X27127Y113350D02*Y112750D01*
Y113350D02*X27427D01*
X27127Y113050D02*X27352D01*
X27832D02*X27907Y112975D01*
X27682Y113050D02*X27832D01*
X27607Y112975D02*X27682Y113050D01*
X27607Y112975D02*Y112825D01*
X27682Y112750D01*
X27907Y113050D02*Y112825D01*
X27982Y112750D01*
X27682D02*X27832D01*
X27907Y112825D01*
X28162Y113350D02*Y112750D01*
Y112825D02*X28237Y112750D01*
X28387D01*
X28462Y112825D01*
Y112975D02*Y112825D01*
X28387Y113050D02*X28462Y112975D01*
X28237Y113050D02*X28387D01*
X28162Y112975D02*X28237Y113050D01*
X28717Y112975D02*Y112750D01*
Y112975D02*X28792Y113050D01*
X28942D01*
X28642D02*X28717Y112975D01*
X29123Y113200D02*Y113125D01*
Y112975D02*Y112750D01*
X29348Y113050D02*X29573D01*
X29273Y112975D02*X29348Y113050D01*
X29273Y112975D02*Y112825D01*
X29348Y112750D01*
X29573D01*
X29978Y113050D02*X30053Y112975D01*
X29828Y113050D02*X29978D01*
X29753Y112975D02*X29828Y113050D01*
X29753Y112975D02*Y112825D01*
X29828Y112750D01*
X30053Y113050D02*Y112825D01*
X30128Y112750D01*
X29828D02*X29978D01*
X30053Y112825D01*
X30383Y113350D02*Y112825D01*
X30458Y112750D01*
X30308Y113125D02*X30458D01*
X30608Y113200D02*Y113125D01*
Y112975D02*Y112750D01*
X30758Y112975D02*Y112825D01*
Y112975D02*X30833Y113050D01*
X30983D01*
X31058Y112975D01*
Y112825D01*
X30983Y112750D02*X31058Y112825D01*
X30833Y112750D02*X30983D01*
X30758Y112825D02*X30833Y112750D01*
X31313Y112975D02*Y112750D01*
Y112975D02*X31388Y113050D01*
X31463D01*
X31538Y112975D01*
Y112750D01*
X31238Y113050D02*X31313Y112975D01*
X32064Y113350D02*Y112750D01*
X32289Y113350D02*X32364Y113275D01*
Y112825D01*
X32289Y112750D02*X32364Y112825D01*
X31989Y112750D02*X32289D01*
X31989Y113350D02*X32289D01*
X32619Y112975D02*Y112750D01*
Y112975D02*X32694Y113050D01*
X32844D01*
X32544D02*X32619Y112975D01*
X33249Y113050D02*X33324Y112975D01*
X33099Y113050D02*X33249D01*
X33024Y112975D02*X33099Y113050D01*
X33024Y112975D02*Y112825D01*
X33099Y112750D01*
X33324Y113050D02*Y112825D01*
X33399Y112750D01*
X33099D02*X33249D01*
X33324Y112825D01*
X33579Y113050D02*Y112825D01*
X33654Y112750D01*
X33729D01*
X33804Y112825D01*
Y113050D02*Y112825D01*
X33879Y112750D01*
X33954D01*
X34029Y112825D01*
Y113050D02*Y112825D01*
X34209Y113200D02*Y113125D01*
Y112975D02*Y112750D01*
X34434Y112975D02*Y112750D01*
Y112975D02*X34509Y113050D01*
X34584D01*
X34659Y112975D01*
Y112750D01*
X34359Y113050D02*X34434Y112975D01*
X35064Y113050D02*X35139Y112975D01*
X34914Y113050D02*X35064D01*
X34839Y112975D02*X34914Y113050D01*
X34839Y112975D02*Y112825D01*
X34914Y112750D01*
X35064D01*
X35139Y112825D01*
X34839Y112600D02*X34914Y112525D01*
X35064D01*
X35139Y112600D01*
Y113050D02*Y112600D01*
M02*
